M48
; DRILL file KiCad 10.0.3 date 2026-07-20T13:29:06
; FORMAT={-:-/ absolute / inch / decimal}
; #@! TF.CreationDate,2026-07-20T13:29:06+08:00
; #@! TF.GenerationSoftware,Kicad,Pcbnew,10.0.3
; #@! TF.FileFunction,Plated,1,4,PTH
FMAT,2
INCH
; #@! TA.AperFunction,Plated,PTH,ViaDrill
T1C0.0118
; #@! TA.AperFunction,Plated,PTH,ViaDrill
T2C0.0157
; #@! TA.AperFunction,Plated,PTH,ComponentDrill
T3C0.0236
; #@! TA.AperFunction,Plated,PTH,ViaDrill
T4C0.0315
; #@! TA.AperFunction,Plated,PTH,ComponentDrill
T5C0.0402
%
G90
G05
T1
X2.0846Y-2.1831
X2.0925Y-2.9154
X2.0945Y-3.1024
X2.1Y-2.5024
X2.1732Y-3.0138
X2.2648Y-3.0698
X2.274Y-2.8307
X2.2803Y-2.4253
X2.2854Y-2.1831
X2.3268Y-2.9331
X2.378Y-2.4213
X2.3937Y-2.6299
X2.4213Y-2.937
X2.4213Y-2.9724
X2.4213Y-3.0
X2.4213Y-3.0315
X2.4213Y-3.0591
X2.4213Y-3.0905
X2.4528Y-2.3187
X2.4528Y-2.937
X2.4528Y-2.9724
X2.4528Y-3.0
X2.4528Y-3.0315
X2.4528Y-3.0591
X2.4528Y-3.0905
X2.4528Y-2.3533
X2.4843Y-2.937
X2.4843Y-2.9724
X2.4843Y-3.0905
X2.7402Y-2.6471
X2.7441Y-2.3187
X2.8461Y-2.3071
X2.8504Y-2.7244
X2.9213Y-3.1102
X2.9764Y-3.1098
X3.0866Y-2.7717
X3.0884Y-3.0
X3.1142Y-2.2183
X3.1201Y-2.4587
X3.1203Y-2.549
X3.127Y-2.126
X3.1593Y-2.937
X3.1617Y-2.6437
X3.2064Y-2.8858
X3.2064Y-2.9232
X3.2264Y-2.1783
X3.2446Y-2.8857
X3.2446Y-2.9231
X3.2458Y-2.7677
X3.2458Y-2.8071
X3.2458Y-2.8465
X3.2838Y-2.8858
X3.2838Y-2.9232
X3.2851Y-2.8465
X3.2853Y-2.7677
X3.2853Y-2.8067
X3.3192Y-2.7343
X3.3245Y-2.8858
X3.3245Y-2.9232
X3.3969Y-2.8063
X3.4272Y-2.1783
T2
X2.0571Y-2.8406
X2.185Y-2.4685
X2.2205Y-2.8898
X2.4429Y-2.5374
X2.4528Y-2.8898
X3.0236Y-2.8799
X3.0236Y-2.9488
X3.2897Y-2.5962
X3.3622Y-2.7402
T3
X2.7059Y-3.0315
X2.7559Y-2.9815
X2.8059Y-3.0315
T4
X2.5984Y-2.4606
X2.7402Y-2.4173
X2.7953Y-2.4803
X2.7953Y-2.6929
X2.9055Y-2.4587
X2.9055Y-2.6909
T5
X2.6559Y-2.1024
X2.7559Y-2.1024
X2.8559Y-2.1024
M30
