%TF.GenerationSoftware,KiCad,Pcbnew,10.0.3*%
%TF.CreationDate,2026-07-20T13:29:05+08:00*%
%TF.ProjectId,InGaAs_General_PD_v0.1,496e4761-4173-45f4-9765-6e6572616c5f,rev?*%
%TF.SameCoordinates,Original*%
%TF.FileFunction,Copper,L1,Top*%
%TF.FilePolarity,Positive*%
%FSLAX46Y46*%
G04 Gerber Fmt 4.6, Leading zero omitted, Abs format (unit mm)*
G04 Created by KiCad (PCBNEW 10.0.3) date 2026-07-20 13:29:05*
%MOMM*%
%LPD*%
G01*
G04 APERTURE LIST*
G04 Aperture macros list*
%AMRoundRect*
0 Rectangle with rounded corners*
0 $1 Rounding radius*
0 $2 $3 $4 $5 $6 $7 $8 $9 X,Y pos of 4 corners*
0 Add a 4 corners polygon primitive as box body*
4,1,4,$2,$3,$4,$5,$6,$7,$8,$9,$2,$3,0*
0 Add four circle primitives for the rounded corners*
1,1,$1+$1,$2,$3*
1,1,$1+$1,$4,$5*
1,1,$1+$1,$6,$7*
1,1,$1+$1,$8,$9*
0 Add four rect primitives between the rounded corners*
20,1,$1+$1,$2,$3,$4,$5,0*
20,1,$1+$1,$4,$5,$6,$7,0*
20,1,$1+$1,$6,$7,$8,$9,0*
20,1,$1+$1,$8,$9,$2,$3,0*%
%AMFreePoly0*
4,1,123,0.971476,0.948895,1.015900,0.945771,1.060147,0.940564,1.104089,0.933299,1.147650,0.923952,1.190704,0.912598,1.233198,0.899238,1.275006,0.883896,1.316053,0.866599,1.356261,0.847422,1.395504,0.826365,1.433731,0.803480,1.470841,0.778842,1.506756,0.752502,1.541377,0.724511,1.574676,0.694895,1.606528,0.663780,1.636906,0.631191,1.665710,0.597231,1.692888,0.561951,
1.718390,0.525425,1.742139,0.487757,1.764110,0.448997,1.784252,0.409271,1.802489,0.368631,1.818821,0.327203,1.833172,0.285039,1.845542,0.242240,1.855880,0.198908,1.864186,0.155169,1.870434,0.111049,1.874600,0.066701,1.876683,0.022225,1.876683,-0.022327,1.874600,-0.066802,1.870434,-0.111151,1.864186,-0.155271,1.855880,-0.199009,1.845542,-0.242342,1.833172,-0.285141,
1.818821,-0.327305,1.802489,-0.368733,1.784252,-0.409373,1.764110,-0.449098,1.742139,-0.487859,1.718390,-0.525527,1.692888,-0.562052,1.665710,-0.597333,1.636906,-0.631293,1.606528,-0.663881,1.574676,-0.694996,1.541377,-0.724613,1.506756,-0.752604,1.470841,-0.778943,1.433731,-0.803581,1.395504,-0.826467,1.356261,-0.847523,1.316053,-0.866701,1.275006,-0.883998,1.233198,-0.899340,
1.190704,-0.912700,1.147650,-0.924054,1.104089,-0.933401,1.060147,-0.940665,1.015900,-0.945872,0.971476,-0.948997,0.926949,-0.950064,-0.927254,-0.950064,-0.971781,-0.948997,-1.016205,-0.945872,-1.060452,-0.940665,-1.104394,-0.933401,-1.147955,-0.924054,-1.191008,-0.912700,-1.233503,-0.899340,-1.275311,-0.883998,-1.316358,-0.866701,-1.356566,-0.847523,-1.395809,-0.826467,-1.434036,-0.803581,
-1.471146,-0.778943,-1.507061,-0.752604,-1.541681,-0.724613,-1.574981,-0.694996,-1.606833,-0.663881,-1.637211,-0.631293,-1.666015,-0.597333,-1.693193,-0.562052,-1.718694,-0.525527,-1.742443,-0.487859,-1.764415,-0.449098,-1.784557,-0.409373,-1.802794,-0.330074,-3.500127,-0.330074,-3.500127,0.329921,-1.802794,0.329921,-1.784557,0.409271,-1.764415,0.448997,-1.742443,0.487757,-1.718694,0.525425,
-1.693193,0.561951,-1.666015,0.597231,-1.637211,0.631191,-1.606833,0.663780,-1.574981,0.694895,-1.541681,0.724511,-1.507061,0.752502,-1.471146,0.778842,-1.434036,0.803480,-1.395809,0.826365,-1.356566,0.847422,-1.316358,0.866599,-1.275311,0.883896,-1.233503,0.899238,-1.191008,0.912598,-1.147955,0.923952,-1.104394,0.933299,-1.060452,0.940564,-1.016205,0.945771,-0.971781,0.948895,
-0.927254,0.949962,0.926949,0.949962,0.971476,0.948895,0.971476,0.948895,$1*%
%AMFreePoly1*
4,1,123,0.971755,0.948895,1.016180,0.945771,1.060427,0.940564,1.104369,0.933299,1.147930,0.923952,1.190983,0.912598,1.233477,0.899238,1.275286,0.883896,1.316332,0.866599,1.356541,0.847422,1.395784,0.826365,1.434011,0.803480,1.471120,0.778842,1.507036,0.752502,1.541656,0.724511,1.574956,0.694895,1.606807,0.663780,1.637186,0.631191,1.665989,0.597231,1.693167,0.561951,
1.718669,0.525425,1.742418,0.487757,1.764389,0.448997,1.784531,0.409271,1.802769,0.329972,3.500102,0.329972,3.500102,-0.330023,1.802769,-0.330023,1.784531,-0.409373,1.764389,-0.449098,1.742418,-0.487859,1.718669,-0.525527,1.693167,-0.562052,1.665989,-0.597333,1.637186,-0.631293,1.606807,-0.663881,1.574956,-0.694996,1.541656,-0.724613,1.507036,-0.752604,1.471120,-0.778943,
1.434011,-0.803581,1.395784,-0.826467,1.356541,-0.847523,1.316332,-0.866701,1.275286,-0.883998,1.233477,-0.899340,1.190983,-0.912700,1.147930,-0.924054,1.104369,-0.933401,1.060427,-0.940665,1.016180,-0.945872,0.971755,-0.948997,0.927229,-0.950064,-0.926975,-0.950064,-0.971501,-0.948997,-1.015926,-0.945872,-1.060173,-0.940665,-1.104115,-0.933401,-1.147676,-0.924054,-1.190729,-0.912700,
-1.233223,-0.899340,-1.275032,-0.883998,-1.316078,-0.866701,-1.356287,-0.847523,-1.395530,-0.826467,-1.433757,-0.803581,-1.470866,-0.778943,-1.506782,-0.752604,-1.541402,-0.724613,-1.574702,-0.694996,-1.606553,-0.663881,-1.636932,-0.631293,-1.665735,-0.597333,-1.692913,-0.562052,-1.718415,-0.525527,-1.742164,-0.487859,-1.764135,-0.449098,-1.784277,-0.409373,-1.802515,-0.368733,-1.818847,-0.327305,
-1.833198,-0.285141,-1.845568,-0.242342,-1.855906,-0.199009,-1.864211,-0.155271,-1.870460,-0.111151,-1.874625,-0.066802,-1.876708,-0.022327,-1.876708,0.022225,-1.874625,0.066701,-1.870460,0.111049,-1.864211,0.155169,-1.855906,0.198908,-1.845568,0.242240,-1.833198,0.285039,-1.818847,0.327203,-1.802515,0.368631,-1.784277,0.409271,-1.764135,0.448997,-1.742164,0.487757,-1.718415,0.525425,
-1.692913,0.561951,-1.665735,0.597231,-1.636932,0.631191,-1.606553,0.663780,-1.574702,0.694895,-1.541402,0.724511,-1.506782,0.752502,-1.470866,0.778842,-1.433757,0.803480,-1.395530,0.826365,-1.356287,0.847422,-1.316078,0.866599,-1.275032,0.883896,-1.233223,0.899238,-1.190729,0.912598,-1.147676,0.923952,-1.104115,0.933299,-1.060173,0.940564,-1.015926,0.945771,-0.971501,0.948895,
-0.926975,0.949962,0.927229,0.949962,0.971755,0.948895,0.971755,0.948895,$1*%
G04 Aperture macros list end*
%TA.AperFunction,ComponentPad*%
%ADD10C,1.600000*%
%TD*%
%TA.AperFunction,ComponentPad*%
%ADD11R,1.600000X1.600000*%
%TD*%
%TA.AperFunction,SMDPad,CuDef*%
%ADD12RoundRect,0.250000X-0.475000X0.250000X-0.475000X-0.250000X0.475000X-0.250000X0.475000X0.250000X0*%
%TD*%
%TA.AperFunction,SMDPad,CuDef*%
%ADD13RoundRect,0.135000X-0.135000X-0.185000X0.135000X-0.185000X0.135000X0.185000X-0.135000X0.185000X0*%
%TD*%
%TA.AperFunction,ComponentPad*%
%ADD14C,1.108000*%
%TD*%
%TA.AperFunction,SMDPad,CuDef*%
%ADD15RoundRect,0.225000X-0.250000X0.225000X-0.250000X-0.225000X0.250000X-0.225000X0.250000X0.225000X0*%
%TD*%
%TA.AperFunction,SMDPad,CuDef*%
%ADD16RoundRect,0.140000X0.170000X-0.140000X0.170000X0.140000X-0.170000X0.140000X-0.170000X-0.140000X0*%
%TD*%
%TA.AperFunction,SMDPad,CuDef*%
%ADD17RoundRect,0.250000X0.475000X-0.250000X0.475000X0.250000X-0.475000X0.250000X-0.475000X-0.250000X0*%
%TD*%
%TA.AperFunction,SMDPad,CuDef*%
%ADD18RoundRect,0.225000X-0.225000X-0.250000X0.225000X-0.250000X0.225000X0.250000X-0.225000X0.250000X0*%
%TD*%
%TA.AperFunction,SMDPad,CuDef*%
%ADD19RoundRect,0.135000X0.185000X-0.135000X0.185000X0.135000X-0.185000X0.135000X-0.185000X-0.135000X0*%
%TD*%
%TA.AperFunction,SMDPad,CuDef*%
%ADD20RoundRect,0.140000X-0.170000X0.140000X-0.170000X-0.140000X0.170000X-0.140000X0.170000X0.140000X0*%
%TD*%
%TA.AperFunction,SMDPad,CuDef*%
%ADD21RoundRect,0.250000X0.250000X0.475000X-0.250000X0.475000X-0.250000X-0.475000X0.250000X-0.475000X0*%
%TD*%
%TA.AperFunction,SMDPad,CuDef*%
%ADD22R,0.800000X0.280010*%
%TD*%
%TA.AperFunction,SMDPad,CuDef*%
%ADD23R,1.200000X2.000000*%
%TD*%
%TA.AperFunction,SMDPad,CuDef*%
%ADD24RoundRect,0.140000X-0.140000X-0.170000X0.140000X-0.170000X0.140000X0.170000X-0.140000X0.170000X0*%
%TD*%
%TA.AperFunction,SMDPad,CuDef*%
%ADD25RoundRect,0.225000X0.250000X-0.225000X0.250000X0.225000X-0.250000X0.225000X-0.250000X-0.225000X0*%
%TD*%
%TA.AperFunction,SMDPad,CuDef*%
%ADD26R,0.672009X1.575006*%
%TD*%
%TA.AperFunction,SMDPad,CuDef*%
%ADD27FreePoly0,270.000000*%
%TD*%
%TA.AperFunction,SMDPad,CuDef*%
%ADD28RoundRect,0.135000X0.135000X0.185000X-0.135000X0.185000X-0.135000X-0.185000X0.135000X-0.185000X0*%
%TD*%
%TA.AperFunction,SMDPad,CuDef*%
%ADD29R,1.300000X4.500000*%
%TD*%
%TA.AperFunction,SMDPad,CuDef*%
%ADD30RoundRect,0.140000X0.140000X0.170000X-0.140000X0.170000X-0.140000X-0.170000X0.140000X-0.170000X0*%
%TD*%
%TA.AperFunction,SMDPad,CuDef*%
%ADD31O,0.588011X2.045009*%
%TD*%
%TA.AperFunction,SMDPad,CuDef*%
%ADD32FreePoly1,90.000000*%
%TD*%
%TA.AperFunction,SMDPad,CuDef*%
%ADD33R,1.500000X2.400000*%
%TD*%
%TA.AperFunction,ViaPad*%
%ADD34C,0.500000*%
%TD*%
%TA.AperFunction,ViaPad*%
%ADD35C,1.200000*%
%TD*%
%TA.AperFunction,ViaPad*%
%ADD36C,0.800000*%
%TD*%
%TA.AperFunction,Conductor*%
%ADD37C,0.500000*%
%TD*%
%TA.AperFunction,Conductor*%
%ADD38C,0.350000*%
%TD*%
%TA.AperFunction,Conductor*%
%ADD39C,1.000000*%
%TD*%
%TA.AperFunction,Conductor*%
%ADD40C,0.750000*%
%TD*%
%TA.AperFunction,Conductor*%
%ADD41C,0.200000*%
%TD*%
G04 APERTURE END LIST*
D10*
%TO.P,J3,3,V-_3*%
%TO.N,-15V*%
X72540000Y-53400000D03*
%TO.P,J3,2,GND_2*%
%TO.N,GNDA*%
X70000000Y-53400000D03*
D11*
%TO.P,J3,1,V+_1*%
%TO.N,+15V*%
X67460000Y-53400000D03*
%TD*%
D12*
%TO.P,C15,1*%
%TO.N,GNDA*%
X60400000Y-62550000D03*
%TO.P,C15,2*%
%TO.N,/-5V*%
X60400000Y-64450000D03*
%TD*%
D13*
%TO.P,R5,1*%
%TO.N,Net-(U2-IN-)*%
X81490000Y-69100000D03*
%TO.P,R5,2*%
%TO.N,Net-(U2-OUT)*%
X82510000Y-69100000D03*
%TD*%
D14*
%TO.P,D1,1*%
%TO.N,Net-(C1-Pad1)*%
X71270000Y-77000000D03*
%TO.P,D1,2*%
%TO.N,GNDA*%
X70000000Y-75730000D03*
%TO.P,D1,3*%
%TO.N,Net-(C2-Pad1)*%
X68730000Y-77000000D03*
%TD*%
D15*
%TO.P,C23,1*%
%TO.N,/-12V*%
X72291491Y-56081236D03*
%TO.P,C23,2*%
%TO.N,GNDA*%
X72291491Y-57631236D03*
%TD*%
D16*
%TO.P,C7,1*%
%TO.N,Net-(U1-OUT)*%
X59900000Y-70680000D03*
%TO.P,C7,2*%
%TO.N,Net-(U3-IN+)*%
X59900000Y-69720000D03*
%TD*%
D17*
%TO.P,C11,1*%
%TO.N,GNDA*%
X78446297Y-75050064D03*
%TO.P,C11,2*%
%TO.N,/-12V*%
X78446297Y-73150064D03*
%TD*%
D15*
%TO.P,C19,1*%
%TO.N,/+12V*%
X69600000Y-64525000D03*
%TO.P,C19,2*%
%TO.N,GNDA*%
X69600000Y-66075000D03*
%TD*%
D18*
%TO.P,C22,1*%
%TO.N,-15V*%
X76425000Y-54000000D03*
%TO.P,C22,2*%
%TO.N,GNDA*%
X77975000Y-54000000D03*
%TD*%
D19*
%TO.P,R1,1*%
%TO.N,Net-(C2-Pad1)*%
X64700000Y-78320000D03*
%TO.P,R1,2*%
%TO.N,Net-(U1-FB)*%
X64700000Y-77300000D03*
%TD*%
D20*
%TO.P,C8,1*%
%TO.N,/+12V*%
X85700000Y-70320000D03*
%TO.P,C8,2*%
%TO.N,GNDA*%
X85700000Y-71280000D03*
%TD*%
D21*
%TO.P,C9,1*%
%TO.N,/+12V*%
X83557417Y-67149936D03*
%TO.P,C9,2*%
%TO.N,GNDA*%
X81657417Y-67149936D03*
%TD*%
D22*
%TO.P,U2,1,NC_1*%
%TO.N,unconnected-(U2-NC-Pad1)*%
X81492583Y-71049936D03*
%TO.P,U2,2,IN-_2*%
%TO.N,Net-(U2-IN-)*%
X81492583Y-71550064D03*
%TO.P,U2,3,IN+_3*%
%TO.N,Net-(U1-OUT)*%
X81492583Y-72049936D03*
%TO.P,U2,4,V-_4*%
%TO.N,/-12V*%
X81492583Y-72550064D03*
%TO.P,U2,5,NC_5*%
%TO.N,unconnected-(U2-NC-Pad5)*%
X84307417Y-72550064D03*
%TO.P,U2,6,OUT_6*%
%TO.N,Net-(U2-OUT)*%
X84307417Y-72049936D03*
%TO.P,U2,7,V+_7*%
%TO.N,/+12V*%
X84307417Y-71550064D03*
%TO.P,U2,8,SHDN_8*%
%TO.N,GNDA*%
X84307417Y-71049936D03*
D23*
%TO.P,U2,9,EP_9*%
%TO.N,/-12V*%
X82900000Y-71800000D03*
%TD*%
D19*
%TO.P,R11,1*%
%TO.N,GNDA*%
X75600000Y-78010000D03*
%TO.P,R11,2*%
%TO.N,Net-(C1-Pad1)*%
X75600000Y-76990000D03*
%TD*%
D24*
%TO.P,C12,1*%
%TO.N,/+5V*%
X55840000Y-71900000D03*
%TO.P,C12,2*%
%TO.N,GNDA*%
X56800000Y-71900000D03*
%TD*%
D25*
%TO.P,C18,1*%
%TO.N,+15V*%
X62300000Y-62475000D03*
%TO.P,C18,2*%
%TO.N,GNDA*%
X62300000Y-60925000D03*
%TD*%
D15*
%TO.P,C16,1*%
%TO.N,+15V*%
X62300000Y-56075000D03*
%TO.P,C16,2*%
%TO.N,GNDA*%
X62300000Y-57625000D03*
%TD*%
D19*
%TO.P,R10,1*%
%TO.N,Net-(C1-Pad1)*%
X75600000Y-75910000D03*
%TO.P,R10,2*%
%TO.N,/+5V*%
X75600000Y-74890000D03*
%TD*%
D26*
%TO.P,U6,1,GND_1*%
%TO.N,GNDA*%
X77600000Y-64743764D03*
D27*
%TO.P,U6,2,VIN_2*%
%TO.N,-15V*%
X76091491Y-67456236D03*
D26*
%TO.P,U6,3,VOUT_3*%
%TO.N,/-5V*%
X74600000Y-64743764D03*
%TD*%
D13*
%TO.P,R4,1*%
%TO.N,GNDA*%
X79190000Y-70400000D03*
%TO.P,R4,2*%
%TO.N,Net-(U2-IN-)*%
X80210000Y-70400000D03*
%TD*%
D26*
%TO.P,U7,1,GND_1*%
%TO.N,GNDA*%
X77600000Y-56343764D03*
D27*
%TO.P,U7,2,VIN_2*%
%TO.N,-15V*%
X76091491Y-59056236D03*
D26*
%TO.P,U7,3,VOUT_3*%
%TO.N,/-12V*%
X74600000Y-56343764D03*
%TD*%
D15*
%TO.P,C17,1*%
%TO.N,/+5V*%
X69591491Y-56081236D03*
%TO.P,C17,2*%
%TO.N,GNDA*%
X69591491Y-57631236D03*
%TD*%
D28*
%TO.P,R2,1*%
%TO.N,Net-(C2-Pad1)*%
X65710000Y-76199949D03*
%TO.P,R2,2*%
%TO.N,Net-(U1-IN-)*%
X64690000Y-76199949D03*
%TD*%
D20*
%TO.P,C6,1*%
%TO.N,GNDA*%
X59100000Y-75320000D03*
%TO.P,C6,2*%
%TO.N,/-5V*%
X59100000Y-76280000D03*
%TD*%
D17*
%TO.P,C5,1*%
%TO.N,GNDA*%
X56400000Y-76550000D03*
%TO.P,C5,2*%
%TO.N,/-5V*%
X56400000Y-74650000D03*
%TD*%
D12*
%TO.P,C13,1*%
%TO.N,/+5V*%
X54200000Y-72150000D03*
%TO.P,C13,2*%
%TO.N,GNDA*%
X54200000Y-74050000D03*
%TD*%
D28*
%TO.P,R7,1*%
%TO.N,Net-(U3-IN-)*%
X55910000Y-61400000D03*
%TO.P,R7,2*%
%TO.N,Net-(U3-OUT)*%
X54890000Y-61400000D03*
%TD*%
D16*
%TO.P,C10,1*%
%TO.N,GNDA*%
X80246297Y-73760064D03*
%TO.P,C10,2*%
%TO.N,/-12V*%
X80246297Y-72800064D03*
%TD*%
D26*
%TO.P,U4,1,VOUT_1*%
%TO.N,/+5V*%
X67500000Y-56343764D03*
D27*
%TO.P,U4,2,GND_2*%
%TO.N,GNDA*%
X65991491Y-59056236D03*
D26*
%TO.P,U4,3,VIN_3*%
%TO.N,+15V*%
X64500000Y-56343764D03*
%TD*%
D29*
%TO.P,J1,1,GND_1*%
%TO.N,GNDA*%
X81949962Y-52400000D03*
%TO.P,J1,2,GND_2*%
X87050038Y-52400000D03*
%TO.P,J1,5,In_5*%
%TO.N,Net-(J1-In)*%
X84499873Y-52400000D03*
%TD*%
D20*
%TO.P,C1,1*%
%TO.N,Net-(C1-Pad1)*%
X74200000Y-77000000D03*
%TO.P,C1,2*%
%TO.N,GNDA*%
X74200000Y-77960000D03*
%TD*%
D30*
%TO.P,C4,1*%
%TO.N,/+5V*%
X59180000Y-78000000D03*
%TO.P,C4,2*%
%TO.N,GNDA*%
X58220000Y-78000000D03*
%TD*%
D31*
%TO.P,U3,1,NC_1*%
%TO.N,unconnected-(U3-NC-Pad1)*%
X58105004Y-64730023D03*
%TO.P,U3,2,IN-_2*%
%TO.N,Net-(U3-IN-)*%
X56835001Y-64730023D03*
%TO.P,U3,3,IN+_3*%
%TO.N,Net-(U3-IN+)*%
X55564999Y-64730023D03*
%TO.P,U3,4,-VS_4*%
%TO.N,/-5V*%
X54294996Y-64730023D03*
%TO.P,U3,5,NC_5*%
%TO.N,unconnected-(U3-NC-Pad5)*%
X54294996Y-69869977D03*
%TO.P,U3,6,OUT_6*%
%TO.N,Net-(U3-OUT)*%
X55564999Y-69869977D03*
%TO.P,U3,7,+VS_7*%
%TO.N,/+5V*%
X56835001Y-69869977D03*
%TO.P,U3,8,NC_8*%
%TO.N,unconnected-(U3-NC-Pad8)*%
X58105004Y-69869977D03*
%TD*%
D13*
%TO.P,R3,1*%
%TO.N,Net-(U3-IN+)*%
X59800000Y-66100000D03*
%TO.P,R3,2*%
%TO.N,GNDA*%
X60820000Y-66100000D03*
%TD*%
D19*
%TO.P,R8,1*%
%TO.N,Net-(U2-OUT)*%
X84500000Y-60510000D03*
%TO.P,R8,2*%
%TO.N,Net-(J1-In)*%
X84500000Y-59490000D03*
%TD*%
D21*
%TO.P,C3,1*%
%TO.N,/+5V*%
X56150000Y-78800000D03*
%TO.P,C3,2*%
%TO.N,GNDA*%
X54250000Y-78800000D03*
%TD*%
D19*
%TO.P,R9,1*%
%TO.N,Net-(U3-OUT)*%
X55500000Y-58410000D03*
%TO.P,R9,2*%
%TO.N,Net-(J2-In)*%
X55500000Y-57390000D03*
%TD*%
D15*
%TO.P,C21,1*%
%TO.N,/-5V*%
X72400000Y-64525000D03*
%TO.P,C21,2*%
%TO.N,GNDA*%
X72400000Y-66075000D03*
%TD*%
D16*
%TO.P,C2,1*%
%TO.N,Net-(C2-Pad1)*%
X65900000Y-78260000D03*
%TO.P,C2,2*%
%TO.N,Net-(U1-FB)*%
X65900000Y-77300000D03*
%TD*%
D24*
%TO.P,C14,1*%
%TO.N,GNDA*%
X53340000Y-62700000D03*
%TO.P,C14,2*%
%TO.N,/-5V*%
X54300000Y-62700000D03*
%TD*%
D18*
%TO.P,C20,1*%
%TO.N,-15V*%
X76100000Y-62450000D03*
%TO.P,C20,2*%
%TO.N,GNDA*%
X77650000Y-62450000D03*
%TD*%
D28*
%TO.P,R6,1*%
%TO.N,GNDA*%
X57920000Y-62702510D03*
%TO.P,R6,2*%
%TO.N,Net-(U3-IN-)*%
X56900000Y-62702510D03*
%TD*%
D26*
%TO.P,U5,1,VOUT_1*%
%TO.N,/+12V*%
X67500000Y-64743764D03*
D32*
%TO.P,U5,2,GND_2*%
%TO.N,GNDA*%
X66000127Y-67456236D03*
D26*
%TO.P,U5,3,VIN_3*%
%TO.N,+15V*%
X64500000Y-64743764D03*
%TD*%
D29*
%TO.P,J2,1,GND_1*%
%TO.N,GNDA*%
X52949962Y-52400000D03*
%TO.P,J2,2,GND_2*%
X58050038Y-52400000D03*
%TO.P,J2,5,In_5*%
%TO.N,Net-(J2-In)*%
X55499873Y-52400000D03*
%TD*%
D22*
%TO.P,U1,1,PD#_1*%
%TO.N,unconnected-(U1-PD#-Pad1)*%
X63291147Y-77750063D03*
%TO.P,U1,2,FB_2*%
%TO.N,Net-(U1-FB)*%
X63291147Y-77249936D03*
%TO.P,U1,3,IN-_3*%
%TO.N,Net-(U1-IN-)*%
X63291147Y-76750063D03*
%TO.P,U1,4,IN+_4*%
%TO.N,GNDA*%
X63291147Y-76249936D03*
%TO.P,U1,5,VS-_5*%
%TO.N,/-5V*%
X60476314Y-76249936D03*
%TO.P,U1,6,NC_6*%
%TO.N,unconnected-(U1-NC-Pad6)*%
X60476314Y-76750063D03*
%TO.P,U1,7,OUT_7*%
%TO.N,Net-(U1-OUT)*%
X60476314Y-77249936D03*
%TO.P,U1,8,VS+_8*%
%TO.N,/+5V*%
X60476314Y-77750063D03*
D33*
%TO.P,U1,9,EP_9*%
%TO.N,GNDA*%
X61883731Y-77000000D03*
%TD*%
D34*
%TO.N,GNDA*%
X80307417Y-67149936D03*
X87050038Y-55328538D03*
X62300127Y-59775000D03*
X57760000Y-71900000D03*
X62300000Y-74600000D03*
X74200000Y-79000000D03*
X79100000Y-56343764D03*
X62300000Y-78499949D03*
X69700000Y-58893764D03*
X81949962Y-55328538D03*
X61500000Y-78499949D03*
X84307417Y-69450000D03*
X69600127Y-67237528D03*
X79425000Y-54000000D03*
X61500000Y-74600000D03*
X78400000Y-70400000D03*
X58050038Y-55450038D03*
X52949962Y-55450038D03*
X62300000Y-75499949D03*
X55200000Y-76550000D03*
X62300000Y-58893764D03*
X53340000Y-63560000D03*
X60800000Y-66800000D03*
X62300000Y-76199949D03*
X57526976Y-77973024D03*
X57920000Y-61602510D03*
X79256236Y-64743764D03*
X62300000Y-77699949D03*
X63100000Y-75499949D03*
X75600000Y-78990000D03*
X53200000Y-78800000D03*
X62300000Y-76999949D03*
X63100000Y-78499949D03*
X60400000Y-61500000D03*
X79250000Y-62450000D03*
X61500000Y-76199949D03*
X63100000Y-74600000D03*
X53150000Y-74050000D03*
X72400000Y-69200000D03*
X86280000Y-71280000D03*
X61500000Y-77699949D03*
X72291491Y-58600000D03*
X78446297Y-76200064D03*
D35*
X66000000Y-62500000D03*
D34*
X61500000Y-75499949D03*
X59100000Y-74500000D03*
X61500000Y-76999949D03*
X80246297Y-74600064D03*
D35*
%TO.N,/-5V*%
X73800000Y-68350000D03*
D36*
X62300000Y-73400000D03*
X55500000Y-62700000D03*
X56400000Y-73400000D03*
X62050000Y-64450000D03*
D34*
%TO.N,/-12V*%
X83407417Y-73300064D03*
X84442583Y-74249872D03*
D36*
X76800000Y-73150064D03*
D34*
X81442583Y-73300000D03*
X82413556Y-73296238D03*
X82442583Y-71300064D03*
X82442583Y-70300064D03*
X82442583Y-72300064D03*
X83442583Y-72300064D03*
D35*
X73800000Y-62450000D03*
D34*
X84442583Y-73300000D03*
X83446297Y-70300064D03*
X82413556Y-74246110D03*
X81442583Y-74249872D03*
X83407417Y-74249936D03*
X83446297Y-71291064D03*
D36*
%TO.N,/+12V*%
X83557417Y-65942583D03*
D35*
X69600000Y-61400000D03*
D36*
X85400000Y-69600000D03*
D35*
%TO.N,/+5V*%
X71000000Y-68400000D03*
D36*
X76800000Y-74900000D03*
X52250000Y-72150000D03*
D35*
X71000000Y-63000000D03*
%TD*%
%TO.N,GNDA*%
D37*
X58050038Y-52400000D02*
X58050038Y-55450038D01*
X78446297Y-75050064D02*
X78446297Y-76200064D01*
X62300000Y-60925000D02*
X62300000Y-59775127D01*
X60800000Y-66800000D02*
X60820000Y-66780000D01*
X72400000Y-66075000D02*
X72400000Y-69200000D01*
D38*
X63291147Y-76249936D02*
X62349987Y-76249936D01*
D37*
X79190000Y-70400000D02*
X78400000Y-70400000D01*
X57760000Y-71900000D02*
X56800000Y-71900000D01*
X79100000Y-56343764D02*
X77600000Y-56343764D01*
X55200000Y-76550000D02*
X56400000Y-76550000D01*
X87050038Y-55328538D02*
X87050038Y-52400000D01*
X79256236Y-64743764D02*
X77600000Y-64743764D01*
X53150000Y-74050000D02*
X54200000Y-74050000D01*
X81657417Y-67149936D02*
X80307417Y-67149936D01*
X60400000Y-62550000D02*
X60400000Y-61500000D01*
D39*
X66000000Y-62500000D02*
X66000000Y-59064745D01*
D37*
X74200000Y-79000000D02*
X74200000Y-77990000D01*
X69700127Y-66075127D02*
X69700000Y-66075000D01*
D38*
X84307417Y-70700064D02*
X84307417Y-71000064D01*
D37*
X81949962Y-55328538D02*
X81949962Y-52400000D01*
X79250000Y-62450000D02*
X77650000Y-62450000D01*
X52949962Y-55450038D02*
X52949962Y-52400000D01*
X60820000Y-66780000D02*
X60820000Y-66100000D01*
X53200000Y-78800000D02*
X54250000Y-78800000D01*
X80246297Y-74600064D02*
X80246297Y-73760064D01*
X86280000Y-71280000D02*
X85700000Y-71280000D01*
X69600000Y-67237401D02*
X69600127Y-67237528D01*
X77975000Y-54000000D02*
X79425000Y-54000000D01*
D38*
X84307417Y-69450000D02*
X84307417Y-70700064D01*
D39*
X66000000Y-59064745D02*
X65991491Y-59056236D01*
D37*
X53340000Y-63560000D02*
X53340000Y-62700000D01*
X57920000Y-61602510D02*
X57920000Y-62702510D01*
D39*
X66000000Y-62500000D02*
X66000000Y-67456109D01*
X66000000Y-67456109D02*
X66000127Y-67456236D01*
D37*
X69600000Y-66075000D02*
X69600000Y-67237401D01*
D38*
X62349987Y-76249936D02*
X62300000Y-76199949D01*
D37*
X69700000Y-57639745D02*
X69691491Y-57631236D01*
X59100000Y-74500000D02*
X59100000Y-75320000D01*
X57526976Y-77973024D02*
X58193024Y-77973024D01*
X72291491Y-58600000D02*
X72291491Y-57631236D01*
X58193024Y-77973024D02*
X58220000Y-78000000D01*
X69700000Y-58893764D02*
X69700000Y-57639745D01*
X62300000Y-58893764D02*
X62300000Y-57625000D01*
X75600000Y-78010000D02*
X75600000Y-78990000D01*
%TO.N,/-5V*%
X59100000Y-76280000D02*
X60446250Y-76280000D01*
D39*
X73800000Y-68350000D02*
X73800000Y-65543764D01*
X54294996Y-64730023D02*
X54320000Y-64705019D01*
X74600000Y-64743764D02*
X72618764Y-64743764D01*
X54320000Y-64705019D02*
X54320000Y-62700000D01*
X54320000Y-63221820D02*
X54320000Y-62700000D01*
D40*
X56400000Y-74650000D02*
X56400000Y-73400000D01*
X60476314Y-74456959D02*
X60476314Y-76185058D01*
X62300000Y-73400000D02*
X61533273Y-73400000D01*
X61533273Y-73400000D02*
X60476314Y-74456959D01*
D39*
X55500000Y-62700000D02*
X54320000Y-62700000D01*
D37*
X60446250Y-76280000D02*
X60476314Y-76249936D01*
D39*
X73800000Y-65543764D02*
X74600000Y-64743764D01*
X62050000Y-64450000D02*
X60400000Y-64450000D01*
X72618764Y-64743764D02*
X72400000Y-64525000D01*
%TO.N,Net-(U2-IN-)*%
D41*
X81490000Y-69100000D02*
X81332647Y-69100000D01*
X80210000Y-70400000D02*
X80892583Y-70400000D01*
X81332647Y-69100000D02*
X80892583Y-69540064D01*
X80892583Y-70400000D02*
X80892583Y-70617417D01*
X80892583Y-71389941D02*
X81052706Y-71550064D01*
X80892583Y-69540064D02*
X80892583Y-70400000D01*
X80892583Y-70617417D02*
X80892583Y-71389941D01*
X81052706Y-71550064D02*
X81492583Y-71550064D01*
%TO.N,Net-(U2-OUT)*%
X86830000Y-70040050D02*
X86830000Y-71507818D01*
X82710000Y-68900000D02*
X85000000Y-68900000D01*
X82510000Y-69100000D02*
X82710000Y-68900000D01*
X85000000Y-61010000D02*
X85000000Y-68900000D01*
X85000000Y-68900000D02*
X85689950Y-68900000D01*
X84500000Y-60510000D02*
X85000000Y-61010000D01*
X86830000Y-71507818D02*
X86287882Y-72049936D01*
X86287882Y-72049936D02*
X84307417Y-72049936D01*
X85689950Y-68900000D02*
X86830000Y-70040050D01*
%TO.N,Net-(C1-Pad1)*%
D39*
X71270000Y-77000000D02*
X71290000Y-77020000D01*
D40*
X75600000Y-75910000D02*
X75600000Y-76990000D01*
X74210000Y-76990000D02*
X74200000Y-77000000D01*
X75600000Y-76990000D02*
X74210000Y-76990000D01*
X74200000Y-77000000D02*
X71270000Y-77000000D01*
%TO.N,Net-(C2-Pad1)*%
D37*
X68730000Y-77000000D02*
X66700000Y-77000000D01*
X65999949Y-76199949D02*
X65710000Y-76199949D01*
X66700000Y-76900000D02*
X65999949Y-76199949D01*
X66209999Y-78260000D02*
X65900000Y-78260000D01*
X64760000Y-78260000D02*
X64700000Y-78320000D01*
X66700000Y-76900000D02*
X66700000Y-77769999D01*
X65900000Y-78260000D02*
X64760000Y-78260000D01*
X66700000Y-77769999D02*
X66209999Y-78260000D01*
%TO.N,/-12V*%
D39*
X73800000Y-57143764D02*
X74600000Y-56343764D01*
D40*
X78796297Y-72800064D02*
X80246297Y-72800064D01*
D38*
X81242583Y-73100000D02*
X81442583Y-73300000D01*
D39*
X73800000Y-62450000D02*
X73800000Y-57143764D01*
D40*
X78446297Y-73150064D02*
X78796297Y-72800064D01*
D39*
X72554019Y-56343764D02*
X72291491Y-56081236D01*
X74600000Y-56343764D02*
X72554019Y-56343764D01*
D38*
X81242583Y-72800064D02*
X81492583Y-72550064D01*
X81242583Y-72800064D02*
X81242583Y-73100000D01*
X80246297Y-72800064D02*
X81242583Y-72800064D01*
D39*
X78446297Y-73150064D02*
X76800000Y-73150064D01*
%TO.N,Net-(U1-OUT)*%
D41*
X58749936Y-77249936D02*
X58231933Y-76731933D01*
X81492583Y-72049936D02*
X80949936Y-72049936D01*
X80100000Y-71200000D02*
X60420000Y-71200000D01*
X60476314Y-77249936D02*
X58749936Y-77249936D01*
X60420000Y-71200000D02*
X59900000Y-70680000D01*
X80949936Y-72049936D02*
X80100000Y-71200000D01*
X58231933Y-76731933D02*
X58231933Y-72348067D01*
X58231933Y-72348067D02*
X59900000Y-70680000D01*
%TO.N,Net-(U3-IN+)*%
X55564999Y-64730023D02*
X55564999Y-65364516D01*
X59900000Y-66200000D02*
X59800000Y-66100000D01*
X56300483Y-66100000D02*
X59800000Y-66100000D01*
X59900000Y-69720000D02*
X59900000Y-66200000D01*
X55564999Y-65364516D02*
X56300483Y-66100000D01*
%TO.N,/+12V*%
D38*
X84897294Y-71550064D02*
X84307417Y-71550064D01*
D39*
X67500000Y-64743764D02*
X69381236Y-64743764D01*
X83557417Y-65942583D02*
X83557417Y-67149936D01*
X69381236Y-64743764D02*
X69600000Y-64525000D01*
D38*
X85700000Y-70320000D02*
X85617800Y-70320000D01*
D40*
X85400000Y-69600000D02*
X85400000Y-70020000D01*
D38*
X84982417Y-70955383D02*
X84982417Y-71464941D01*
D39*
X69600000Y-64525000D02*
X69600000Y-61400000D01*
D38*
X84982417Y-71464941D02*
X84897294Y-71550064D01*
X85617800Y-70320000D02*
X84982417Y-70955383D01*
D40*
X85400000Y-70020000D02*
X85700000Y-70320000D01*
%TO.N,-15V*%
D39*
X72500127Y-53400000D02*
X75825000Y-53400000D01*
X76100000Y-67447727D02*
X76091491Y-67456236D01*
X76091491Y-59056236D02*
X76091491Y-62441491D01*
X76091491Y-62441491D02*
X76100000Y-62450000D01*
X76091491Y-54333509D02*
X76425000Y-54000000D01*
X76100000Y-62450000D02*
X76100000Y-67447727D01*
X76091491Y-59056236D02*
X76091491Y-54333509D01*
X75825000Y-53400000D02*
X76425000Y-54000000D01*
%TO.N,Net-(U1-FB)*%
D41*
X64649936Y-77249936D02*
X64700000Y-77300000D01*
X64700000Y-77300000D02*
X65900000Y-77300000D01*
X63291147Y-77249936D02*
X64649936Y-77249936D01*
%TO.N,/+5V*%
D38*
X60226377Y-78000000D02*
X60476314Y-77750063D01*
D37*
X56835001Y-70716733D02*
X56835001Y-69869977D01*
D40*
X55590000Y-72150000D02*
X55840000Y-71900000D01*
D38*
X59180000Y-78000000D02*
X60226377Y-78000000D01*
D40*
X59200000Y-78020000D02*
X59180000Y-78000000D01*
X56235000Y-78885000D02*
X58660042Y-78885000D01*
D37*
X55840000Y-71711734D02*
X56835001Y-70716733D01*
X55840000Y-71900000D02*
X55840000Y-71711734D01*
D40*
X59180000Y-78365042D02*
X59180000Y-78000000D01*
X76800000Y-74890000D02*
X75600000Y-74890000D01*
D39*
X67500000Y-56343764D02*
X69328963Y-56343764D01*
X69328963Y-56343764D02*
X69591491Y-56081236D01*
D40*
X56150000Y-78800000D02*
X56235000Y-78885000D01*
X54200000Y-72150000D02*
X55590000Y-72150000D01*
D39*
X71000000Y-68400000D02*
X71000000Y-57250363D01*
D40*
X52250000Y-74900000D02*
X56150000Y-78800000D01*
D39*
X69830873Y-56081236D02*
X69591491Y-56081236D01*
D40*
X52250000Y-72150000D02*
X52250000Y-74900000D01*
D39*
X71000000Y-57250363D02*
X69830873Y-56081236D01*
D40*
X58660042Y-78885000D02*
X59180000Y-78365042D01*
D39*
X52250000Y-72150000D02*
X54200000Y-72150000D01*
%TO.N,+15V*%
X67460000Y-53400000D02*
X67663573Y-53603573D01*
X64336427Y-61388573D02*
X64336427Y-56343764D01*
X63250000Y-62475000D02*
X62300000Y-62475000D01*
X63250000Y-62475000D02*
X63250000Y-63493764D01*
X64336427Y-61388573D02*
X63250000Y-62475000D01*
X64231236Y-56075000D02*
X64500000Y-56343764D01*
X66820504Y-53400000D02*
X64336427Y-55884077D01*
X67460000Y-53400000D02*
X66820504Y-53400000D01*
X62300000Y-56075000D02*
X64231236Y-56075000D01*
X63250000Y-63493764D02*
X64500000Y-64743764D01*
%TO.N,Net-(U1-IN-)*%
D41*
X64139886Y-76750063D02*
X63291147Y-76750063D01*
X64690000Y-76199949D02*
X64139886Y-76750063D01*
%TO.N,Net-(U3-IN-)*%
X55910000Y-61400000D02*
X55910000Y-61712510D01*
X55910000Y-61712510D02*
X56900000Y-62702510D01*
X56835001Y-64730023D02*
X56835001Y-64431476D01*
X56835001Y-62767509D02*
X56900000Y-62702510D01*
X56800000Y-64695022D02*
X56835001Y-64730023D01*
X56835001Y-64730023D02*
X56835001Y-62767509D01*
%TO.N,Net-(U3-OUT)*%
X52760000Y-64763577D02*
X52760000Y-62343866D01*
X52760000Y-62343866D02*
X53703866Y-61400000D01*
X55564999Y-69869977D02*
X55564999Y-67568576D01*
X55564999Y-67568576D02*
X52760000Y-64763577D01*
X53703866Y-61400000D02*
X54890000Y-61400000D01*
X54890000Y-61400000D02*
X54890000Y-59020000D01*
X54890000Y-59020000D02*
X55500000Y-58410000D01*
%TO.N,Net-(J1-In)*%
D37*
X84500000Y-52021627D02*
X84499873Y-52021500D01*
X84500000Y-59490000D02*
X84500000Y-52400127D01*
X84500000Y-52400127D02*
X84499873Y-52400000D01*
%TO.N,Net-(J2-In)*%
X55500000Y-57390000D02*
X55500000Y-52400127D01*
X55500000Y-52021627D02*
X55499873Y-52021500D01*
X55500000Y-52400127D02*
X55499873Y-52400000D01*
%TD*%
%TA.AperFunction,Conductor*%
%TO.N,/-12V*%
G36*
X83774956Y-69919749D02*
G01*
X83820711Y-69972553D01*
X83831917Y-70024064D01*
X83831917Y-70428310D01*
X83812232Y-70495349D01*
X83759428Y-70541104D01*
X83690270Y-70551048D01*
X83657832Y-70541745D01*
X83569876Y-70502910D01*
X83544794Y-70500000D01*
X83300000Y-70500000D01*
X83300000Y-73099999D01*
X83544786Y-73099999D01*
X83544808Y-73099997D01*
X83569869Y-73097091D01*
X83569873Y-73097090D01*
X83672474Y-73051788D01*
X83672479Y-73051785D01*
X83751785Y-72972479D01*
X83751788Y-72972475D01*
X83799470Y-72864483D01*
X83844555Y-72811106D01*
X83911341Y-72790578D01*
X83912751Y-72790568D01*
X84717315Y-72790568D01*
X84744396Y-72785182D01*
X84813987Y-72791412D01*
X84869163Y-72834276D01*
X84892405Y-72900167D01*
X84892583Y-72906800D01*
X84892583Y-74525936D01*
X84872898Y-74592975D01*
X84820094Y-74638730D01*
X84768583Y-74649936D01*
X81016583Y-74649936D01*
X80949544Y-74630251D01*
X80903789Y-74577447D01*
X80892583Y-74525936D01*
X80892583Y-73111280D01*
X80912268Y-73044241D01*
X80965072Y-72998486D01*
X81030877Y-72988107D01*
X81047783Y-72990068D01*
X81352577Y-72990068D01*
X81352578Y-72990067D01*
X81352578Y-72674064D01*
X81355128Y-72665378D01*
X81353840Y-72656417D01*
X81364818Y-72632376D01*
X81372263Y-72607025D01*
X81379103Y-72601097D01*
X81382865Y-72592861D01*
X81405099Y-72578571D01*
X81425067Y-72561270D01*
X81435581Y-72558982D01*
X81441643Y-72555087D01*
X81476578Y-72550064D01*
X81508588Y-72550064D01*
X81575627Y-72569749D01*
X81621382Y-72622553D01*
X81632588Y-72674064D01*
X81632588Y-72990068D01*
X81937369Y-72990068D01*
X81937391Y-72990066D01*
X81962455Y-72987159D01*
X81971456Y-72984711D01*
X81972450Y-72988366D01*
X82023543Y-72981608D01*
X82086767Y-73011348D01*
X82092193Y-73016458D01*
X82127520Y-73051785D01*
X82127525Y-73051788D01*
X82230123Y-73097089D01*
X82255206Y-73099999D01*
X82499999Y-73099999D01*
X82500000Y-73099998D01*
X82500000Y-70500000D01*
X82255214Y-70500000D01*
X82255191Y-70500002D01*
X82230130Y-70502908D01*
X82230126Y-70502909D01*
X82127525Y-70548211D01*
X82127520Y-70548214D01*
X82048214Y-70627520D01*
X82048212Y-70627523D01*
X82000529Y-70735517D01*
X81955443Y-70788893D01*
X81888657Y-70809421D01*
X81887094Y-70809431D01*
X81417083Y-70809431D01*
X81350044Y-70789746D01*
X81304289Y-70736942D01*
X81293083Y-70685431D01*
X81293083Y-70024064D01*
X81312768Y-69957025D01*
X81365572Y-69911270D01*
X81417083Y-69900064D01*
X83707917Y-69900064D01*
X83774956Y-69919749D01*
G37*
%TD.AperFunction*%
%TD*%
%TA.AperFunction,Conductor*%
%TO.N,GNDA*%
G36*
X63443041Y-74219685D02*
G01*
X63488796Y-74272489D01*
X63500002Y-74324000D01*
X63500002Y-76225563D01*
X63480317Y-76292602D01*
X63427513Y-76338357D01*
X63376002Y-76349563D01*
X63238420Y-76349563D01*
X63136560Y-76376856D01*
X63136557Y-76376857D01*
X63045234Y-76429583D01*
X62970666Y-76504150D01*
X62965719Y-76510598D01*
X62963399Y-76508818D01*
X62922980Y-76547336D01*
X62890377Y-76558723D01*
X62871443Y-76562488D01*
X62871438Y-76562490D01*
X62854739Y-76573648D01*
X62843577Y-76590352D01*
X62840647Y-76605087D01*
X62840647Y-76895035D01*
X62840649Y-76895046D01*
X62843576Y-76909770D01*
X62843577Y-76909773D01*
X62857832Y-76931105D01*
X62878712Y-76997782D01*
X62860229Y-77065163D01*
X62857834Y-77068890D01*
X62843577Y-77090226D01*
X62840647Y-77104960D01*
X62840647Y-77394908D01*
X62840649Y-77394919D01*
X62843576Y-77409643D01*
X62843577Y-77409646D01*
X62857917Y-77431105D01*
X62878797Y-77497782D01*
X62860315Y-77565162D01*
X62857919Y-77568890D01*
X62843577Y-77590353D01*
X62840647Y-77605087D01*
X62840647Y-77895035D01*
X62840649Y-77895046D01*
X62843576Y-77909770D01*
X62843579Y-77909776D01*
X62854737Y-77926475D01*
X62863147Y-77932095D01*
X62871085Y-77937399D01*
X62871442Y-77937637D01*
X62871441Y-77937637D01*
X62871443Y-77937638D01*
X62886174Y-77940568D01*
X63376003Y-77940567D01*
X63443041Y-77960251D01*
X63488796Y-78013055D01*
X63500002Y-78064567D01*
X63500002Y-78776000D01*
X63480317Y-78843039D01*
X63427513Y-78888794D01*
X63376002Y-78900000D01*
X61224000Y-78900000D01*
X61156961Y-78880315D01*
X61111206Y-78827511D01*
X61100000Y-78776000D01*
X61100000Y-76469176D01*
X61109439Y-76421723D01*
X61125854Y-76382094D01*
X61151814Y-76251589D01*
X61151814Y-74788122D01*
X61171499Y-74721083D01*
X61188133Y-74700441D01*
X61652255Y-74236319D01*
X61713578Y-74202834D01*
X61739936Y-74200000D01*
X63376002Y-74200000D01*
X63443041Y-74219685D01*
G37*
%TD.AperFunction*%
%TD*%
M02*
