%TF.GenerationSoftware,KiCad,Pcbnew,10.0.3*%
%TF.CreationDate,2026-07-20T13:29:05+08:00*%
%TF.ProjectId,InGaAs_General_PD_v0.1,496e4761-4173-45f4-9765-6e6572616c5f,rev?*%
%TF.SameCoordinates,Original*%
%TF.FileFunction,Legend,Top*%
%TF.FilePolarity,Positive*%
%FSLAX46Y46*%
G04 Gerber Fmt 4.6, Leading zero omitted, Abs format (unit mm)*
G04 Created by KiCad (PCBNEW 10.0.3) date 2026-07-20 13:29:05*
%MOMM*%
%LPD*%
G01*
G04 APERTURE LIST*
G04 Aperture macros list*
%AMRoundRect*
0 Rectangle with rounded corners*
0 $1 Rounding radius*
0 $2 $3 $4 $5 $6 $7 $8 $9 X,Y pos of 4 corners*
0 Add a 4 corners polygon primitive as box body*
4,1,4,$2,$3,$4,$5,$6,$7,$8,$9,$2,$3,0*
0 Add four circle primitives for the rounded corners*
1,1,$1+$1,$2,$3*
1,1,$1+$1,$4,$5*
1,1,$1+$1,$6,$7*
1,1,$1+$1,$8,$9*
0 Add four rect primitives between the rounded corners*
20,1,$1+$1,$2,$3,$4,$5,0*
20,1,$1+$1,$4,$5,$6,$7,0*
20,1,$1+$1,$6,$7,$8,$9,0*
20,1,$1+$1,$8,$9,$2,$3,0*%
%AMFreePoly0*
4,1,123,0.971476,0.948895,1.015900,0.945771,1.060147,0.940564,1.104089,0.933299,1.147650,0.923952,1.190704,0.912598,1.233198,0.899238,1.275006,0.883896,1.316053,0.866599,1.356261,0.847422,1.395504,0.826365,1.433731,0.803480,1.470841,0.778842,1.506756,0.752502,1.541377,0.724511,1.574676,0.694895,1.606528,0.663780,1.636906,0.631191,1.665710,0.597231,1.692888,0.561951,
1.718390,0.525425,1.742139,0.487757,1.764110,0.448997,1.784252,0.409271,1.802489,0.368631,1.818821,0.327203,1.833172,0.285039,1.845542,0.242240,1.855880,0.198908,1.864186,0.155169,1.870434,0.111049,1.874600,0.066701,1.876683,0.022225,1.876683,-0.022327,1.874600,-0.066802,1.870434,-0.111151,1.864186,-0.155271,1.855880,-0.199009,1.845542,-0.242342,1.833172,-0.285141,
1.818821,-0.327305,1.802489,-0.368733,1.784252,-0.409373,1.764110,-0.449098,1.742139,-0.487859,1.718390,-0.525527,1.692888,-0.562052,1.665710,-0.597333,1.636906,-0.631293,1.606528,-0.663881,1.574676,-0.694996,1.541377,-0.724613,1.506756,-0.752604,1.470841,-0.778943,1.433731,-0.803581,1.395504,-0.826467,1.356261,-0.847523,1.316053,-0.866701,1.275006,-0.883998,1.233198,-0.899340,
1.190704,-0.912700,1.147650,-0.924054,1.104089,-0.933401,1.060147,-0.940665,1.015900,-0.945872,0.971476,-0.948997,0.926949,-0.950064,-0.927254,-0.950064,-0.971781,-0.948997,-1.016205,-0.945872,-1.060452,-0.940665,-1.104394,-0.933401,-1.147955,-0.924054,-1.191008,-0.912700,-1.233503,-0.899340,-1.275311,-0.883998,-1.316358,-0.866701,-1.356566,-0.847523,-1.395809,-0.826467,-1.434036,-0.803581,
-1.471146,-0.778943,-1.507061,-0.752604,-1.541681,-0.724613,-1.574981,-0.694996,-1.606833,-0.663881,-1.637211,-0.631293,-1.666015,-0.597333,-1.693193,-0.562052,-1.718694,-0.525527,-1.742443,-0.487859,-1.764415,-0.449098,-1.784557,-0.409373,-1.802794,-0.330074,-3.500127,-0.330074,-3.500127,0.329921,-1.802794,0.329921,-1.784557,0.409271,-1.764415,0.448997,-1.742443,0.487757,-1.718694,0.525425,
-1.693193,0.561951,-1.666015,0.597231,-1.637211,0.631191,-1.606833,0.663780,-1.574981,0.694895,-1.541681,0.724511,-1.507061,0.752502,-1.471146,0.778842,-1.434036,0.803480,-1.395809,0.826365,-1.356566,0.847422,-1.316358,0.866599,-1.275311,0.883896,-1.233503,0.899238,-1.191008,0.912598,-1.147955,0.923952,-1.104394,0.933299,-1.060452,0.940564,-1.016205,0.945771,-0.971781,0.948895,
-0.927254,0.949962,0.926949,0.949962,0.971476,0.948895,0.971476,0.948895,$1*%
%AMFreePoly1*
4,1,123,0.971755,0.948895,1.016180,0.945771,1.060427,0.940564,1.104369,0.933299,1.147930,0.923952,1.190983,0.912598,1.233477,0.899238,1.275286,0.883896,1.316332,0.866599,1.356541,0.847422,1.395784,0.826365,1.434011,0.803480,1.471120,0.778842,1.507036,0.752502,1.541656,0.724511,1.574956,0.694895,1.606807,0.663780,1.637186,0.631191,1.665989,0.597231,1.693167,0.561951,
1.718669,0.525425,1.742418,0.487757,1.764389,0.448997,1.784531,0.409271,1.802769,0.329972,3.500102,0.329972,3.500102,-0.330023,1.802769,-0.330023,1.784531,-0.409373,1.764389,-0.449098,1.742418,-0.487859,1.718669,-0.525527,1.693167,-0.562052,1.665989,-0.597333,1.637186,-0.631293,1.606807,-0.663881,1.574956,-0.694996,1.541656,-0.724613,1.507036,-0.752604,1.471120,-0.778943,
1.434011,-0.803581,1.395784,-0.826467,1.356541,-0.847523,1.316332,-0.866701,1.275286,-0.883998,1.233477,-0.899340,1.190983,-0.912700,1.147930,-0.924054,1.104369,-0.933401,1.060427,-0.940665,1.016180,-0.945872,0.971755,-0.948997,0.927229,-0.950064,-0.926975,-0.950064,-0.971501,-0.948997,-1.015926,-0.945872,-1.060173,-0.940665,-1.104115,-0.933401,-1.147676,-0.924054,-1.190729,-0.912700,
-1.233223,-0.899340,-1.275032,-0.883998,-1.316078,-0.866701,-1.356287,-0.847523,-1.395530,-0.826467,-1.433757,-0.803581,-1.470866,-0.778943,-1.506782,-0.752604,-1.541402,-0.724613,-1.574702,-0.694996,-1.606553,-0.663881,-1.636932,-0.631293,-1.665735,-0.597333,-1.692913,-0.562052,-1.718415,-0.525527,-1.742164,-0.487859,-1.764135,-0.449098,-1.784277,-0.409373,-1.802515,-0.368733,-1.818847,-0.327305,
-1.833198,-0.285141,-1.845568,-0.242342,-1.855906,-0.199009,-1.864211,-0.155271,-1.870460,-0.111151,-1.874625,-0.066802,-1.876708,-0.022327,-1.876708,0.022225,-1.874625,0.066701,-1.870460,0.111049,-1.864211,0.155169,-1.855906,0.198908,-1.845568,0.242240,-1.833198,0.285039,-1.818847,0.327203,-1.802515,0.368631,-1.784277,0.409271,-1.764135,0.448997,-1.742164,0.487757,-1.718415,0.525425,
-1.692913,0.561951,-1.665735,0.597231,-1.636932,0.631191,-1.606553,0.663780,-1.574702,0.694895,-1.541402,0.724511,-1.506782,0.752502,-1.470866,0.778842,-1.433757,0.803480,-1.395530,0.826365,-1.356287,0.847422,-1.316078,0.866599,-1.275032,0.883896,-1.233223,0.899238,-1.190729,0.912598,-1.147676,0.923952,-1.104115,0.933299,-1.060173,0.940564,-1.015926,0.945771,-0.971501,0.948895,
-0.926975,0.949962,0.927229,0.949962,0.971755,0.948895,0.971755,0.948895,$1*%
G04 Aperture macros list end*
%ADD10C,0.150000*%
%ADD11C,0.254000*%
%ADD12C,0.120000*%
%ADD13C,0.127000*%
%ADD14C,0.152400*%
%ADD15C,0.254001*%
%ADD16C,0.300000*%
%ADD17C,1.600000*%
%ADD18R,1.600000X1.600000*%
%ADD19RoundRect,0.250000X-0.475000X0.250000X-0.475000X-0.250000X0.475000X-0.250000X0.475000X0.250000X0*%
%ADD20RoundRect,0.135000X-0.135000X-0.185000X0.135000X-0.185000X0.135000X0.185000X-0.135000X0.185000X0*%
%ADD21C,1.312000*%
%ADD22RoundRect,0.225000X-0.250000X0.225000X-0.250000X-0.225000X0.250000X-0.225000X0.250000X0.225000X0*%
%ADD23RoundRect,0.140000X0.170000X-0.140000X0.170000X0.140000X-0.170000X0.140000X-0.170000X-0.140000X0*%
%ADD24RoundRect,0.250000X0.475000X-0.250000X0.475000X0.250000X-0.475000X0.250000X-0.475000X-0.250000X0*%
%ADD25RoundRect,0.225000X-0.225000X-0.250000X0.225000X-0.250000X0.225000X0.250000X-0.225000X0.250000X0*%
%ADD26RoundRect,0.135000X0.185000X-0.135000X0.185000X0.135000X-0.185000X0.135000X-0.185000X-0.135000X0*%
%ADD27RoundRect,0.140000X-0.170000X0.140000X-0.170000X-0.140000X0.170000X-0.140000X0.170000X0.140000X0*%
%ADD28RoundRect,0.250000X0.250000X0.475000X-0.250000X0.475000X-0.250000X-0.475000X0.250000X-0.475000X0*%
%ADD29R,0.800000X0.280010*%
%ADD30R,1.200000X2.000000*%
%ADD31RoundRect,0.140000X-0.140000X-0.170000X0.140000X-0.170000X0.140000X0.170000X-0.140000X0.170000X0*%
%ADD32RoundRect,0.225000X0.250000X-0.225000X0.250000X0.225000X-0.250000X0.225000X-0.250000X-0.225000X0*%
%ADD33R,0.672009X1.575006*%
%ADD34FreePoly0,270.000000*%
%ADD35RoundRect,0.135000X0.135000X0.185000X-0.135000X0.185000X-0.135000X-0.185000X0.135000X-0.185000X0*%
%ADD36R,1.300000X4.500000*%
%ADD37RoundRect,0.140000X0.140000X0.170000X-0.140000X0.170000X-0.140000X-0.170000X0.140000X-0.170000X0*%
%ADD38O,0.588011X2.045009*%
%ADD39FreePoly1,90.000000*%
%ADD40R,1.500000X2.400000*%
G04 APERTURE END LIST*
D10*
X56261905Y-56169104D02*
X56738095Y-56169104D01*
X56166667Y-56454819D02*
X56500000Y-55454819D01*
X56500000Y-55454819D02*
X56833333Y-56454819D01*
X57738095Y-56359580D02*
X57690476Y-56407200D01*
X57690476Y-56407200D02*
X57547619Y-56454819D01*
X57547619Y-56454819D02*
X57452381Y-56454819D01*
X57452381Y-56454819D02*
X57309524Y-56407200D01*
X57309524Y-56407200D02*
X57214286Y-56311961D01*
X57214286Y-56311961D02*
X57166667Y-56216723D01*
X57166667Y-56216723D02*
X57119048Y-56026247D01*
X57119048Y-56026247D02*
X57119048Y-55883390D01*
X57119048Y-55883390D02*
X57166667Y-55692914D01*
X57166667Y-55692914D02*
X57214286Y-55597676D01*
X57214286Y-55597676D02*
X57309524Y-55502438D01*
X57309524Y-55502438D02*
X57452381Y-55454819D01*
X57452381Y-55454819D02*
X57547619Y-55454819D01*
X57547619Y-55454819D02*
X57690476Y-55502438D01*
X57690476Y-55502438D02*
X57738095Y-55550057D01*
X85238095Y-56433319D02*
X85238095Y-55433319D01*
X85238095Y-55433319D02*
X85476190Y-55433319D01*
X85476190Y-55433319D02*
X85619047Y-55480938D01*
X85619047Y-55480938D02*
X85714285Y-55576176D01*
X85714285Y-55576176D02*
X85761904Y-55671414D01*
X85761904Y-55671414D02*
X85809523Y-55861890D01*
X85809523Y-55861890D02*
X85809523Y-56004747D01*
X85809523Y-56004747D02*
X85761904Y-56195223D01*
X85761904Y-56195223D02*
X85714285Y-56290461D01*
X85714285Y-56290461D02*
X85619047Y-56385700D01*
X85619047Y-56385700D02*
X85476190Y-56433319D01*
X85476190Y-56433319D02*
X85238095Y-56433319D01*
X86809523Y-56338080D02*
X86761904Y-56385700D01*
X86761904Y-56385700D02*
X86619047Y-56433319D01*
X86619047Y-56433319D02*
X86523809Y-56433319D01*
X86523809Y-56433319D02*
X86380952Y-56385700D01*
X86380952Y-56385700D02*
X86285714Y-56290461D01*
X86285714Y-56290461D02*
X86238095Y-56195223D01*
X86238095Y-56195223D02*
X86190476Y-56004747D01*
X86190476Y-56004747D02*
X86190476Y-55861890D01*
X86190476Y-55861890D02*
X86238095Y-55671414D01*
X86238095Y-55671414D02*
X86285714Y-55576176D01*
X86285714Y-55576176D02*
X86380952Y-55480938D01*
X86380952Y-55480938D02*
X86523809Y-55433319D01*
X86523809Y-55433319D02*
X86619047Y-55433319D01*
X86619047Y-55433319D02*
X86761904Y-55480938D01*
X86761904Y-55480938D02*
X86809523Y-55528557D01*
X64166666Y-51454819D02*
X64166666Y-52169104D01*
X64166666Y-52169104D02*
X64119047Y-52311961D01*
X64119047Y-52311961D02*
X64023809Y-52407200D01*
X64023809Y-52407200D02*
X63880952Y-52454819D01*
X63880952Y-52454819D02*
X63785714Y-52454819D01*
X64547619Y-51454819D02*
X65166666Y-51454819D01*
X65166666Y-51454819D02*
X64833333Y-51835771D01*
X64833333Y-51835771D02*
X64976190Y-51835771D01*
X64976190Y-51835771D02*
X65071428Y-51883390D01*
X65071428Y-51883390D02*
X65119047Y-51931009D01*
X65119047Y-51931009D02*
X65166666Y-52026247D01*
X65166666Y-52026247D02*
X65166666Y-52264342D01*
X65166666Y-52264342D02*
X65119047Y-52359580D01*
X65119047Y-52359580D02*
X65071428Y-52407200D01*
X65071428Y-52407200D02*
X64976190Y-52454819D01*
X64976190Y-52454819D02*
X64690476Y-52454819D01*
X64690476Y-52454819D02*
X64595238Y-52407200D01*
X64595238Y-52407200D02*
X64547619Y-52359580D01*
X59357142Y-61259580D02*
X59309523Y-61307200D01*
X59309523Y-61307200D02*
X59166666Y-61354819D01*
X59166666Y-61354819D02*
X59071428Y-61354819D01*
X59071428Y-61354819D02*
X58928571Y-61307200D01*
X58928571Y-61307200D02*
X58833333Y-61211961D01*
X58833333Y-61211961D02*
X58785714Y-61116723D01*
X58785714Y-61116723D02*
X58738095Y-60926247D01*
X58738095Y-60926247D02*
X58738095Y-60783390D01*
X58738095Y-60783390D02*
X58785714Y-60592914D01*
X58785714Y-60592914D02*
X58833333Y-60497676D01*
X58833333Y-60497676D02*
X58928571Y-60402438D01*
X58928571Y-60402438D02*
X59071428Y-60354819D01*
X59071428Y-60354819D02*
X59166666Y-60354819D01*
X59166666Y-60354819D02*
X59309523Y-60402438D01*
X59309523Y-60402438D02*
X59357142Y-60450057D01*
X60309523Y-61354819D02*
X59738095Y-61354819D01*
X60023809Y-61354819D02*
X60023809Y-60354819D01*
X60023809Y-60354819D02*
X59928571Y-60497676D01*
X59928571Y-60497676D02*
X59833333Y-60592914D01*
X59833333Y-60592914D02*
X59738095Y-60640533D01*
X61214285Y-60354819D02*
X60738095Y-60354819D01*
X60738095Y-60354819D02*
X60690476Y-60831009D01*
X60690476Y-60831009D02*
X60738095Y-60783390D01*
X60738095Y-60783390D02*
X60833333Y-60735771D01*
X60833333Y-60735771D02*
X61071428Y-60735771D01*
X61071428Y-60735771D02*
X61166666Y-60783390D01*
X61166666Y-60783390D02*
X61214285Y-60831009D01*
X61214285Y-60831009D02*
X61261904Y-60926247D01*
X61261904Y-60926247D02*
X61261904Y-61164342D01*
X61261904Y-61164342D02*
X61214285Y-61259580D01*
X61214285Y-61259580D02*
X61166666Y-61307200D01*
X61166666Y-61307200D02*
X61071428Y-61354819D01*
X61071428Y-61354819D02*
X60833333Y-61354819D01*
X60833333Y-61354819D02*
X60738095Y-61307200D01*
X60738095Y-61307200D02*
X60690476Y-61259580D01*
X79640750Y-69404755D02*
X79307417Y-68928564D01*
X79069322Y-69404755D02*
X79069322Y-68404755D01*
X79069322Y-68404755D02*
X79450274Y-68404755D01*
X79450274Y-68404755D02*
X79545512Y-68452374D01*
X79545512Y-68452374D02*
X79593131Y-68499993D01*
X79593131Y-68499993D02*
X79640750Y-68595231D01*
X79640750Y-68595231D02*
X79640750Y-68738088D01*
X79640750Y-68738088D02*
X79593131Y-68833326D01*
X79593131Y-68833326D02*
X79545512Y-68880945D01*
X79545512Y-68880945D02*
X79450274Y-68928564D01*
X79450274Y-68928564D02*
X79069322Y-68928564D01*
X80545512Y-68404755D02*
X80069322Y-68404755D01*
X80069322Y-68404755D02*
X80021703Y-68880945D01*
X80021703Y-68880945D02*
X80069322Y-68833326D01*
X80069322Y-68833326D02*
X80164560Y-68785707D01*
X80164560Y-68785707D02*
X80402655Y-68785707D01*
X80402655Y-68785707D02*
X80497893Y-68833326D01*
X80497893Y-68833326D02*
X80545512Y-68880945D01*
X80545512Y-68880945D02*
X80593131Y-68976183D01*
X80593131Y-68976183D02*
X80593131Y-69214278D01*
X80593131Y-69214278D02*
X80545512Y-69309516D01*
X80545512Y-69309516D02*
X80497893Y-69357136D01*
X80497893Y-69357136D02*
X80402655Y-69404755D01*
X80402655Y-69404755D02*
X80164560Y-69404755D01*
X80164560Y-69404755D02*
X80069322Y-69357136D01*
X80069322Y-69357136D02*
X80021703Y-69309516D01*
X69261905Y-72854819D02*
X69261905Y-71854819D01*
X69261905Y-71854819D02*
X69500000Y-71854819D01*
X69500000Y-71854819D02*
X69642857Y-71902438D01*
X69642857Y-71902438D02*
X69738095Y-71997676D01*
X69738095Y-71997676D02*
X69785714Y-72092914D01*
X69785714Y-72092914D02*
X69833333Y-72283390D01*
X69833333Y-72283390D02*
X69833333Y-72426247D01*
X69833333Y-72426247D02*
X69785714Y-72616723D01*
X69785714Y-72616723D02*
X69738095Y-72711961D01*
X69738095Y-72711961D02*
X69642857Y-72807200D01*
X69642857Y-72807200D02*
X69500000Y-72854819D01*
X69500000Y-72854819D02*
X69261905Y-72854819D01*
X70785714Y-72854819D02*
X70214286Y-72854819D01*
X70500000Y-72854819D02*
X70500000Y-71854819D01*
X70500000Y-71854819D02*
X70404762Y-71997676D01*
X70404762Y-71997676D02*
X70309524Y-72092914D01*
X70309524Y-72092914D02*
X70214286Y-72140533D01*
X71931910Y-59313378D02*
X71884291Y-59265759D01*
X71884291Y-59265759D02*
X71836671Y-59122902D01*
X71836671Y-59122902D02*
X71836671Y-59027664D01*
X71836671Y-59027664D02*
X71884291Y-58884807D01*
X71884291Y-58884807D02*
X71979529Y-58789569D01*
X71979529Y-58789569D02*
X72074767Y-58741950D01*
X72074767Y-58741950D02*
X72265243Y-58694331D01*
X72265243Y-58694331D02*
X72408100Y-58694331D01*
X72408100Y-58694331D02*
X72598576Y-58741950D01*
X72598576Y-58741950D02*
X72693814Y-58789569D01*
X72693814Y-58789569D02*
X72789052Y-58884807D01*
X72789052Y-58884807D02*
X72836671Y-59027664D01*
X72836671Y-59027664D02*
X72836671Y-59122902D01*
X72836671Y-59122902D02*
X72789052Y-59265759D01*
X72789052Y-59265759D02*
X72741433Y-59313378D01*
X72741433Y-59694331D02*
X72789052Y-59741950D01*
X72789052Y-59741950D02*
X72836671Y-59837188D01*
X72836671Y-59837188D02*
X72836671Y-60075283D01*
X72836671Y-60075283D02*
X72789052Y-60170521D01*
X72789052Y-60170521D02*
X72741433Y-60218140D01*
X72741433Y-60218140D02*
X72646195Y-60265759D01*
X72646195Y-60265759D02*
X72550957Y-60265759D01*
X72550957Y-60265759D02*
X72408100Y-60218140D01*
X72408100Y-60218140D02*
X71836671Y-59646712D01*
X71836671Y-59646712D02*
X71836671Y-60265759D01*
X72836671Y-60599093D02*
X72836671Y-61218140D01*
X72836671Y-61218140D02*
X72455719Y-60884807D01*
X72455719Y-60884807D02*
X72455719Y-61027664D01*
X72455719Y-61027664D02*
X72408100Y-61122902D01*
X72408100Y-61122902D02*
X72360481Y-61170521D01*
X72360481Y-61170521D02*
X72265243Y-61218140D01*
X72265243Y-61218140D02*
X72027148Y-61218140D01*
X72027148Y-61218140D02*
X71931910Y-61170521D01*
X71931910Y-61170521D02*
X71884291Y-61122902D01*
X71884291Y-61122902D02*
X71836671Y-61027664D01*
X71836671Y-61027664D02*
X71836671Y-60741950D01*
X71836671Y-60741950D02*
X71884291Y-60646712D01*
X71884291Y-60646712D02*
X71931910Y-60599093D01*
X61333333Y-70559580D02*
X61285714Y-70607200D01*
X61285714Y-70607200D02*
X61142857Y-70654819D01*
X61142857Y-70654819D02*
X61047619Y-70654819D01*
X61047619Y-70654819D02*
X60904762Y-70607200D01*
X60904762Y-70607200D02*
X60809524Y-70511961D01*
X60809524Y-70511961D02*
X60761905Y-70416723D01*
X60761905Y-70416723D02*
X60714286Y-70226247D01*
X60714286Y-70226247D02*
X60714286Y-70083390D01*
X60714286Y-70083390D02*
X60761905Y-69892914D01*
X60761905Y-69892914D02*
X60809524Y-69797676D01*
X60809524Y-69797676D02*
X60904762Y-69702438D01*
X60904762Y-69702438D02*
X61047619Y-69654819D01*
X61047619Y-69654819D02*
X61142857Y-69654819D01*
X61142857Y-69654819D02*
X61285714Y-69702438D01*
X61285714Y-69702438D02*
X61333333Y-69750057D01*
X61666667Y-69654819D02*
X62333333Y-69654819D01*
X62333333Y-69654819D02*
X61904762Y-70654819D01*
X77803439Y-77159644D02*
X77755820Y-77207264D01*
X77755820Y-77207264D02*
X77612963Y-77254883D01*
X77612963Y-77254883D02*
X77517725Y-77254883D01*
X77517725Y-77254883D02*
X77374868Y-77207264D01*
X77374868Y-77207264D02*
X77279630Y-77112025D01*
X77279630Y-77112025D02*
X77232011Y-77016787D01*
X77232011Y-77016787D02*
X77184392Y-76826311D01*
X77184392Y-76826311D02*
X77184392Y-76683454D01*
X77184392Y-76683454D02*
X77232011Y-76492978D01*
X77232011Y-76492978D02*
X77279630Y-76397740D01*
X77279630Y-76397740D02*
X77374868Y-76302502D01*
X77374868Y-76302502D02*
X77517725Y-76254883D01*
X77517725Y-76254883D02*
X77612963Y-76254883D01*
X77612963Y-76254883D02*
X77755820Y-76302502D01*
X77755820Y-76302502D02*
X77803439Y-76350121D01*
X78755820Y-77254883D02*
X78184392Y-77254883D01*
X78470106Y-77254883D02*
X78470106Y-76254883D01*
X78470106Y-76254883D02*
X78374868Y-76397740D01*
X78374868Y-76397740D02*
X78279630Y-76492978D01*
X78279630Y-76492978D02*
X78184392Y-76540597D01*
X79708201Y-77254883D02*
X79136773Y-77254883D01*
X79422487Y-77254883D02*
X79422487Y-76254883D01*
X79422487Y-76254883D02*
X79327249Y-76397740D01*
X79327249Y-76397740D02*
X79232011Y-76492978D01*
X79232011Y-76492978D02*
X79136773Y-76540597D01*
X69959580Y-69042857D02*
X70007200Y-69090476D01*
X70007200Y-69090476D02*
X70054819Y-69233333D01*
X70054819Y-69233333D02*
X70054819Y-69328571D01*
X70054819Y-69328571D02*
X70007200Y-69471428D01*
X70007200Y-69471428D02*
X69911961Y-69566666D01*
X69911961Y-69566666D02*
X69816723Y-69614285D01*
X69816723Y-69614285D02*
X69626247Y-69661904D01*
X69626247Y-69661904D02*
X69483390Y-69661904D01*
X69483390Y-69661904D02*
X69292914Y-69614285D01*
X69292914Y-69614285D02*
X69197676Y-69566666D01*
X69197676Y-69566666D02*
X69102438Y-69471428D01*
X69102438Y-69471428D02*
X69054819Y-69328571D01*
X69054819Y-69328571D02*
X69054819Y-69233333D01*
X69054819Y-69233333D02*
X69102438Y-69090476D01*
X69102438Y-69090476D02*
X69150057Y-69042857D01*
X70054819Y-68090476D02*
X70054819Y-68661904D01*
X70054819Y-68376190D02*
X69054819Y-68376190D01*
X69054819Y-68376190D02*
X69197676Y-68471428D01*
X69197676Y-68471428D02*
X69292914Y-68566666D01*
X69292914Y-68566666D02*
X69340533Y-68661904D01*
X70054819Y-67614285D02*
X70054819Y-67423809D01*
X70054819Y-67423809D02*
X70007200Y-67328571D01*
X70007200Y-67328571D02*
X69959580Y-67280952D01*
X69959580Y-67280952D02*
X69816723Y-67185714D01*
X69816723Y-67185714D02*
X69626247Y-67138095D01*
X69626247Y-67138095D02*
X69245295Y-67138095D01*
X69245295Y-67138095D02*
X69150057Y-67185714D01*
X69150057Y-67185714D02*
X69102438Y-67233333D01*
X69102438Y-67233333D02*
X69054819Y-67328571D01*
X69054819Y-67328571D02*
X69054819Y-67519047D01*
X69054819Y-67519047D02*
X69102438Y-67614285D01*
X69102438Y-67614285D02*
X69150057Y-67661904D01*
X69150057Y-67661904D02*
X69245295Y-67709523D01*
X69245295Y-67709523D02*
X69483390Y-67709523D01*
X69483390Y-67709523D02*
X69578628Y-67661904D01*
X69578628Y-67661904D02*
X69626247Y-67614285D01*
X69626247Y-67614285D02*
X69673866Y-67519047D01*
X69673866Y-67519047D02*
X69673866Y-67328571D01*
X69673866Y-67328571D02*
X69626247Y-67233333D01*
X69626247Y-67233333D02*
X69578628Y-67185714D01*
X69578628Y-67185714D02*
X69483390Y-67138095D01*
X76582142Y-52859580D02*
X76534523Y-52907200D01*
X76534523Y-52907200D02*
X76391666Y-52954819D01*
X76391666Y-52954819D02*
X76296428Y-52954819D01*
X76296428Y-52954819D02*
X76153571Y-52907200D01*
X76153571Y-52907200D02*
X76058333Y-52811961D01*
X76058333Y-52811961D02*
X76010714Y-52716723D01*
X76010714Y-52716723D02*
X75963095Y-52526247D01*
X75963095Y-52526247D02*
X75963095Y-52383390D01*
X75963095Y-52383390D02*
X76010714Y-52192914D01*
X76010714Y-52192914D02*
X76058333Y-52097676D01*
X76058333Y-52097676D02*
X76153571Y-52002438D01*
X76153571Y-52002438D02*
X76296428Y-51954819D01*
X76296428Y-51954819D02*
X76391666Y-51954819D01*
X76391666Y-51954819D02*
X76534523Y-52002438D01*
X76534523Y-52002438D02*
X76582142Y-52050057D01*
X76963095Y-52050057D02*
X77010714Y-52002438D01*
X77010714Y-52002438D02*
X77105952Y-51954819D01*
X77105952Y-51954819D02*
X77344047Y-51954819D01*
X77344047Y-51954819D02*
X77439285Y-52002438D01*
X77439285Y-52002438D02*
X77486904Y-52050057D01*
X77486904Y-52050057D02*
X77534523Y-52145295D01*
X77534523Y-52145295D02*
X77534523Y-52240533D01*
X77534523Y-52240533D02*
X77486904Y-52383390D01*
X77486904Y-52383390D02*
X76915476Y-52954819D01*
X76915476Y-52954819D02*
X77534523Y-52954819D01*
X77915476Y-52050057D02*
X77963095Y-52002438D01*
X77963095Y-52002438D02*
X78058333Y-51954819D01*
X78058333Y-51954819D02*
X78296428Y-51954819D01*
X78296428Y-51954819D02*
X78391666Y-52002438D01*
X78391666Y-52002438D02*
X78439285Y-52050057D01*
X78439285Y-52050057D02*
X78486904Y-52145295D01*
X78486904Y-52145295D02*
X78486904Y-52240533D01*
X78486904Y-52240533D02*
X78439285Y-52383390D01*
X78439285Y-52383390D02*
X77867857Y-52954819D01*
X77867857Y-52954819D02*
X78486904Y-52954819D01*
X64033333Y-80254819D02*
X63700000Y-79778628D01*
X63461905Y-80254819D02*
X63461905Y-79254819D01*
X63461905Y-79254819D02*
X63842857Y-79254819D01*
X63842857Y-79254819D02*
X63938095Y-79302438D01*
X63938095Y-79302438D02*
X63985714Y-79350057D01*
X63985714Y-79350057D02*
X64033333Y-79445295D01*
X64033333Y-79445295D02*
X64033333Y-79588152D01*
X64033333Y-79588152D02*
X63985714Y-79683390D01*
X63985714Y-79683390D02*
X63938095Y-79731009D01*
X63938095Y-79731009D02*
X63842857Y-79778628D01*
X63842857Y-79778628D02*
X63461905Y-79778628D01*
X64985714Y-80254819D02*
X64414286Y-80254819D01*
X64700000Y-80254819D02*
X64700000Y-79254819D01*
X64700000Y-79254819D02*
X64604762Y-79397676D01*
X64604762Y-79397676D02*
X64509524Y-79492914D01*
X64509524Y-79492914D02*
X64414286Y-79540533D01*
X87087036Y-71188516D02*
X87039417Y-71236136D01*
X87039417Y-71236136D02*
X86896560Y-71283755D01*
X86896560Y-71283755D02*
X86801322Y-71283755D01*
X86801322Y-71283755D02*
X86658465Y-71236136D01*
X86658465Y-71236136D02*
X86563227Y-71140897D01*
X86563227Y-71140897D02*
X86515608Y-71045659D01*
X86515608Y-71045659D02*
X86467989Y-70855183D01*
X86467989Y-70855183D02*
X86467989Y-70712326D01*
X86467989Y-70712326D02*
X86515608Y-70521850D01*
X86515608Y-70521850D02*
X86563227Y-70426612D01*
X86563227Y-70426612D02*
X86658465Y-70331374D01*
X86658465Y-70331374D02*
X86801322Y-70283755D01*
X86801322Y-70283755D02*
X86896560Y-70283755D01*
X86896560Y-70283755D02*
X87039417Y-70331374D01*
X87039417Y-70331374D02*
X87087036Y-70378993D01*
X87658465Y-70712326D02*
X87563227Y-70664707D01*
X87563227Y-70664707D02*
X87515608Y-70617088D01*
X87515608Y-70617088D02*
X87467989Y-70521850D01*
X87467989Y-70521850D02*
X87467989Y-70474231D01*
X87467989Y-70474231D02*
X87515608Y-70378993D01*
X87515608Y-70378993D02*
X87563227Y-70331374D01*
X87563227Y-70331374D02*
X87658465Y-70283755D01*
X87658465Y-70283755D02*
X87848941Y-70283755D01*
X87848941Y-70283755D02*
X87944179Y-70331374D01*
X87944179Y-70331374D02*
X87991798Y-70378993D01*
X87991798Y-70378993D02*
X88039417Y-70474231D01*
X88039417Y-70474231D02*
X88039417Y-70521850D01*
X88039417Y-70521850D02*
X87991798Y-70617088D01*
X87991798Y-70617088D02*
X87944179Y-70664707D01*
X87944179Y-70664707D02*
X87848941Y-70712326D01*
X87848941Y-70712326D02*
X87658465Y-70712326D01*
X87658465Y-70712326D02*
X87563227Y-70759945D01*
X87563227Y-70759945D02*
X87515608Y-70807564D01*
X87515608Y-70807564D02*
X87467989Y-70902802D01*
X87467989Y-70902802D02*
X87467989Y-71093278D01*
X87467989Y-71093278D02*
X87515608Y-71188516D01*
X87515608Y-71188516D02*
X87563227Y-71236136D01*
X87563227Y-71236136D02*
X87658465Y-71283755D01*
X87658465Y-71283755D02*
X87848941Y-71283755D01*
X87848941Y-71283755D02*
X87944179Y-71236136D01*
X87944179Y-71236136D02*
X87991798Y-71188516D01*
X87991798Y-71188516D02*
X88039417Y-71093278D01*
X88039417Y-71093278D02*
X88039417Y-70902802D01*
X88039417Y-70902802D02*
X87991798Y-70807564D01*
X87991798Y-70807564D02*
X87944179Y-70759945D01*
X87944179Y-70759945D02*
X87848941Y-70712326D01*
X82433333Y-65759580D02*
X82385714Y-65807200D01*
X82385714Y-65807200D02*
X82242857Y-65854819D01*
X82242857Y-65854819D02*
X82147619Y-65854819D01*
X82147619Y-65854819D02*
X82004762Y-65807200D01*
X82004762Y-65807200D02*
X81909524Y-65711961D01*
X81909524Y-65711961D02*
X81861905Y-65616723D01*
X81861905Y-65616723D02*
X81814286Y-65426247D01*
X81814286Y-65426247D02*
X81814286Y-65283390D01*
X81814286Y-65283390D02*
X81861905Y-65092914D01*
X81861905Y-65092914D02*
X81909524Y-64997676D01*
X81909524Y-64997676D02*
X82004762Y-64902438D01*
X82004762Y-64902438D02*
X82147619Y-64854819D01*
X82147619Y-64854819D02*
X82242857Y-64854819D01*
X82242857Y-64854819D02*
X82385714Y-64902438D01*
X82385714Y-64902438D02*
X82433333Y-64950057D01*
X82909524Y-65854819D02*
X83100000Y-65854819D01*
X83100000Y-65854819D02*
X83195238Y-65807200D01*
X83195238Y-65807200D02*
X83242857Y-65759580D01*
X83242857Y-65759580D02*
X83338095Y-65616723D01*
X83338095Y-65616723D02*
X83385714Y-65426247D01*
X83385714Y-65426247D02*
X83385714Y-65045295D01*
X83385714Y-65045295D02*
X83338095Y-64950057D01*
X83338095Y-64950057D02*
X83290476Y-64902438D01*
X83290476Y-64902438D02*
X83195238Y-64854819D01*
X83195238Y-64854819D02*
X83004762Y-64854819D01*
X83004762Y-64854819D02*
X82909524Y-64902438D01*
X82909524Y-64902438D02*
X82861905Y-64950057D01*
X82861905Y-64950057D02*
X82814286Y-65045295D01*
X82814286Y-65045295D02*
X82814286Y-65283390D01*
X82814286Y-65283390D02*
X82861905Y-65378628D01*
X82861905Y-65378628D02*
X82909524Y-65426247D01*
X82909524Y-65426247D02*
X83004762Y-65473866D01*
X83004762Y-65473866D02*
X83195238Y-65473866D01*
X83195238Y-65473866D02*
X83290476Y-65426247D01*
X83290476Y-65426247D02*
X83338095Y-65378628D01*
X83338095Y-65378628D02*
X83385714Y-65283390D01*
X84145512Y-74104755D02*
X84145512Y-74914278D01*
X84145512Y-74914278D02*
X84193131Y-75009516D01*
X84193131Y-75009516D02*
X84240750Y-75057136D01*
X84240750Y-75057136D02*
X84335988Y-75104755D01*
X84335988Y-75104755D02*
X84526464Y-75104755D01*
X84526464Y-75104755D02*
X84621702Y-75057136D01*
X84621702Y-75057136D02*
X84669321Y-75009516D01*
X84669321Y-75009516D02*
X84716940Y-74914278D01*
X84716940Y-74914278D02*
X84716940Y-74104755D01*
X85145512Y-74199993D02*
X85193131Y-74152374D01*
X85193131Y-74152374D02*
X85288369Y-74104755D01*
X85288369Y-74104755D02*
X85526464Y-74104755D01*
X85526464Y-74104755D02*
X85621702Y-74152374D01*
X85621702Y-74152374D02*
X85669321Y-74199993D01*
X85669321Y-74199993D02*
X85716940Y-74295231D01*
X85716940Y-74295231D02*
X85716940Y-74390469D01*
X85716940Y-74390469D02*
X85669321Y-74533326D01*
X85669321Y-74533326D02*
X85097893Y-75104755D01*
X85097893Y-75104755D02*
X85716940Y-75104755D01*
X74957142Y-79744819D02*
X74623809Y-79268628D01*
X74385714Y-79744819D02*
X74385714Y-78744819D01*
X74385714Y-78744819D02*
X74766666Y-78744819D01*
X74766666Y-78744819D02*
X74861904Y-78792438D01*
X74861904Y-78792438D02*
X74909523Y-78840057D01*
X74909523Y-78840057D02*
X74957142Y-78935295D01*
X74957142Y-78935295D02*
X74957142Y-79078152D01*
X74957142Y-79078152D02*
X74909523Y-79173390D01*
X74909523Y-79173390D02*
X74861904Y-79221009D01*
X74861904Y-79221009D02*
X74766666Y-79268628D01*
X74766666Y-79268628D02*
X74385714Y-79268628D01*
X75909523Y-79744819D02*
X75338095Y-79744819D01*
X75623809Y-79744819D02*
X75623809Y-78744819D01*
X75623809Y-78744819D02*
X75528571Y-78887676D01*
X75528571Y-78887676D02*
X75433333Y-78982914D01*
X75433333Y-78982914D02*
X75338095Y-79030533D01*
X76861904Y-79744819D02*
X76290476Y-79744819D01*
X76576190Y-79744819D02*
X76576190Y-78744819D01*
X76576190Y-78744819D02*
X76480952Y-78887676D01*
X76480952Y-78887676D02*
X76385714Y-78982914D01*
X76385714Y-78982914D02*
X76290476Y-79030533D01*
X58117142Y-72259580D02*
X58069523Y-72307200D01*
X58069523Y-72307200D02*
X57926666Y-72354819D01*
X57926666Y-72354819D02*
X57831428Y-72354819D01*
X57831428Y-72354819D02*
X57688571Y-72307200D01*
X57688571Y-72307200D02*
X57593333Y-72211961D01*
X57593333Y-72211961D02*
X57545714Y-72116723D01*
X57545714Y-72116723D02*
X57498095Y-71926247D01*
X57498095Y-71926247D02*
X57498095Y-71783390D01*
X57498095Y-71783390D02*
X57545714Y-71592914D01*
X57545714Y-71592914D02*
X57593333Y-71497676D01*
X57593333Y-71497676D02*
X57688571Y-71402438D01*
X57688571Y-71402438D02*
X57831428Y-71354819D01*
X57831428Y-71354819D02*
X57926666Y-71354819D01*
X57926666Y-71354819D02*
X58069523Y-71402438D01*
X58069523Y-71402438D02*
X58117142Y-71450057D01*
X59069523Y-72354819D02*
X58498095Y-72354819D01*
X58783809Y-72354819D02*
X58783809Y-71354819D01*
X58783809Y-71354819D02*
X58688571Y-71497676D01*
X58688571Y-71497676D02*
X58593333Y-71592914D01*
X58593333Y-71592914D02*
X58498095Y-71640533D01*
X59450476Y-71450057D02*
X59498095Y-71402438D01*
X59498095Y-71402438D02*
X59593333Y-71354819D01*
X59593333Y-71354819D02*
X59831428Y-71354819D01*
X59831428Y-71354819D02*
X59926666Y-71402438D01*
X59926666Y-71402438D02*
X59974285Y-71450057D01*
X59974285Y-71450057D02*
X60021904Y-71545295D01*
X60021904Y-71545295D02*
X60021904Y-71640533D01*
X60021904Y-71640533D02*
X59974285Y-71783390D01*
X59974285Y-71783390D02*
X59402857Y-72354819D01*
X59402857Y-72354819D02*
X60021904Y-72354819D01*
X60857142Y-59559580D02*
X60809523Y-59607200D01*
X60809523Y-59607200D02*
X60666666Y-59654819D01*
X60666666Y-59654819D02*
X60571428Y-59654819D01*
X60571428Y-59654819D02*
X60428571Y-59607200D01*
X60428571Y-59607200D02*
X60333333Y-59511961D01*
X60333333Y-59511961D02*
X60285714Y-59416723D01*
X60285714Y-59416723D02*
X60238095Y-59226247D01*
X60238095Y-59226247D02*
X60238095Y-59083390D01*
X60238095Y-59083390D02*
X60285714Y-58892914D01*
X60285714Y-58892914D02*
X60333333Y-58797676D01*
X60333333Y-58797676D02*
X60428571Y-58702438D01*
X60428571Y-58702438D02*
X60571428Y-58654819D01*
X60571428Y-58654819D02*
X60666666Y-58654819D01*
X60666666Y-58654819D02*
X60809523Y-58702438D01*
X60809523Y-58702438D02*
X60857142Y-58750057D01*
X61809523Y-59654819D02*
X61238095Y-59654819D01*
X61523809Y-59654819D02*
X61523809Y-58654819D01*
X61523809Y-58654819D02*
X61428571Y-58797676D01*
X61428571Y-58797676D02*
X61333333Y-58892914D01*
X61333333Y-58892914D02*
X61238095Y-58940533D01*
X62380952Y-59083390D02*
X62285714Y-59035771D01*
X62285714Y-59035771D02*
X62238095Y-58988152D01*
X62238095Y-58988152D02*
X62190476Y-58892914D01*
X62190476Y-58892914D02*
X62190476Y-58845295D01*
X62190476Y-58845295D02*
X62238095Y-58750057D01*
X62238095Y-58750057D02*
X62285714Y-58702438D01*
X62285714Y-58702438D02*
X62380952Y-58654819D01*
X62380952Y-58654819D02*
X62571428Y-58654819D01*
X62571428Y-58654819D02*
X62666666Y-58702438D01*
X62666666Y-58702438D02*
X62714285Y-58750057D01*
X62714285Y-58750057D02*
X62761904Y-58845295D01*
X62761904Y-58845295D02*
X62761904Y-58892914D01*
X62761904Y-58892914D02*
X62714285Y-58988152D01*
X62714285Y-58988152D02*
X62666666Y-59035771D01*
X62666666Y-59035771D02*
X62571428Y-59083390D01*
X62571428Y-59083390D02*
X62380952Y-59083390D01*
X62380952Y-59083390D02*
X62285714Y-59131009D01*
X62285714Y-59131009D02*
X62238095Y-59178628D01*
X62238095Y-59178628D02*
X62190476Y-59273866D01*
X62190476Y-59273866D02*
X62190476Y-59464342D01*
X62190476Y-59464342D02*
X62238095Y-59559580D01*
X62238095Y-59559580D02*
X62285714Y-59607200D01*
X62285714Y-59607200D02*
X62380952Y-59654819D01*
X62380952Y-59654819D02*
X62571428Y-59654819D01*
X62571428Y-59654819D02*
X62666666Y-59607200D01*
X62666666Y-59607200D02*
X62714285Y-59559580D01*
X62714285Y-59559580D02*
X62761904Y-59464342D01*
X62761904Y-59464342D02*
X62761904Y-59273866D01*
X62761904Y-59273866D02*
X62714285Y-59178628D01*
X62714285Y-59178628D02*
X62666666Y-59131009D01*
X62666666Y-59131009D02*
X62571428Y-59083390D01*
X61657142Y-54759580D02*
X61609523Y-54807200D01*
X61609523Y-54807200D02*
X61466666Y-54854819D01*
X61466666Y-54854819D02*
X61371428Y-54854819D01*
X61371428Y-54854819D02*
X61228571Y-54807200D01*
X61228571Y-54807200D02*
X61133333Y-54711961D01*
X61133333Y-54711961D02*
X61085714Y-54616723D01*
X61085714Y-54616723D02*
X61038095Y-54426247D01*
X61038095Y-54426247D02*
X61038095Y-54283390D01*
X61038095Y-54283390D02*
X61085714Y-54092914D01*
X61085714Y-54092914D02*
X61133333Y-53997676D01*
X61133333Y-53997676D02*
X61228571Y-53902438D01*
X61228571Y-53902438D02*
X61371428Y-53854819D01*
X61371428Y-53854819D02*
X61466666Y-53854819D01*
X61466666Y-53854819D02*
X61609523Y-53902438D01*
X61609523Y-53902438D02*
X61657142Y-53950057D01*
X62609523Y-54854819D02*
X62038095Y-54854819D01*
X62323809Y-54854819D02*
X62323809Y-53854819D01*
X62323809Y-53854819D02*
X62228571Y-53997676D01*
X62228571Y-53997676D02*
X62133333Y-54092914D01*
X62133333Y-54092914D02*
X62038095Y-54140533D01*
X63466666Y-53854819D02*
X63276190Y-53854819D01*
X63276190Y-53854819D02*
X63180952Y-53902438D01*
X63180952Y-53902438D02*
X63133333Y-53950057D01*
X63133333Y-53950057D02*
X63038095Y-54092914D01*
X63038095Y-54092914D02*
X62990476Y-54283390D01*
X62990476Y-54283390D02*
X62990476Y-54664342D01*
X62990476Y-54664342D02*
X63038095Y-54759580D01*
X63038095Y-54759580D02*
X63085714Y-54807200D01*
X63085714Y-54807200D02*
X63180952Y-54854819D01*
X63180952Y-54854819D02*
X63371428Y-54854819D01*
X63371428Y-54854819D02*
X63466666Y-54807200D01*
X63466666Y-54807200D02*
X63514285Y-54759580D01*
X63514285Y-54759580D02*
X63561904Y-54664342D01*
X63561904Y-54664342D02*
X63561904Y-54426247D01*
X63561904Y-54426247D02*
X63514285Y-54331009D01*
X63514285Y-54331009D02*
X63466666Y-54283390D01*
X63466666Y-54283390D02*
X63371428Y-54235771D01*
X63371428Y-54235771D02*
X63180952Y-54235771D01*
X63180952Y-54235771D02*
X63085714Y-54283390D01*
X63085714Y-54283390D02*
X63038095Y-54331009D01*
X63038095Y-54331009D02*
X62990476Y-54426247D01*
X74957142Y-73854819D02*
X74623809Y-73378628D01*
X74385714Y-73854819D02*
X74385714Y-72854819D01*
X74385714Y-72854819D02*
X74766666Y-72854819D01*
X74766666Y-72854819D02*
X74861904Y-72902438D01*
X74861904Y-72902438D02*
X74909523Y-72950057D01*
X74909523Y-72950057D02*
X74957142Y-73045295D01*
X74957142Y-73045295D02*
X74957142Y-73188152D01*
X74957142Y-73188152D02*
X74909523Y-73283390D01*
X74909523Y-73283390D02*
X74861904Y-73331009D01*
X74861904Y-73331009D02*
X74766666Y-73378628D01*
X74766666Y-73378628D02*
X74385714Y-73378628D01*
X75909523Y-73854819D02*
X75338095Y-73854819D01*
X75623809Y-73854819D02*
X75623809Y-72854819D01*
X75623809Y-72854819D02*
X75528571Y-72997676D01*
X75528571Y-72997676D02*
X75433333Y-73092914D01*
X75433333Y-73092914D02*
X75338095Y-73140533D01*
X76528571Y-72854819D02*
X76623809Y-72854819D01*
X76623809Y-72854819D02*
X76719047Y-72902438D01*
X76719047Y-72902438D02*
X76766666Y-72950057D01*
X76766666Y-72950057D02*
X76814285Y-73045295D01*
X76814285Y-73045295D02*
X76861904Y-73235771D01*
X76861904Y-73235771D02*
X76861904Y-73473866D01*
X76861904Y-73473866D02*
X76814285Y-73664342D01*
X76814285Y-73664342D02*
X76766666Y-73759580D01*
X76766666Y-73759580D02*
X76719047Y-73807200D01*
X76719047Y-73807200D02*
X76623809Y-73854819D01*
X76623809Y-73854819D02*
X76528571Y-73854819D01*
X76528571Y-73854819D02*
X76433333Y-73807200D01*
X76433333Y-73807200D02*
X76385714Y-73759580D01*
X76385714Y-73759580D02*
X76338095Y-73664342D01*
X76338095Y-73664342D02*
X76290476Y-73473866D01*
X76290476Y-73473866D02*
X76290476Y-73235771D01*
X76290476Y-73235771D02*
X76338095Y-73045295D01*
X76338095Y-73045295D02*
X76385714Y-72950057D01*
X76385714Y-72950057D02*
X76433333Y-72902438D01*
X76433333Y-72902438D02*
X76528571Y-72854819D01*
X79138095Y-63854819D02*
X79138095Y-64664342D01*
X79138095Y-64664342D02*
X79185714Y-64759580D01*
X79185714Y-64759580D02*
X79233333Y-64807200D01*
X79233333Y-64807200D02*
X79328571Y-64854819D01*
X79328571Y-64854819D02*
X79519047Y-64854819D01*
X79519047Y-64854819D02*
X79614285Y-64807200D01*
X79614285Y-64807200D02*
X79661904Y-64759580D01*
X79661904Y-64759580D02*
X79709523Y-64664342D01*
X79709523Y-64664342D02*
X79709523Y-63854819D01*
X80614285Y-63854819D02*
X80423809Y-63854819D01*
X80423809Y-63854819D02*
X80328571Y-63902438D01*
X80328571Y-63902438D02*
X80280952Y-63950057D01*
X80280952Y-63950057D02*
X80185714Y-64092914D01*
X80185714Y-64092914D02*
X80138095Y-64283390D01*
X80138095Y-64283390D02*
X80138095Y-64664342D01*
X80138095Y-64664342D02*
X80185714Y-64759580D01*
X80185714Y-64759580D02*
X80233333Y-64807200D01*
X80233333Y-64807200D02*
X80328571Y-64854819D01*
X80328571Y-64854819D02*
X80519047Y-64854819D01*
X80519047Y-64854819D02*
X80614285Y-64807200D01*
X80614285Y-64807200D02*
X80661904Y-64759580D01*
X80661904Y-64759580D02*
X80709523Y-64664342D01*
X80709523Y-64664342D02*
X80709523Y-64426247D01*
X80709523Y-64426247D02*
X80661904Y-64331009D01*
X80661904Y-64331009D02*
X80614285Y-64283390D01*
X80614285Y-64283390D02*
X80519047Y-64235771D01*
X80519047Y-64235771D02*
X80328571Y-64235771D01*
X80328571Y-64235771D02*
X80233333Y-64283390D01*
X80233333Y-64283390D02*
X80185714Y-64331009D01*
X80185714Y-64331009D02*
X80138095Y-64426247D01*
X77433333Y-70854819D02*
X77100000Y-70378628D01*
X76861905Y-70854819D02*
X76861905Y-69854819D01*
X76861905Y-69854819D02*
X77242857Y-69854819D01*
X77242857Y-69854819D02*
X77338095Y-69902438D01*
X77338095Y-69902438D02*
X77385714Y-69950057D01*
X77385714Y-69950057D02*
X77433333Y-70045295D01*
X77433333Y-70045295D02*
X77433333Y-70188152D01*
X77433333Y-70188152D02*
X77385714Y-70283390D01*
X77385714Y-70283390D02*
X77338095Y-70331009D01*
X77338095Y-70331009D02*
X77242857Y-70378628D01*
X77242857Y-70378628D02*
X76861905Y-70378628D01*
X78290476Y-70188152D02*
X78290476Y-70854819D01*
X78052381Y-69807200D02*
X77814286Y-70521485D01*
X77814286Y-70521485D02*
X78433333Y-70521485D01*
X79138095Y-55411055D02*
X79138095Y-56220578D01*
X79138095Y-56220578D02*
X79185714Y-56315816D01*
X79185714Y-56315816D02*
X79233333Y-56363436D01*
X79233333Y-56363436D02*
X79328571Y-56411055D01*
X79328571Y-56411055D02*
X79519047Y-56411055D01*
X79519047Y-56411055D02*
X79614285Y-56363436D01*
X79614285Y-56363436D02*
X79661904Y-56315816D01*
X79661904Y-56315816D02*
X79709523Y-56220578D01*
X79709523Y-56220578D02*
X79709523Y-55411055D01*
X80090476Y-55411055D02*
X80757142Y-55411055D01*
X80757142Y-55411055D02*
X80328571Y-56411055D01*
X69959580Y-60642857D02*
X70007200Y-60690476D01*
X70007200Y-60690476D02*
X70054819Y-60833333D01*
X70054819Y-60833333D02*
X70054819Y-60928571D01*
X70054819Y-60928571D02*
X70007200Y-61071428D01*
X70007200Y-61071428D02*
X69911961Y-61166666D01*
X69911961Y-61166666D02*
X69816723Y-61214285D01*
X69816723Y-61214285D02*
X69626247Y-61261904D01*
X69626247Y-61261904D02*
X69483390Y-61261904D01*
X69483390Y-61261904D02*
X69292914Y-61214285D01*
X69292914Y-61214285D02*
X69197676Y-61166666D01*
X69197676Y-61166666D02*
X69102438Y-61071428D01*
X69102438Y-61071428D02*
X69054819Y-60928571D01*
X69054819Y-60928571D02*
X69054819Y-60833333D01*
X69054819Y-60833333D02*
X69102438Y-60690476D01*
X69102438Y-60690476D02*
X69150057Y-60642857D01*
X70054819Y-59690476D02*
X70054819Y-60261904D01*
X70054819Y-59976190D02*
X69054819Y-59976190D01*
X69054819Y-59976190D02*
X69197676Y-60071428D01*
X69197676Y-60071428D02*
X69292914Y-60166666D01*
X69292914Y-60166666D02*
X69340533Y-60261904D01*
X69054819Y-59357142D02*
X69054819Y-58690476D01*
X69054819Y-58690476D02*
X70054819Y-59119047D01*
X65033333Y-75354819D02*
X64700000Y-74878628D01*
X64461905Y-75354819D02*
X64461905Y-74354819D01*
X64461905Y-74354819D02*
X64842857Y-74354819D01*
X64842857Y-74354819D02*
X64938095Y-74402438D01*
X64938095Y-74402438D02*
X64985714Y-74450057D01*
X64985714Y-74450057D02*
X65033333Y-74545295D01*
X65033333Y-74545295D02*
X65033333Y-74688152D01*
X65033333Y-74688152D02*
X64985714Y-74783390D01*
X64985714Y-74783390D02*
X64938095Y-74831009D01*
X64938095Y-74831009D02*
X64842857Y-74878628D01*
X64842857Y-74878628D02*
X64461905Y-74878628D01*
X65414286Y-74450057D02*
X65461905Y-74402438D01*
X65461905Y-74402438D02*
X65557143Y-74354819D01*
X65557143Y-74354819D02*
X65795238Y-74354819D01*
X65795238Y-74354819D02*
X65890476Y-74402438D01*
X65890476Y-74402438D02*
X65938095Y-74450057D01*
X65938095Y-74450057D02*
X65985714Y-74545295D01*
X65985714Y-74545295D02*
X65985714Y-74640533D01*
X65985714Y-74640533D02*
X65938095Y-74783390D01*
X65938095Y-74783390D02*
X65366667Y-75354819D01*
X65366667Y-75354819D02*
X65985714Y-75354819D01*
X58933333Y-74359580D02*
X58885714Y-74407200D01*
X58885714Y-74407200D02*
X58742857Y-74454819D01*
X58742857Y-74454819D02*
X58647619Y-74454819D01*
X58647619Y-74454819D02*
X58504762Y-74407200D01*
X58504762Y-74407200D02*
X58409524Y-74311961D01*
X58409524Y-74311961D02*
X58361905Y-74216723D01*
X58361905Y-74216723D02*
X58314286Y-74026247D01*
X58314286Y-74026247D02*
X58314286Y-73883390D01*
X58314286Y-73883390D02*
X58361905Y-73692914D01*
X58361905Y-73692914D02*
X58409524Y-73597676D01*
X58409524Y-73597676D02*
X58504762Y-73502438D01*
X58504762Y-73502438D02*
X58647619Y-73454819D01*
X58647619Y-73454819D02*
X58742857Y-73454819D01*
X58742857Y-73454819D02*
X58885714Y-73502438D01*
X58885714Y-73502438D02*
X58933333Y-73550057D01*
X59790476Y-73454819D02*
X59600000Y-73454819D01*
X59600000Y-73454819D02*
X59504762Y-73502438D01*
X59504762Y-73502438D02*
X59457143Y-73550057D01*
X59457143Y-73550057D02*
X59361905Y-73692914D01*
X59361905Y-73692914D02*
X59314286Y-73883390D01*
X59314286Y-73883390D02*
X59314286Y-74264342D01*
X59314286Y-74264342D02*
X59361905Y-74359580D01*
X59361905Y-74359580D02*
X59409524Y-74407200D01*
X59409524Y-74407200D02*
X59504762Y-74454819D01*
X59504762Y-74454819D02*
X59695238Y-74454819D01*
X59695238Y-74454819D02*
X59790476Y-74407200D01*
X59790476Y-74407200D02*
X59838095Y-74359580D01*
X59838095Y-74359580D02*
X59885714Y-74264342D01*
X59885714Y-74264342D02*
X59885714Y-74026247D01*
X59885714Y-74026247D02*
X59838095Y-73931009D01*
X59838095Y-73931009D02*
X59790476Y-73883390D01*
X59790476Y-73883390D02*
X59695238Y-73835771D01*
X59695238Y-73835771D02*
X59504762Y-73835771D01*
X59504762Y-73835771D02*
X59409524Y-73883390D01*
X59409524Y-73883390D02*
X59361905Y-73931009D01*
X59361905Y-73931009D02*
X59314286Y-74026247D01*
X54133333Y-75959580D02*
X54085714Y-76007200D01*
X54085714Y-76007200D02*
X53942857Y-76054819D01*
X53942857Y-76054819D02*
X53847619Y-76054819D01*
X53847619Y-76054819D02*
X53704762Y-76007200D01*
X53704762Y-76007200D02*
X53609524Y-75911961D01*
X53609524Y-75911961D02*
X53561905Y-75816723D01*
X53561905Y-75816723D02*
X53514286Y-75626247D01*
X53514286Y-75626247D02*
X53514286Y-75483390D01*
X53514286Y-75483390D02*
X53561905Y-75292914D01*
X53561905Y-75292914D02*
X53609524Y-75197676D01*
X53609524Y-75197676D02*
X53704762Y-75102438D01*
X53704762Y-75102438D02*
X53847619Y-75054819D01*
X53847619Y-75054819D02*
X53942857Y-75054819D01*
X53942857Y-75054819D02*
X54085714Y-75102438D01*
X54085714Y-75102438D02*
X54133333Y-75150057D01*
X55038095Y-75054819D02*
X54561905Y-75054819D01*
X54561905Y-75054819D02*
X54514286Y-75531009D01*
X54514286Y-75531009D02*
X54561905Y-75483390D01*
X54561905Y-75483390D02*
X54657143Y-75435771D01*
X54657143Y-75435771D02*
X54895238Y-75435771D01*
X54895238Y-75435771D02*
X54990476Y-75483390D01*
X54990476Y-75483390D02*
X55038095Y-75531009D01*
X55038095Y-75531009D02*
X55085714Y-75626247D01*
X55085714Y-75626247D02*
X55085714Y-75864342D01*
X55085714Y-75864342D02*
X55038095Y-75959580D01*
X55038095Y-75959580D02*
X54990476Y-76007200D01*
X54990476Y-76007200D02*
X54895238Y-76054819D01*
X54895238Y-76054819D02*
X54657143Y-76054819D01*
X54657143Y-76054819D02*
X54561905Y-76007200D01*
X54561905Y-76007200D02*
X54514286Y-75959580D01*
X52639580Y-73740347D02*
X52687200Y-73787966D01*
X52687200Y-73787966D02*
X52734819Y-73930823D01*
X52734819Y-73930823D02*
X52734819Y-74026061D01*
X52734819Y-74026061D02*
X52687200Y-74168918D01*
X52687200Y-74168918D02*
X52591961Y-74264156D01*
X52591961Y-74264156D02*
X52496723Y-74311775D01*
X52496723Y-74311775D02*
X52306247Y-74359394D01*
X52306247Y-74359394D02*
X52163390Y-74359394D01*
X52163390Y-74359394D02*
X51972914Y-74311775D01*
X51972914Y-74311775D02*
X51877676Y-74264156D01*
X51877676Y-74264156D02*
X51782438Y-74168918D01*
X51782438Y-74168918D02*
X51734819Y-74026061D01*
X51734819Y-74026061D02*
X51734819Y-73930823D01*
X51734819Y-73930823D02*
X51782438Y-73787966D01*
X51782438Y-73787966D02*
X51830057Y-73740347D01*
X52734819Y-72787966D02*
X52734819Y-73359394D01*
X52734819Y-73073680D02*
X51734819Y-73073680D01*
X51734819Y-73073680D02*
X51877676Y-73168918D01*
X51877676Y-73168918D02*
X51972914Y-73264156D01*
X51972914Y-73264156D02*
X52020533Y-73359394D01*
X51734819Y-72454632D02*
X51734819Y-71835585D01*
X51734819Y-71835585D02*
X52115771Y-72168918D01*
X52115771Y-72168918D02*
X52115771Y-72026061D01*
X52115771Y-72026061D02*
X52163390Y-71930823D01*
X52163390Y-71930823D02*
X52211009Y-71883204D01*
X52211009Y-71883204D02*
X52306247Y-71835585D01*
X52306247Y-71835585D02*
X52544342Y-71835585D01*
X52544342Y-71835585D02*
X52639580Y-71883204D01*
X52639580Y-71883204D02*
X52687200Y-71930823D01*
X52687200Y-71930823D02*
X52734819Y-72026061D01*
X52734819Y-72026061D02*
X52734819Y-72311775D01*
X52734819Y-72311775D02*
X52687200Y-72407013D01*
X52687200Y-72407013D02*
X52639580Y-72454632D01*
X55233333Y-60554819D02*
X54900000Y-60078628D01*
X54661905Y-60554819D02*
X54661905Y-59554819D01*
X54661905Y-59554819D02*
X55042857Y-59554819D01*
X55042857Y-59554819D02*
X55138095Y-59602438D01*
X55138095Y-59602438D02*
X55185714Y-59650057D01*
X55185714Y-59650057D02*
X55233333Y-59745295D01*
X55233333Y-59745295D02*
X55233333Y-59888152D01*
X55233333Y-59888152D02*
X55185714Y-59983390D01*
X55185714Y-59983390D02*
X55138095Y-60031009D01*
X55138095Y-60031009D02*
X55042857Y-60078628D01*
X55042857Y-60078628D02*
X54661905Y-60078628D01*
X55566667Y-59554819D02*
X56233333Y-59554819D01*
X56233333Y-59554819D02*
X55804762Y-60554819D01*
X80503439Y-75459644D02*
X80455820Y-75507264D01*
X80455820Y-75507264D02*
X80312963Y-75554883D01*
X80312963Y-75554883D02*
X80217725Y-75554883D01*
X80217725Y-75554883D02*
X80074868Y-75507264D01*
X80074868Y-75507264D02*
X79979630Y-75412025D01*
X79979630Y-75412025D02*
X79932011Y-75316787D01*
X79932011Y-75316787D02*
X79884392Y-75126311D01*
X79884392Y-75126311D02*
X79884392Y-74983454D01*
X79884392Y-74983454D02*
X79932011Y-74792978D01*
X79932011Y-74792978D02*
X79979630Y-74697740D01*
X79979630Y-74697740D02*
X80074868Y-74602502D01*
X80074868Y-74602502D02*
X80217725Y-74554883D01*
X80217725Y-74554883D02*
X80312963Y-74554883D01*
X80312963Y-74554883D02*
X80455820Y-74602502D01*
X80455820Y-74602502D02*
X80503439Y-74650121D01*
X81455820Y-75554883D02*
X80884392Y-75554883D01*
X81170106Y-75554883D02*
X81170106Y-74554883D01*
X81170106Y-74554883D02*
X81074868Y-74697740D01*
X81074868Y-74697740D02*
X80979630Y-74792978D01*
X80979630Y-74792978D02*
X80884392Y-74840597D01*
X82074868Y-74554883D02*
X82170106Y-74554883D01*
X82170106Y-74554883D02*
X82265344Y-74602502D01*
X82265344Y-74602502D02*
X82312963Y-74650121D01*
X82312963Y-74650121D02*
X82360582Y-74745359D01*
X82360582Y-74745359D02*
X82408201Y-74935835D01*
X82408201Y-74935835D02*
X82408201Y-75173930D01*
X82408201Y-75173930D02*
X82360582Y-75364406D01*
X82360582Y-75364406D02*
X82312963Y-75459644D01*
X82312963Y-75459644D02*
X82265344Y-75507264D01*
X82265344Y-75507264D02*
X82170106Y-75554883D01*
X82170106Y-75554883D02*
X82074868Y-75554883D01*
X82074868Y-75554883D02*
X81979630Y-75507264D01*
X81979630Y-75507264D02*
X81932011Y-75459644D01*
X81932011Y-75459644D02*
X81884392Y-75364406D01*
X81884392Y-75364406D02*
X81836773Y-75173930D01*
X81836773Y-75173930D02*
X81836773Y-74935835D01*
X81836773Y-74935835D02*
X81884392Y-74745359D01*
X81884392Y-74745359D02*
X81932011Y-74650121D01*
X81932011Y-74650121D02*
X81979630Y-74602502D01*
X81979630Y-74602502D02*
X82074868Y-74554883D01*
X63538095Y-61454819D02*
X63538095Y-62264342D01*
X63538095Y-62264342D02*
X63585714Y-62359580D01*
X63585714Y-62359580D02*
X63633333Y-62407200D01*
X63633333Y-62407200D02*
X63728571Y-62454819D01*
X63728571Y-62454819D02*
X63919047Y-62454819D01*
X63919047Y-62454819D02*
X64014285Y-62407200D01*
X64014285Y-62407200D02*
X64061904Y-62359580D01*
X64061904Y-62359580D02*
X64109523Y-62264342D01*
X64109523Y-62264342D02*
X64109523Y-61454819D01*
X65014285Y-61788152D02*
X65014285Y-62454819D01*
X64776190Y-61407200D02*
X64538095Y-62121485D01*
X64538095Y-62121485D02*
X65157142Y-62121485D01*
X82666666Y-55433319D02*
X82666666Y-56147604D01*
X82666666Y-56147604D02*
X82619047Y-56290461D01*
X82619047Y-56290461D02*
X82523809Y-56385700D01*
X82523809Y-56385700D02*
X82380952Y-56433319D01*
X82380952Y-56433319D02*
X82285714Y-56433319D01*
X83666666Y-56433319D02*
X83095238Y-56433319D01*
X83380952Y-56433319D02*
X83380952Y-55433319D01*
X83380952Y-55433319D02*
X83285714Y-55576176D01*
X83285714Y-55576176D02*
X83190476Y-55671414D01*
X83190476Y-55671414D02*
X83095238Y-55719033D01*
X74033333Y-75929580D02*
X73985714Y-75977200D01*
X73985714Y-75977200D02*
X73842857Y-76024819D01*
X73842857Y-76024819D02*
X73747619Y-76024819D01*
X73747619Y-76024819D02*
X73604762Y-75977200D01*
X73604762Y-75977200D02*
X73509524Y-75881961D01*
X73509524Y-75881961D02*
X73461905Y-75786723D01*
X73461905Y-75786723D02*
X73414286Y-75596247D01*
X73414286Y-75596247D02*
X73414286Y-75453390D01*
X73414286Y-75453390D02*
X73461905Y-75262914D01*
X73461905Y-75262914D02*
X73509524Y-75167676D01*
X73509524Y-75167676D02*
X73604762Y-75072438D01*
X73604762Y-75072438D02*
X73747619Y-75024819D01*
X73747619Y-75024819D02*
X73842857Y-75024819D01*
X73842857Y-75024819D02*
X73985714Y-75072438D01*
X73985714Y-75072438D02*
X74033333Y-75120057D01*
X74985714Y-76024819D02*
X74414286Y-76024819D01*
X74700000Y-76024819D02*
X74700000Y-75024819D01*
X74700000Y-75024819D02*
X74604762Y-75167676D01*
X74604762Y-75167676D02*
X74509524Y-75262914D01*
X74509524Y-75262914D02*
X74414286Y-75310533D01*
X58533333Y-79759580D02*
X58485714Y-79807200D01*
X58485714Y-79807200D02*
X58342857Y-79854819D01*
X58342857Y-79854819D02*
X58247619Y-79854819D01*
X58247619Y-79854819D02*
X58104762Y-79807200D01*
X58104762Y-79807200D02*
X58009524Y-79711961D01*
X58009524Y-79711961D02*
X57961905Y-79616723D01*
X57961905Y-79616723D02*
X57914286Y-79426247D01*
X57914286Y-79426247D02*
X57914286Y-79283390D01*
X57914286Y-79283390D02*
X57961905Y-79092914D01*
X57961905Y-79092914D02*
X58009524Y-78997676D01*
X58009524Y-78997676D02*
X58104762Y-78902438D01*
X58104762Y-78902438D02*
X58247619Y-78854819D01*
X58247619Y-78854819D02*
X58342857Y-78854819D01*
X58342857Y-78854819D02*
X58485714Y-78902438D01*
X58485714Y-78902438D02*
X58533333Y-78950057D01*
X59390476Y-79188152D02*
X59390476Y-79854819D01*
X59152381Y-78807200D02*
X58914286Y-79521485D01*
X58914286Y-79521485D02*
X59533333Y-79521485D01*
X51438095Y-66754819D02*
X51438095Y-67564342D01*
X51438095Y-67564342D02*
X51485714Y-67659580D01*
X51485714Y-67659580D02*
X51533333Y-67707200D01*
X51533333Y-67707200D02*
X51628571Y-67754819D01*
X51628571Y-67754819D02*
X51819047Y-67754819D01*
X51819047Y-67754819D02*
X51914285Y-67707200D01*
X51914285Y-67707200D02*
X51961904Y-67659580D01*
X51961904Y-67659580D02*
X52009523Y-67564342D01*
X52009523Y-67564342D02*
X52009523Y-66754819D01*
X52390476Y-66754819D02*
X53009523Y-66754819D01*
X53009523Y-66754819D02*
X52676190Y-67135771D01*
X52676190Y-67135771D02*
X52819047Y-67135771D01*
X52819047Y-67135771D02*
X52914285Y-67183390D01*
X52914285Y-67183390D02*
X52961904Y-67231009D01*
X52961904Y-67231009D02*
X53009523Y-67326247D01*
X53009523Y-67326247D02*
X53009523Y-67564342D01*
X53009523Y-67564342D02*
X52961904Y-67659580D01*
X52961904Y-67659580D02*
X52914285Y-67707200D01*
X52914285Y-67707200D02*
X52819047Y-67754819D01*
X52819047Y-67754819D02*
X52533333Y-67754819D01*
X52533333Y-67754819D02*
X52438095Y-67707200D01*
X52438095Y-67707200D02*
X52390476Y-67659580D01*
X62133333Y-66554819D02*
X61800000Y-66078628D01*
X61561905Y-66554819D02*
X61561905Y-65554819D01*
X61561905Y-65554819D02*
X61942857Y-65554819D01*
X61942857Y-65554819D02*
X62038095Y-65602438D01*
X62038095Y-65602438D02*
X62085714Y-65650057D01*
X62085714Y-65650057D02*
X62133333Y-65745295D01*
X62133333Y-65745295D02*
X62133333Y-65888152D01*
X62133333Y-65888152D02*
X62085714Y-65983390D01*
X62085714Y-65983390D02*
X62038095Y-66031009D01*
X62038095Y-66031009D02*
X61942857Y-66078628D01*
X61942857Y-66078628D02*
X61561905Y-66078628D01*
X62466667Y-65554819D02*
X63085714Y-65554819D01*
X63085714Y-65554819D02*
X62752381Y-65935771D01*
X62752381Y-65935771D02*
X62895238Y-65935771D01*
X62895238Y-65935771D02*
X62990476Y-65983390D01*
X62990476Y-65983390D02*
X63038095Y-66031009D01*
X63038095Y-66031009D02*
X63085714Y-66126247D01*
X63085714Y-66126247D02*
X63085714Y-66364342D01*
X63085714Y-66364342D02*
X63038095Y-66459580D01*
X63038095Y-66459580D02*
X62990476Y-66507200D01*
X62990476Y-66507200D02*
X62895238Y-66554819D01*
X62895238Y-66554819D02*
X62609524Y-66554819D01*
X62609524Y-66554819D02*
X62514286Y-66507200D01*
X62514286Y-66507200D02*
X62466667Y-66459580D01*
X84333333Y-58554819D02*
X84000000Y-58078628D01*
X83761905Y-58554819D02*
X83761905Y-57554819D01*
X83761905Y-57554819D02*
X84142857Y-57554819D01*
X84142857Y-57554819D02*
X84238095Y-57602438D01*
X84238095Y-57602438D02*
X84285714Y-57650057D01*
X84285714Y-57650057D02*
X84333333Y-57745295D01*
X84333333Y-57745295D02*
X84333333Y-57888152D01*
X84333333Y-57888152D02*
X84285714Y-57983390D01*
X84285714Y-57983390D02*
X84238095Y-58031009D01*
X84238095Y-58031009D02*
X84142857Y-58078628D01*
X84142857Y-58078628D02*
X83761905Y-58078628D01*
X84904762Y-57983390D02*
X84809524Y-57935771D01*
X84809524Y-57935771D02*
X84761905Y-57888152D01*
X84761905Y-57888152D02*
X84714286Y-57792914D01*
X84714286Y-57792914D02*
X84714286Y-57745295D01*
X84714286Y-57745295D02*
X84761905Y-57650057D01*
X84761905Y-57650057D02*
X84809524Y-57602438D01*
X84809524Y-57602438D02*
X84904762Y-57554819D01*
X84904762Y-57554819D02*
X85095238Y-57554819D01*
X85095238Y-57554819D02*
X85190476Y-57602438D01*
X85190476Y-57602438D02*
X85238095Y-57650057D01*
X85238095Y-57650057D02*
X85285714Y-57745295D01*
X85285714Y-57745295D02*
X85285714Y-57792914D01*
X85285714Y-57792914D02*
X85238095Y-57888152D01*
X85238095Y-57888152D02*
X85190476Y-57935771D01*
X85190476Y-57935771D02*
X85095238Y-57983390D01*
X85095238Y-57983390D02*
X84904762Y-57983390D01*
X84904762Y-57983390D02*
X84809524Y-58031009D01*
X84809524Y-58031009D02*
X84761905Y-58078628D01*
X84761905Y-58078628D02*
X84714286Y-58173866D01*
X84714286Y-58173866D02*
X84714286Y-58364342D01*
X84714286Y-58364342D02*
X84761905Y-58459580D01*
X84761905Y-58459580D02*
X84809524Y-58507200D01*
X84809524Y-58507200D02*
X84904762Y-58554819D01*
X84904762Y-58554819D02*
X85095238Y-58554819D01*
X85095238Y-58554819D02*
X85190476Y-58507200D01*
X85190476Y-58507200D02*
X85238095Y-58459580D01*
X85238095Y-58459580D02*
X85285714Y-58364342D01*
X85285714Y-58364342D02*
X85285714Y-58173866D01*
X85285714Y-58173866D02*
X85238095Y-58078628D01*
X85238095Y-58078628D02*
X85190476Y-58031009D01*
X85190476Y-58031009D02*
X85095238Y-57983390D01*
X52133333Y-79159580D02*
X52085714Y-79207200D01*
X52085714Y-79207200D02*
X51942857Y-79254819D01*
X51942857Y-79254819D02*
X51847619Y-79254819D01*
X51847619Y-79254819D02*
X51704762Y-79207200D01*
X51704762Y-79207200D02*
X51609524Y-79111961D01*
X51609524Y-79111961D02*
X51561905Y-79016723D01*
X51561905Y-79016723D02*
X51514286Y-78826247D01*
X51514286Y-78826247D02*
X51514286Y-78683390D01*
X51514286Y-78683390D02*
X51561905Y-78492914D01*
X51561905Y-78492914D02*
X51609524Y-78397676D01*
X51609524Y-78397676D02*
X51704762Y-78302438D01*
X51704762Y-78302438D02*
X51847619Y-78254819D01*
X51847619Y-78254819D02*
X51942857Y-78254819D01*
X51942857Y-78254819D02*
X52085714Y-78302438D01*
X52085714Y-78302438D02*
X52133333Y-78350057D01*
X52466667Y-78254819D02*
X53085714Y-78254819D01*
X53085714Y-78254819D02*
X52752381Y-78635771D01*
X52752381Y-78635771D02*
X52895238Y-78635771D01*
X52895238Y-78635771D02*
X52990476Y-78683390D01*
X52990476Y-78683390D02*
X53038095Y-78731009D01*
X53038095Y-78731009D02*
X53085714Y-78826247D01*
X53085714Y-78826247D02*
X53085714Y-79064342D01*
X53085714Y-79064342D02*
X53038095Y-79159580D01*
X53038095Y-79159580D02*
X52990476Y-79207200D01*
X52990476Y-79207200D02*
X52895238Y-79254819D01*
X52895238Y-79254819D02*
X52609524Y-79254819D01*
X52609524Y-79254819D02*
X52514286Y-79207200D01*
X52514286Y-79207200D02*
X52466667Y-79159580D01*
X53833333Y-58354819D02*
X53500000Y-57878628D01*
X53261905Y-58354819D02*
X53261905Y-57354819D01*
X53261905Y-57354819D02*
X53642857Y-57354819D01*
X53642857Y-57354819D02*
X53738095Y-57402438D01*
X53738095Y-57402438D02*
X53785714Y-57450057D01*
X53785714Y-57450057D02*
X53833333Y-57545295D01*
X53833333Y-57545295D02*
X53833333Y-57688152D01*
X53833333Y-57688152D02*
X53785714Y-57783390D01*
X53785714Y-57783390D02*
X53738095Y-57831009D01*
X53738095Y-57831009D02*
X53642857Y-57878628D01*
X53642857Y-57878628D02*
X53261905Y-57878628D01*
X54309524Y-58354819D02*
X54500000Y-58354819D01*
X54500000Y-58354819D02*
X54595238Y-58307200D01*
X54595238Y-58307200D02*
X54642857Y-58259580D01*
X54642857Y-58259580D02*
X54738095Y-58116723D01*
X54738095Y-58116723D02*
X54785714Y-57926247D01*
X54785714Y-57926247D02*
X54785714Y-57545295D01*
X54785714Y-57545295D02*
X54738095Y-57450057D01*
X54738095Y-57450057D02*
X54690476Y-57402438D01*
X54690476Y-57402438D02*
X54595238Y-57354819D01*
X54595238Y-57354819D02*
X54404762Y-57354819D01*
X54404762Y-57354819D02*
X54309524Y-57402438D01*
X54309524Y-57402438D02*
X54261905Y-57450057D01*
X54261905Y-57450057D02*
X54214286Y-57545295D01*
X54214286Y-57545295D02*
X54214286Y-57783390D01*
X54214286Y-57783390D02*
X54261905Y-57878628D01*
X54261905Y-57878628D02*
X54309524Y-57926247D01*
X54309524Y-57926247D02*
X54404762Y-57973866D01*
X54404762Y-57973866D02*
X54595238Y-57973866D01*
X54595238Y-57973866D02*
X54690476Y-57926247D01*
X54690476Y-57926247D02*
X54738095Y-57878628D01*
X54738095Y-57878628D02*
X54785714Y-57783390D01*
X72040419Y-67757142D02*
X71992800Y-67709523D01*
X71992800Y-67709523D02*
X71945180Y-67566666D01*
X71945180Y-67566666D02*
X71945180Y-67471428D01*
X71945180Y-67471428D02*
X71992800Y-67328571D01*
X71992800Y-67328571D02*
X72088038Y-67233333D01*
X72088038Y-67233333D02*
X72183276Y-67185714D01*
X72183276Y-67185714D02*
X72373752Y-67138095D01*
X72373752Y-67138095D02*
X72516609Y-67138095D01*
X72516609Y-67138095D02*
X72707085Y-67185714D01*
X72707085Y-67185714D02*
X72802323Y-67233333D01*
X72802323Y-67233333D02*
X72897561Y-67328571D01*
X72897561Y-67328571D02*
X72945180Y-67471428D01*
X72945180Y-67471428D02*
X72945180Y-67566666D01*
X72945180Y-67566666D02*
X72897561Y-67709523D01*
X72897561Y-67709523D02*
X72849942Y-67757142D01*
X72849942Y-68138095D02*
X72897561Y-68185714D01*
X72897561Y-68185714D02*
X72945180Y-68280952D01*
X72945180Y-68280952D02*
X72945180Y-68519047D01*
X72945180Y-68519047D02*
X72897561Y-68614285D01*
X72897561Y-68614285D02*
X72849942Y-68661904D01*
X72849942Y-68661904D02*
X72754704Y-68709523D01*
X72754704Y-68709523D02*
X72659466Y-68709523D01*
X72659466Y-68709523D02*
X72516609Y-68661904D01*
X72516609Y-68661904D02*
X71945180Y-68090476D01*
X71945180Y-68090476D02*
X71945180Y-68709523D01*
X71945180Y-69661904D02*
X71945180Y-69090476D01*
X71945180Y-69376190D02*
X72945180Y-69376190D01*
X72945180Y-69376190D02*
X72802323Y-69280952D01*
X72802323Y-69280952D02*
X72707085Y-69185714D01*
X72707085Y-69185714D02*
X72659466Y-69090476D01*
X66133333Y-80159580D02*
X66085714Y-80207200D01*
X66085714Y-80207200D02*
X65942857Y-80254819D01*
X65942857Y-80254819D02*
X65847619Y-80254819D01*
X65847619Y-80254819D02*
X65704762Y-80207200D01*
X65704762Y-80207200D02*
X65609524Y-80111961D01*
X65609524Y-80111961D02*
X65561905Y-80016723D01*
X65561905Y-80016723D02*
X65514286Y-79826247D01*
X65514286Y-79826247D02*
X65514286Y-79683390D01*
X65514286Y-79683390D02*
X65561905Y-79492914D01*
X65561905Y-79492914D02*
X65609524Y-79397676D01*
X65609524Y-79397676D02*
X65704762Y-79302438D01*
X65704762Y-79302438D02*
X65847619Y-79254819D01*
X65847619Y-79254819D02*
X65942857Y-79254819D01*
X65942857Y-79254819D02*
X66085714Y-79302438D01*
X66085714Y-79302438D02*
X66133333Y-79350057D01*
X66514286Y-79350057D02*
X66561905Y-79302438D01*
X66561905Y-79302438D02*
X66657143Y-79254819D01*
X66657143Y-79254819D02*
X66895238Y-79254819D01*
X66895238Y-79254819D02*
X66990476Y-79302438D01*
X66990476Y-79302438D02*
X67038095Y-79350057D01*
X67038095Y-79350057D02*
X67085714Y-79445295D01*
X67085714Y-79445295D02*
X67085714Y-79540533D01*
X67085714Y-79540533D02*
X67038095Y-79683390D01*
X67038095Y-79683390D02*
X66466667Y-80254819D01*
X66466667Y-80254819D02*
X67085714Y-80254819D01*
X52459580Y-64145367D02*
X52507200Y-64192986D01*
X52507200Y-64192986D02*
X52554819Y-64335843D01*
X52554819Y-64335843D02*
X52554819Y-64431081D01*
X52554819Y-64431081D02*
X52507200Y-64573938D01*
X52507200Y-64573938D02*
X52411961Y-64669176D01*
X52411961Y-64669176D02*
X52316723Y-64716795D01*
X52316723Y-64716795D02*
X52126247Y-64764414D01*
X52126247Y-64764414D02*
X51983390Y-64764414D01*
X51983390Y-64764414D02*
X51792914Y-64716795D01*
X51792914Y-64716795D02*
X51697676Y-64669176D01*
X51697676Y-64669176D02*
X51602438Y-64573938D01*
X51602438Y-64573938D02*
X51554819Y-64431081D01*
X51554819Y-64431081D02*
X51554819Y-64335843D01*
X51554819Y-64335843D02*
X51602438Y-64192986D01*
X51602438Y-64192986D02*
X51650057Y-64145367D01*
X52554819Y-63192986D02*
X52554819Y-63764414D01*
X52554819Y-63478700D02*
X51554819Y-63478700D01*
X51554819Y-63478700D02*
X51697676Y-63573938D01*
X51697676Y-63573938D02*
X51792914Y-63669176D01*
X51792914Y-63669176D02*
X51840533Y-63764414D01*
X51888152Y-62335843D02*
X52554819Y-62335843D01*
X51507200Y-62573938D02*
X52221485Y-62812033D01*
X52221485Y-62812033D02*
X52221485Y-62192986D01*
X73132142Y-62809580D02*
X73084523Y-62857200D01*
X73084523Y-62857200D02*
X72941666Y-62904819D01*
X72941666Y-62904819D02*
X72846428Y-62904819D01*
X72846428Y-62904819D02*
X72703571Y-62857200D01*
X72703571Y-62857200D02*
X72608333Y-62761961D01*
X72608333Y-62761961D02*
X72560714Y-62666723D01*
X72560714Y-62666723D02*
X72513095Y-62476247D01*
X72513095Y-62476247D02*
X72513095Y-62333390D01*
X72513095Y-62333390D02*
X72560714Y-62142914D01*
X72560714Y-62142914D02*
X72608333Y-62047676D01*
X72608333Y-62047676D02*
X72703571Y-61952438D01*
X72703571Y-61952438D02*
X72846428Y-61904819D01*
X72846428Y-61904819D02*
X72941666Y-61904819D01*
X72941666Y-61904819D02*
X73084523Y-61952438D01*
X73084523Y-61952438D02*
X73132142Y-62000057D01*
X73513095Y-62000057D02*
X73560714Y-61952438D01*
X73560714Y-61952438D02*
X73655952Y-61904819D01*
X73655952Y-61904819D02*
X73894047Y-61904819D01*
X73894047Y-61904819D02*
X73989285Y-61952438D01*
X73989285Y-61952438D02*
X74036904Y-62000057D01*
X74036904Y-62000057D02*
X74084523Y-62095295D01*
X74084523Y-62095295D02*
X74084523Y-62190533D01*
X74084523Y-62190533D02*
X74036904Y-62333390D01*
X74036904Y-62333390D02*
X73465476Y-62904819D01*
X73465476Y-62904819D02*
X74084523Y-62904819D01*
X74703571Y-61904819D02*
X74798809Y-61904819D01*
X74798809Y-61904819D02*
X74894047Y-61952438D01*
X74894047Y-61952438D02*
X74941666Y-62000057D01*
X74941666Y-62000057D02*
X74989285Y-62095295D01*
X74989285Y-62095295D02*
X75036904Y-62285771D01*
X75036904Y-62285771D02*
X75036904Y-62523866D01*
X75036904Y-62523866D02*
X74989285Y-62714342D01*
X74989285Y-62714342D02*
X74941666Y-62809580D01*
X74941666Y-62809580D02*
X74894047Y-62857200D01*
X74894047Y-62857200D02*
X74798809Y-62904819D01*
X74798809Y-62904819D02*
X74703571Y-62904819D01*
X74703571Y-62904819D02*
X74608333Y-62857200D01*
X74608333Y-62857200D02*
X74560714Y-62809580D01*
X74560714Y-62809580D02*
X74513095Y-62714342D01*
X74513095Y-62714342D02*
X74465476Y-62523866D01*
X74465476Y-62523866D02*
X74465476Y-62285771D01*
X74465476Y-62285771D02*
X74513095Y-62095295D01*
X74513095Y-62095295D02*
X74560714Y-62000057D01*
X74560714Y-62000057D02*
X74608333Y-61952438D01*
X74608333Y-61952438D02*
X74703571Y-61904819D01*
X57233333Y-61954819D02*
X56900000Y-61478628D01*
X56661905Y-61954819D02*
X56661905Y-60954819D01*
X56661905Y-60954819D02*
X57042857Y-60954819D01*
X57042857Y-60954819D02*
X57138095Y-61002438D01*
X57138095Y-61002438D02*
X57185714Y-61050057D01*
X57185714Y-61050057D02*
X57233333Y-61145295D01*
X57233333Y-61145295D02*
X57233333Y-61288152D01*
X57233333Y-61288152D02*
X57185714Y-61383390D01*
X57185714Y-61383390D02*
X57138095Y-61431009D01*
X57138095Y-61431009D02*
X57042857Y-61478628D01*
X57042857Y-61478628D02*
X56661905Y-61478628D01*
X58090476Y-60954819D02*
X57900000Y-60954819D01*
X57900000Y-60954819D02*
X57804762Y-61002438D01*
X57804762Y-61002438D02*
X57757143Y-61050057D01*
X57757143Y-61050057D02*
X57661905Y-61192914D01*
X57661905Y-61192914D02*
X57614286Y-61383390D01*
X57614286Y-61383390D02*
X57614286Y-61764342D01*
X57614286Y-61764342D02*
X57661905Y-61859580D01*
X57661905Y-61859580D02*
X57709524Y-61907200D01*
X57709524Y-61907200D02*
X57804762Y-61954819D01*
X57804762Y-61954819D02*
X57995238Y-61954819D01*
X57995238Y-61954819D02*
X58090476Y-61907200D01*
X58090476Y-61907200D02*
X58138095Y-61859580D01*
X58138095Y-61859580D02*
X58185714Y-61764342D01*
X58185714Y-61764342D02*
X58185714Y-61526247D01*
X58185714Y-61526247D02*
X58138095Y-61431009D01*
X58138095Y-61431009D02*
X58090476Y-61383390D01*
X58090476Y-61383390D02*
X57995238Y-61335771D01*
X57995238Y-61335771D02*
X57804762Y-61335771D01*
X57804762Y-61335771D02*
X57709524Y-61383390D01*
X57709524Y-61383390D02*
X57661905Y-61431009D01*
X57661905Y-61431009D02*
X57614286Y-61526247D01*
X66938095Y-62454819D02*
X66938095Y-63264342D01*
X66938095Y-63264342D02*
X66985714Y-63359580D01*
X66985714Y-63359580D02*
X67033333Y-63407200D01*
X67033333Y-63407200D02*
X67128571Y-63454819D01*
X67128571Y-63454819D02*
X67319047Y-63454819D01*
X67319047Y-63454819D02*
X67414285Y-63407200D01*
X67414285Y-63407200D02*
X67461904Y-63359580D01*
X67461904Y-63359580D02*
X67509523Y-63264342D01*
X67509523Y-63264342D02*
X67509523Y-62454819D01*
X68461904Y-62454819D02*
X67985714Y-62454819D01*
X67985714Y-62454819D02*
X67938095Y-62931009D01*
X67938095Y-62931009D02*
X67985714Y-62883390D01*
X67985714Y-62883390D02*
X68080952Y-62835771D01*
X68080952Y-62835771D02*
X68319047Y-62835771D01*
X68319047Y-62835771D02*
X68414285Y-62883390D01*
X68414285Y-62883390D02*
X68461904Y-62931009D01*
X68461904Y-62931009D02*
X68509523Y-63026247D01*
X68509523Y-63026247D02*
X68509523Y-63264342D01*
X68509523Y-63264342D02*
X68461904Y-63359580D01*
X68461904Y-63359580D02*
X68414285Y-63407200D01*
X68414285Y-63407200D02*
X68319047Y-63454819D01*
X68319047Y-63454819D02*
X68080952Y-63454819D01*
X68080952Y-63454819D02*
X67985714Y-63407200D01*
X67985714Y-63407200D02*
X67938095Y-63359580D01*
X53666666Y-55433319D02*
X53666666Y-56147604D01*
X53666666Y-56147604D02*
X53619047Y-56290461D01*
X53619047Y-56290461D02*
X53523809Y-56385700D01*
X53523809Y-56385700D02*
X53380952Y-56433319D01*
X53380952Y-56433319D02*
X53285714Y-56433319D01*
X54095238Y-55528557D02*
X54142857Y-55480938D01*
X54142857Y-55480938D02*
X54238095Y-55433319D01*
X54238095Y-55433319D02*
X54476190Y-55433319D01*
X54476190Y-55433319D02*
X54571428Y-55480938D01*
X54571428Y-55480938D02*
X54619047Y-55528557D01*
X54619047Y-55528557D02*
X54666666Y-55623795D01*
X54666666Y-55623795D02*
X54666666Y-55719033D01*
X54666666Y-55719033D02*
X54619047Y-55861890D01*
X54619047Y-55861890D02*
X54047619Y-56433319D01*
X54047619Y-56433319D02*
X54666666Y-56433319D01*
X61138095Y-79254819D02*
X61138095Y-80064342D01*
X61138095Y-80064342D02*
X61185714Y-80159580D01*
X61185714Y-80159580D02*
X61233333Y-80207200D01*
X61233333Y-80207200D02*
X61328571Y-80254819D01*
X61328571Y-80254819D02*
X61519047Y-80254819D01*
X61519047Y-80254819D02*
X61614285Y-80207200D01*
X61614285Y-80207200D02*
X61661904Y-80159580D01*
X61661904Y-80159580D02*
X61709523Y-80064342D01*
X61709523Y-80064342D02*
X61709523Y-79254819D01*
X62709523Y-80254819D02*
X62138095Y-80254819D01*
X62423809Y-80254819D02*
X62423809Y-79254819D01*
X62423809Y-79254819D02*
X62328571Y-79397676D01*
X62328571Y-79397676D02*
X62233333Y-79492914D01*
X62233333Y-79492914D02*
X62138095Y-79540533D01*
%TO.C,J3*%
D11*
X73810000Y-54200000D02*
X73810000Y-46900000D01*
X73190000Y-54200000D02*
X73800000Y-54200000D01*
X70590000Y-54200000D02*
X71900000Y-54200000D01*
X68490000Y-54200000D02*
X69400000Y-54200000D01*
X66190000Y-54200000D02*
X66500000Y-54200000D01*
X66190000Y-54200000D02*
X66190000Y-46900000D01*
X66190000Y-46900000D02*
X73810000Y-46900000D01*
%TO.C,C15*%
D12*
X59665000Y-63238748D02*
X59665000Y-63761252D01*
X61135000Y-63238748D02*
X61135000Y-63761252D01*
%TO.C,R5*%
X81846359Y-68720000D02*
X82153641Y-68720000D01*
X81846359Y-69480000D02*
X82153641Y-69480000D01*
%TO.C,D1*%
D13*
X73000000Y-77000000D02*
G75*
G02*
X67000000Y-77000000I-3000000J0D01*
G01*
X67000000Y-77000000D02*
G75*
G02*
X73000000Y-77000000I3000000J0D01*
G01*
%TO.C,C23*%
D12*
X71781491Y-56715656D02*
X71781491Y-56996816D01*
X72801491Y-56715656D02*
X72801491Y-56996816D01*
%TO.C,C7*%
X59540000Y-70307836D02*
X59540000Y-70092164D01*
X60260000Y-70307836D02*
X60260000Y-70092164D01*
%TO.C,C11*%
X77711297Y-74361316D02*
X77711297Y-73838812D01*
X79181297Y-74361316D02*
X79181297Y-73838812D01*
%TO.C,C19*%
X69090000Y-65159420D02*
X69090000Y-65440580D01*
X70110000Y-65159420D02*
X70110000Y-65440580D01*
%TO.C,C22*%
X77059420Y-53490000D02*
X77340580Y-53490000D01*
X77059420Y-54510000D02*
X77340580Y-54510000D01*
%TO.C,R1*%
X64320000Y-77963641D02*
X64320000Y-77656359D01*
X65080000Y-77963641D02*
X65080000Y-77656359D01*
%TO.C,C8*%
X85340000Y-70692164D02*
X85340000Y-70907836D01*
X86060000Y-70692164D02*
X86060000Y-70907836D01*
%TO.C,C9*%
X82868669Y-66414936D02*
X82346165Y-66414936D01*
X82868669Y-67884936D02*
X82346165Y-67884936D01*
%TO.C,U2*%
D14*
X81323825Y-70223749D02*
X81323876Y-70605182D01*
X81323825Y-70223749D02*
X84476378Y-70223800D01*
X81323876Y-73376276D02*
X81323851Y-72994844D01*
X84476353Y-73376276D02*
X81323876Y-73376276D01*
X84476353Y-73376276D02*
X84476353Y-72994869D01*
X84476378Y-70223800D02*
X84476378Y-70605207D01*
%TO.C,R11*%
D12*
X75220000Y-77653641D02*
X75220000Y-77346359D01*
X75980000Y-77653641D02*
X75980000Y-77346359D01*
%TO.C,C12*%
X56212164Y-71540000D02*
X56427836Y-71540000D01*
X56212164Y-72260000D02*
X56427836Y-72260000D01*
%TO.C,C18*%
X61790000Y-61840580D02*
X61790000Y-61559420D01*
X62810000Y-61840580D02*
X62810000Y-61559420D01*
%TO.C,C16*%
X61790000Y-56709420D02*
X61790000Y-56990580D01*
X62810000Y-56709420D02*
X62810000Y-56990580D01*
%TO.C,R10*%
X75220000Y-75553641D02*
X75220000Y-75246359D01*
X75980000Y-75553641D02*
X75980000Y-75246359D01*
%TO.C,U6*%
D14*
X73773940Y-65412421D02*
X73773940Y-68064796D01*
X73773940Y-68064796D02*
X74922758Y-68064796D01*
X78426314Y-65412421D02*
X78426314Y-68064796D01*
X78426314Y-68059716D02*
X77277496Y-68059716D01*
%TO.C,R4*%
D12*
X79546359Y-70020000D02*
X79853641Y-70020000D01*
X79546359Y-70780000D02*
X79853641Y-70780000D01*
%TO.C,U7*%
D14*
X73773940Y-57012421D02*
X73773940Y-59664796D01*
X73773940Y-59664796D02*
X74922758Y-59664796D01*
X78426314Y-57012421D02*
X78426314Y-59664796D01*
X78426314Y-59659716D02*
X77277496Y-59659716D01*
%TO.C,C17*%
D12*
X69081491Y-56715656D02*
X69081491Y-56996816D01*
X70101491Y-56715656D02*
X70101491Y-56996816D01*
%TO.C,R2*%
X65353641Y-75819949D02*
X65046359Y-75819949D01*
X65353641Y-76579949D02*
X65046359Y-76579949D01*
%TO.C,C6*%
X58740000Y-75692164D02*
X58740000Y-75907836D01*
X59460000Y-75692164D02*
X59460000Y-75907836D01*
%TO.C,C5*%
X55665000Y-75861252D02*
X55665000Y-75338748D01*
X57135000Y-75861252D02*
X57135000Y-75338748D01*
%TO.C,C13*%
X53465000Y-72838748D02*
X53465000Y-73361252D01*
X54935000Y-72838748D02*
X54935000Y-73361252D01*
%TO.C,R7*%
X55553641Y-61020000D02*
X55246359Y-61020000D01*
X55553641Y-61780000D02*
X55246359Y-61780000D01*
%TO.C,C10*%
X79886297Y-73387900D02*
X79886297Y-73172228D01*
X80606297Y-73387900D02*
X80606297Y-73172228D01*
%TO.C,U4*%
D14*
X63673940Y-57012421D02*
X63673940Y-59664796D01*
X63673940Y-59664796D02*
X64822758Y-59664796D01*
X68326314Y-57012421D02*
X68326314Y-59664796D01*
X68326314Y-59659716D02*
X67177496Y-59659716D01*
%TO.C,J1*%
D15*
X81249962Y-48486995D02*
X81249962Y-49986995D01*
X81249962Y-49986995D02*
X87674981Y-49986995D01*
X81806172Y-39096241D02*
X87161138Y-37942418D01*
X81806172Y-40275540D02*
X87161138Y-39121717D01*
X81806172Y-41418542D02*
X87161138Y-40264719D01*
X81806172Y-42634112D02*
X87161138Y-41480290D01*
X81806172Y-43813411D02*
X87161138Y-42659589D01*
X81806172Y-44967869D02*
X87161138Y-43814046D01*
X81806172Y-46130912D02*
X87161138Y-44977089D01*
X81806172Y-47304674D02*
X87161138Y-46150851D01*
X81820015Y-48486995D02*
X87174981Y-47333172D01*
X81824968Y-36486970D02*
X81824968Y-48486995D01*
X84499975Y-49986995D02*
X84499975Y-48486995D01*
X87161138Y-37942418D02*
X81811125Y-37932995D01*
X87161138Y-39121717D02*
X81811125Y-39112294D01*
X87161138Y-40264719D02*
X81811125Y-40255296D01*
X87161138Y-41480290D02*
X81811125Y-41470866D01*
X87161138Y-42659589D02*
X81811125Y-42650165D01*
X87161138Y-43814046D02*
X81811125Y-43804623D01*
X87161138Y-44977089D02*
X81811125Y-44967666D01*
X87161138Y-46150851D02*
X81811125Y-46141427D01*
X87174981Y-36486970D02*
X81824968Y-36486970D01*
X87174981Y-36486970D02*
X87174981Y-48486995D01*
X87174981Y-47333172D02*
X81824968Y-47323749D01*
X87749987Y-48486995D02*
X81249962Y-48486995D01*
X87749987Y-48486995D02*
X87749987Y-49986995D01*
%TO.C,C1*%
D12*
X73840000Y-77372164D02*
X73840000Y-77587836D01*
X74560000Y-77372164D02*
X74560000Y-77587836D01*
%TO.C,C4*%
X58807836Y-77640000D02*
X58592164Y-77640000D01*
X58807836Y-78360000D02*
X58592164Y-78360000D01*
%TO.C,U3*%
D14*
X53673787Y-65900000D02*
X58726213Y-65900000D01*
X53673787Y-68700000D02*
X53673787Y-65900000D01*
X58726213Y-65900000D02*
X58726213Y-68700000D01*
X58726213Y-68700000D02*
X53673787Y-68700000D01*
D16*
X58255118Y-66530886D02*
G75*
G02*
X57954890Y-66530886I-150114J0D01*
G01*
X57954890Y-66530886D02*
G75*
G02*
X58255118Y-66530886I150114J0D01*
G01*
%TO.C,R3*%
D12*
X60156359Y-65720000D02*
X60463641Y-65720000D01*
X60156359Y-66480000D02*
X60463641Y-66480000D01*
%TO.C,R8*%
X84120000Y-60153641D02*
X84120000Y-59846359D01*
X84880000Y-60153641D02*
X84880000Y-59846359D01*
%TO.C,C3*%
X55461252Y-78065000D02*
X54938748Y-78065000D01*
X55461252Y-79535000D02*
X54938748Y-79535000D01*
%TO.C,R9*%
X55120000Y-58053641D02*
X55120000Y-57746359D01*
X55880000Y-58053641D02*
X55880000Y-57746359D01*
%TO.C,C21*%
X71890000Y-65159420D02*
X71890000Y-65440580D01*
X72910000Y-65159420D02*
X72910000Y-65440580D01*
%TO.C,C2*%
X65540000Y-77887836D02*
X65540000Y-77672164D01*
X66260000Y-77887836D02*
X66260000Y-77672164D01*
%TO.C,C14*%
X53712164Y-62340000D02*
X53927836Y-62340000D01*
X53712164Y-63060000D02*
X53927836Y-63060000D01*
%TO.C,C20*%
X76734420Y-61940000D02*
X77015580Y-61940000D01*
X76734420Y-62960000D02*
X77015580Y-62960000D01*
%TO.C,R6*%
X57563641Y-62322510D02*
X57256359Y-62322510D01*
X57563641Y-63082510D02*
X57256359Y-63082510D01*
%TO.C,U5*%
D14*
X63673686Y-65397511D02*
X63673686Y-68049886D01*
X63673686Y-68049886D02*
X64822504Y-68049886D01*
X68326060Y-65397511D02*
X68326060Y-68049886D01*
X68326060Y-68049886D02*
X67177242Y-68049886D01*
%TO.C,J2*%
D15*
X52249962Y-48486995D02*
X52249962Y-49986995D01*
X52249962Y-49986995D02*
X58674981Y-49986995D01*
X52806172Y-39096241D02*
X58161138Y-37942418D01*
X52806172Y-40275540D02*
X58161138Y-39121717D01*
X52806172Y-41418542D02*
X58161138Y-40264719D01*
X52806172Y-42634112D02*
X58161138Y-41480290D01*
X52806172Y-43813411D02*
X58161138Y-42659589D01*
X52806172Y-44967869D02*
X58161138Y-43814046D01*
X52806172Y-46130912D02*
X58161138Y-44977089D01*
X52806172Y-47304674D02*
X58161138Y-46150851D01*
X52820015Y-48486995D02*
X58174981Y-47333172D01*
X52824968Y-36486970D02*
X52824968Y-48486995D01*
X55499975Y-49986995D02*
X55499975Y-48486995D01*
X58161138Y-37942418D02*
X52811125Y-37932995D01*
X58161138Y-39121717D02*
X52811125Y-39112294D01*
X58161138Y-40264719D02*
X52811125Y-40255296D01*
X58161138Y-41480290D02*
X52811125Y-41470866D01*
X58161138Y-42659589D02*
X52811125Y-42650165D01*
X58161138Y-43814046D02*
X52811125Y-43804623D01*
X58161138Y-44977089D02*
X52811125Y-44967666D01*
X58161138Y-46150851D02*
X52811125Y-46141427D01*
X58174981Y-36486970D02*
X52824968Y-36486970D01*
X58174981Y-36486970D02*
X58174981Y-48486995D01*
X58174981Y-47333172D02*
X52824968Y-47323749D01*
X58749987Y-48486995D02*
X52249962Y-48486995D01*
X58749987Y-48486995D02*
X58749987Y-49986995D01*
%TO.C,U1*%
D14*
X60307378Y-75423698D02*
X60307378Y-75805156D01*
X60307378Y-75423698D02*
X63459880Y-75423698D01*
X60307378Y-78576200D02*
X60307378Y-78194767D01*
X63459880Y-75423698D02*
X63459880Y-75805156D01*
X63459880Y-78576200D02*
X60307378Y-78576200D01*
X63459880Y-78576200D02*
X63459880Y-78194767D01*
%TD*%
%LPC*%
D17*
%TO.C,J3*%
X72540000Y-53400000D03*
X70000000Y-53400000D03*
D18*
X67460000Y-53400000D03*
%TD*%
D19*
%TO.C,C15*%
X60400000Y-62550000D03*
X60400000Y-64450000D03*
%TD*%
D20*
%TO.C,R5*%
X81490000Y-69100000D03*
X82510000Y-69100000D03*
%TD*%
D21*
%TO.C,D1*%
X71270000Y-77000000D03*
X70000000Y-75730000D03*
X68730000Y-77000000D03*
%TD*%
D22*
%TO.C,C23*%
X72291491Y-56081236D03*
X72291491Y-57631236D03*
%TD*%
D23*
%TO.C,C7*%
X59900000Y-70680000D03*
X59900000Y-69720000D03*
%TD*%
D24*
%TO.C,C11*%
X78446297Y-75050064D03*
X78446297Y-73150064D03*
%TD*%
D22*
%TO.C,C19*%
X69600000Y-64525000D03*
X69600000Y-66075000D03*
%TD*%
D25*
%TO.C,C22*%
X76425000Y-54000000D03*
X77975000Y-54000000D03*
%TD*%
D26*
%TO.C,R1*%
X64700000Y-78320000D03*
X64700000Y-77300000D03*
%TD*%
D27*
%TO.C,C8*%
X85700000Y-70320000D03*
X85700000Y-71280000D03*
%TD*%
D28*
%TO.C,C9*%
X83557417Y-67149936D03*
X81657417Y-67149936D03*
%TD*%
D29*
%TO.C,U2*%
X81492583Y-71049936D03*
X81492583Y-71550064D03*
X81492583Y-72049936D03*
X81492583Y-72550064D03*
X84307417Y-72550064D03*
X84307417Y-72049936D03*
X84307417Y-71550064D03*
X84307417Y-71049936D03*
D30*
X82900000Y-71800000D03*
%TD*%
D26*
%TO.C,R11*%
X75600000Y-78010000D03*
X75600000Y-76990000D03*
%TD*%
D31*
%TO.C,C12*%
X55840000Y-71900000D03*
X56800000Y-71900000D03*
%TD*%
D32*
%TO.C,C18*%
X62300000Y-62475000D03*
X62300000Y-60925000D03*
%TD*%
D22*
%TO.C,C16*%
X62300000Y-56075000D03*
X62300000Y-57625000D03*
%TD*%
D26*
%TO.C,R10*%
X75600000Y-75910000D03*
X75600000Y-74890000D03*
%TD*%
D33*
%TO.C,U6*%
X77600000Y-64743764D03*
D34*
X76091491Y-67456236D03*
D33*
X74600000Y-64743764D03*
%TD*%
D20*
%TO.C,R4*%
X79190000Y-70400000D03*
X80210000Y-70400000D03*
%TD*%
D33*
%TO.C,U7*%
X77600000Y-56343764D03*
D34*
X76091491Y-59056236D03*
D33*
X74600000Y-56343764D03*
%TD*%
D22*
%TO.C,C17*%
X69591491Y-56081236D03*
X69591491Y-57631236D03*
%TD*%
D35*
%TO.C,R2*%
X65710000Y-76199949D03*
X64690000Y-76199949D03*
%TD*%
D27*
%TO.C,C6*%
X59100000Y-75320000D03*
X59100000Y-76280000D03*
%TD*%
D24*
%TO.C,C5*%
X56400000Y-76550000D03*
X56400000Y-74650000D03*
%TD*%
D19*
%TO.C,C13*%
X54200000Y-72150000D03*
X54200000Y-74050000D03*
%TD*%
D35*
%TO.C,R7*%
X55910000Y-61400000D03*
X54890000Y-61400000D03*
%TD*%
D23*
%TO.C,C10*%
X80246297Y-73760064D03*
X80246297Y-72800064D03*
%TD*%
D33*
%TO.C,U4*%
X67500000Y-56343764D03*
D34*
X65991491Y-59056236D03*
D33*
X64500000Y-56343764D03*
%TD*%
D36*
%TO.C,J1*%
X81949962Y-52400000D03*
X87050038Y-52400000D03*
X84499873Y-52400000D03*
%TD*%
D27*
%TO.C,C1*%
X74200000Y-77000000D03*
X74200000Y-77960000D03*
%TD*%
D37*
%TO.C,C4*%
X59180000Y-78000000D03*
X58220000Y-78000000D03*
%TD*%
D38*
%TO.C,U3*%
X58105004Y-64730023D03*
X56835001Y-64730023D03*
X55564999Y-64730023D03*
X54294996Y-64730023D03*
X54294996Y-69869977D03*
X55564999Y-69869977D03*
X56835001Y-69869977D03*
X58105004Y-69869977D03*
%TD*%
D20*
%TO.C,R3*%
X59800000Y-66100000D03*
X60820000Y-66100000D03*
%TD*%
D26*
%TO.C,R8*%
X84500000Y-60510000D03*
X84500000Y-59490000D03*
%TD*%
D28*
%TO.C,C3*%
X56150000Y-78800000D03*
X54250000Y-78800000D03*
%TD*%
D26*
%TO.C,R9*%
X55500000Y-58410000D03*
X55500000Y-57390000D03*
%TD*%
D22*
%TO.C,C21*%
X72400000Y-64525000D03*
X72400000Y-66075000D03*
%TD*%
D23*
%TO.C,C2*%
X65900000Y-78260000D03*
X65900000Y-77300000D03*
%TD*%
D31*
%TO.C,C14*%
X53340000Y-62700000D03*
X54300000Y-62700000D03*
%TD*%
D25*
%TO.C,C20*%
X76100000Y-62450000D03*
X77650000Y-62450000D03*
%TD*%
D35*
%TO.C,R6*%
X57920000Y-62702510D03*
X56900000Y-62702510D03*
%TD*%
D33*
%TO.C,U5*%
X67500000Y-64743764D03*
D39*
X66000127Y-67456236D03*
D33*
X64500000Y-64743764D03*
%TD*%
D36*
%TO.C,J2*%
X52949962Y-52400000D03*
X58050038Y-52400000D03*
X55499873Y-52400000D03*
%TD*%
D29*
%TO.C,U1*%
X63291147Y-77750063D03*
X63291147Y-77249936D03*
X63291147Y-76750063D03*
X63291147Y-76249936D03*
X60476314Y-76249936D03*
X60476314Y-76750063D03*
X60476314Y-77249936D03*
X60476314Y-77750063D03*
D40*
X61883731Y-77000000D03*
%TD*%
%LPD*%
M02*
