M48
; DRILL file KiCad 10.0.3 date 2026-07-29T13:03:51
; FORMAT={-:-/ absolute / inch / decimal}
; #@! TF.CreationDate,2026-07-29T13:03:51+08:00
; #@! TF.GenerationSoftware,Kicad,Pcbnew,10.0.3
; #@! TF.FileFunction,Plated,1,4,PTH
FMAT,2
INCH
; #@! TA.AperFunction,Plated,PTH,ViaDrill
T1C0.0118
; #@! TA.AperFunction,Plated,PTH,ViaDrill
T2C0.0157
; #@! TA.AperFunction,Plated,PTH,ComponentDrill
T3C0.0236
; #@! TA.AperFunction,Plated,PTH,ViaDrill
T4C0.0315
; #@! TA.AperFunction,Plated,PTH,ComponentDrill
T5C0.0402
%
G90
G05
T1
X2.0748Y-3.0984
X2.0846Y-2.1831
X2.0921Y-2.5102
X2.1693Y-2.9134
X2.189Y-3.0197
X2.2598Y-2.8386
X2.2648Y-3.0698
X2.2724Y-2.4332
X2.2854Y-2.1831
X2.3268Y-2.9409
X2.374Y-2.4252
X2.3898Y-2.6417
X2.4213Y-2.937
X2.4213Y-2.9724
X2.4213Y-3.0
X2.4213Y-3.0315
X2.4213Y-3.0591
X2.4213Y-3.0905
X2.4528Y-2.3187
X2.4528Y-2.937
X2.4528Y-2.9724
X2.4528Y-3.0
X2.4528Y-3.0315
X2.4528Y-3.0591
X2.4528Y-3.0905
X2.4528Y-2.3533
X2.4843Y-2.937
X2.4843Y-2.9724
X2.4843Y-3.0905
X2.7402Y-2.6471
X2.7441Y-2.3187
X2.8465Y-2.3189
X2.8504Y-2.7244
X2.9961Y-3.0327
X3.087Y-2.7717
X3.0924Y-3.0
X3.1142Y-2.2183
X3.1201Y-2.4587
X3.1203Y-2.549
X3.123Y-2.126
X3.1632Y-2.937
X3.1656Y-2.6437
X3.2103Y-2.8858
X3.2103Y-2.9232
X3.2264Y-2.1783
X3.2486Y-2.8857
X3.2486Y-2.9231
X3.2497Y-2.7677
X3.2497Y-2.8071
X3.2497Y-2.8465
X3.2877Y-2.8858
X3.2877Y-2.9232
X3.2891Y-2.8465
X3.2892Y-2.7677
X3.2892Y-2.8067
X3.3231Y-2.7343
X3.3284Y-2.8858
X3.3284Y-2.9232
X3.3976Y-2.8071
X3.4272Y-2.1783
T2
X2.0748Y-2.8386
X2.1772Y-2.4764
X2.2283Y-2.8898
X2.4528Y-2.8898
X2.4547Y-2.5413
X3.0217Y-2.9331
X3.2936Y-2.5844
X3.3661Y-2.7402
T3
X2.7059Y-3.0315
X2.7559Y-2.9815
X2.8059Y-3.0315
T4
X2.5984Y-2.4606
X2.7402Y-2.4606
X2.7953Y-2.6929
X2.9055Y-2.4587
X2.9055Y-2.6909
T5
X2.6559Y-2.1024
X2.7559Y-2.1024
X2.8559Y-2.1024
M30
