%TF.GenerationSoftware,KiCad,Pcbnew,10.0.3*%
%TF.CreationDate,2026-07-29T13:03:51+08:00*%
%TF.ProjectId,Si_General_PD_v0.1,53695f47-656e-4657-9261-6c5f50445f76,rev?*%
%TF.SameCoordinates,Original*%
%TF.FileFunction,Legend,Bot*%
%TF.FilePolarity,Positive*%
%FSLAX46Y46*%
G04 Gerber Fmt 4.6, Leading zero omitted, Abs format (unit mm)*
G04 Created by KiCad (PCBNEW 10.0.3) date 2026-07-29 13:03:51*
%MOMM*%
%LPD*%
G01*
G04 APERTURE LIST*
%ADD10C,0.150000*%
%ADD11C,0.000000*%
%ADD12C,1.312000*%
%ADD13R,1.300000X4.500000*%
%ADD14R,1.600000X1.600000*%
%ADD15C,1.600000*%
G04 APERTURE END LIST*
D10*
X86710839Y-56992200D02*
X86567982Y-57039819D01*
X86567982Y-57039819D02*
X86329887Y-57039819D01*
X86329887Y-57039819D02*
X86234649Y-56992200D01*
X86234649Y-56992200D02*
X86187030Y-56944580D01*
X86187030Y-56944580D02*
X86139411Y-56849342D01*
X86139411Y-56849342D02*
X86139411Y-56754104D01*
X86139411Y-56754104D02*
X86187030Y-56658866D01*
X86187030Y-56658866D02*
X86234649Y-56611247D01*
X86234649Y-56611247D02*
X86329887Y-56563628D01*
X86329887Y-56563628D02*
X86520363Y-56516009D01*
X86520363Y-56516009D02*
X86615601Y-56468390D01*
X86615601Y-56468390D02*
X86663220Y-56420771D01*
X86663220Y-56420771D02*
X86710839Y-56325533D01*
X86710839Y-56325533D02*
X86710839Y-56230295D01*
X86710839Y-56230295D02*
X86663220Y-56135057D01*
X86663220Y-56135057D02*
X86615601Y-56087438D01*
X86615601Y-56087438D02*
X86520363Y-56039819D01*
X86520363Y-56039819D02*
X86282268Y-56039819D01*
X86282268Y-56039819D02*
X86139411Y-56087438D01*
X85710839Y-57039819D02*
X85710839Y-56373152D01*
X85710839Y-56039819D02*
X85758458Y-56087438D01*
X85758458Y-56087438D02*
X85710839Y-56135057D01*
X85710839Y-56135057D02*
X85663220Y-56087438D01*
X85663220Y-56087438D02*
X85710839Y-56039819D01*
X85710839Y-56039819D02*
X85710839Y-56135057D01*
X85091792Y-57039819D02*
X85187030Y-56992200D01*
X85187030Y-56992200D02*
X85234649Y-56896961D01*
X85234649Y-56896961D02*
X85234649Y-56039819D01*
X84710839Y-57039819D02*
X84710839Y-56373152D01*
X84710839Y-56039819D02*
X84758458Y-56087438D01*
X84758458Y-56087438D02*
X84710839Y-56135057D01*
X84710839Y-56135057D02*
X84663220Y-56087438D01*
X84663220Y-56087438D02*
X84710839Y-56039819D01*
X84710839Y-56039819D02*
X84710839Y-56135057D01*
X83806078Y-56992200D02*
X83901316Y-57039819D01*
X83901316Y-57039819D02*
X84091792Y-57039819D01*
X84091792Y-57039819D02*
X84187030Y-56992200D01*
X84187030Y-56992200D02*
X84234649Y-56944580D01*
X84234649Y-56944580D02*
X84282268Y-56849342D01*
X84282268Y-56849342D02*
X84282268Y-56563628D01*
X84282268Y-56563628D02*
X84234649Y-56468390D01*
X84234649Y-56468390D02*
X84187030Y-56420771D01*
X84187030Y-56420771D02*
X84091792Y-56373152D01*
X84091792Y-56373152D02*
X83901316Y-56373152D01*
X83901316Y-56373152D02*
X83806078Y-56420771D01*
X83234649Y-57039819D02*
X83329887Y-56992200D01*
X83329887Y-56992200D02*
X83377506Y-56944580D01*
X83377506Y-56944580D02*
X83425125Y-56849342D01*
X83425125Y-56849342D02*
X83425125Y-56563628D01*
X83425125Y-56563628D02*
X83377506Y-56468390D01*
X83377506Y-56468390D02*
X83329887Y-56420771D01*
X83329887Y-56420771D02*
X83234649Y-56373152D01*
X83234649Y-56373152D02*
X83091792Y-56373152D01*
X83091792Y-56373152D02*
X82996554Y-56420771D01*
X82996554Y-56420771D02*
X82948935Y-56468390D01*
X82948935Y-56468390D02*
X82901316Y-56563628D01*
X82901316Y-56563628D02*
X82901316Y-56849342D01*
X82901316Y-56849342D02*
X82948935Y-56944580D01*
X82948935Y-56944580D02*
X82996554Y-56992200D01*
X82996554Y-56992200D02*
X83091792Y-57039819D01*
X83091792Y-57039819D02*
X83234649Y-57039819D01*
X82472744Y-56373152D02*
X82472744Y-57039819D01*
X82472744Y-56468390D02*
X82425125Y-56420771D01*
X82425125Y-56420771D02*
X82329887Y-56373152D01*
X82329887Y-56373152D02*
X82187030Y-56373152D01*
X82187030Y-56373152D02*
X82091792Y-56420771D01*
X82091792Y-56420771D02*
X82044173Y-56516009D01*
X82044173Y-56516009D02*
X82044173Y-57039819D01*
X80282268Y-56087438D02*
X80377506Y-56039819D01*
X80377506Y-56039819D02*
X80520363Y-56039819D01*
X80520363Y-56039819D02*
X80663220Y-56087438D01*
X80663220Y-56087438D02*
X80758458Y-56182676D01*
X80758458Y-56182676D02*
X80806077Y-56277914D01*
X80806077Y-56277914D02*
X80853696Y-56468390D01*
X80853696Y-56468390D02*
X80853696Y-56611247D01*
X80853696Y-56611247D02*
X80806077Y-56801723D01*
X80806077Y-56801723D02*
X80758458Y-56896961D01*
X80758458Y-56896961D02*
X80663220Y-56992200D01*
X80663220Y-56992200D02*
X80520363Y-57039819D01*
X80520363Y-57039819D02*
X80425125Y-57039819D01*
X80425125Y-57039819D02*
X80282268Y-56992200D01*
X80282268Y-56992200D02*
X80234649Y-56944580D01*
X80234649Y-56944580D02*
X80234649Y-56611247D01*
X80234649Y-56611247D02*
X80425125Y-56611247D01*
X79425125Y-56992200D02*
X79520363Y-57039819D01*
X79520363Y-57039819D02*
X79710839Y-57039819D01*
X79710839Y-57039819D02*
X79806077Y-56992200D01*
X79806077Y-56992200D02*
X79853696Y-56896961D01*
X79853696Y-56896961D02*
X79853696Y-56516009D01*
X79853696Y-56516009D02*
X79806077Y-56420771D01*
X79806077Y-56420771D02*
X79710839Y-56373152D01*
X79710839Y-56373152D02*
X79520363Y-56373152D01*
X79520363Y-56373152D02*
X79425125Y-56420771D01*
X79425125Y-56420771D02*
X79377506Y-56516009D01*
X79377506Y-56516009D02*
X79377506Y-56611247D01*
X79377506Y-56611247D02*
X79853696Y-56706485D01*
X78948934Y-56373152D02*
X78948934Y-57039819D01*
X78948934Y-56468390D02*
X78901315Y-56420771D01*
X78901315Y-56420771D02*
X78806077Y-56373152D01*
X78806077Y-56373152D02*
X78663220Y-56373152D01*
X78663220Y-56373152D02*
X78567982Y-56420771D01*
X78567982Y-56420771D02*
X78520363Y-56516009D01*
X78520363Y-56516009D02*
X78520363Y-57039819D01*
X77663220Y-56992200D02*
X77758458Y-57039819D01*
X77758458Y-57039819D02*
X77948934Y-57039819D01*
X77948934Y-57039819D02*
X78044172Y-56992200D01*
X78044172Y-56992200D02*
X78091791Y-56896961D01*
X78091791Y-56896961D02*
X78091791Y-56516009D01*
X78091791Y-56516009D02*
X78044172Y-56420771D01*
X78044172Y-56420771D02*
X77948934Y-56373152D01*
X77948934Y-56373152D02*
X77758458Y-56373152D01*
X77758458Y-56373152D02*
X77663220Y-56420771D01*
X77663220Y-56420771D02*
X77615601Y-56516009D01*
X77615601Y-56516009D02*
X77615601Y-56611247D01*
X77615601Y-56611247D02*
X78091791Y-56706485D01*
X77187029Y-57039819D02*
X77187029Y-56373152D01*
X77187029Y-56563628D02*
X77139410Y-56468390D01*
X77139410Y-56468390D02*
X77091791Y-56420771D01*
X77091791Y-56420771D02*
X76996553Y-56373152D01*
X76996553Y-56373152D02*
X76901315Y-56373152D01*
X76139410Y-57039819D02*
X76139410Y-56516009D01*
X76139410Y-56516009D02*
X76187029Y-56420771D01*
X76187029Y-56420771D02*
X76282267Y-56373152D01*
X76282267Y-56373152D02*
X76472743Y-56373152D01*
X76472743Y-56373152D02*
X76567981Y-56420771D01*
X76139410Y-56992200D02*
X76234648Y-57039819D01*
X76234648Y-57039819D02*
X76472743Y-57039819D01*
X76472743Y-57039819D02*
X76567981Y-56992200D01*
X76567981Y-56992200D02*
X76615600Y-56896961D01*
X76615600Y-56896961D02*
X76615600Y-56801723D01*
X76615600Y-56801723D02*
X76567981Y-56706485D01*
X76567981Y-56706485D02*
X76472743Y-56658866D01*
X76472743Y-56658866D02*
X76234648Y-56658866D01*
X76234648Y-56658866D02*
X76139410Y-56611247D01*
X75520362Y-57039819D02*
X75615600Y-56992200D01*
X75615600Y-56992200D02*
X75663219Y-56896961D01*
X75663219Y-56896961D02*
X75663219Y-56039819D01*
X74377504Y-57039819D02*
X74377504Y-56039819D01*
X74377504Y-56039819D02*
X73996552Y-56039819D01*
X73996552Y-56039819D02*
X73901314Y-56087438D01*
X73901314Y-56087438D02*
X73853695Y-56135057D01*
X73853695Y-56135057D02*
X73806076Y-56230295D01*
X73806076Y-56230295D02*
X73806076Y-56373152D01*
X73806076Y-56373152D02*
X73853695Y-56468390D01*
X73853695Y-56468390D02*
X73901314Y-56516009D01*
X73901314Y-56516009D02*
X73996552Y-56563628D01*
X73996552Y-56563628D02*
X74377504Y-56563628D01*
X72948933Y-56373152D02*
X72948933Y-57039819D01*
X73377504Y-56373152D02*
X73377504Y-56896961D01*
X73377504Y-56896961D02*
X73329885Y-56992200D01*
X73329885Y-56992200D02*
X73234647Y-57039819D01*
X73234647Y-57039819D02*
X73091790Y-57039819D01*
X73091790Y-57039819D02*
X72996552Y-56992200D01*
X72996552Y-56992200D02*
X72948933Y-56944580D01*
X72472742Y-57039819D02*
X72472742Y-56373152D01*
X72472742Y-56563628D02*
X72425123Y-56468390D01*
X72425123Y-56468390D02*
X72377504Y-56420771D01*
X72377504Y-56420771D02*
X72282266Y-56373152D01*
X72282266Y-56373152D02*
X72187028Y-56373152D01*
X71853694Y-56373152D02*
X71853694Y-57373152D01*
X71853694Y-56420771D02*
X71758456Y-56373152D01*
X71758456Y-56373152D02*
X71567980Y-56373152D01*
X71567980Y-56373152D02*
X71472742Y-56420771D01*
X71472742Y-56420771D02*
X71425123Y-56468390D01*
X71425123Y-56468390D02*
X71377504Y-56563628D01*
X71377504Y-56563628D02*
X71377504Y-56849342D01*
X71377504Y-56849342D02*
X71425123Y-56944580D01*
X71425123Y-56944580D02*
X71472742Y-56992200D01*
X71472742Y-56992200D02*
X71567980Y-57039819D01*
X71567980Y-57039819D02*
X71758456Y-57039819D01*
X71758456Y-57039819D02*
X71853694Y-56992200D01*
X70806075Y-57039819D02*
X70901313Y-56992200D01*
X70901313Y-56992200D02*
X70948932Y-56944580D01*
X70948932Y-56944580D02*
X70996551Y-56849342D01*
X70996551Y-56849342D02*
X70996551Y-56563628D01*
X70996551Y-56563628D02*
X70948932Y-56468390D01*
X70948932Y-56468390D02*
X70901313Y-56420771D01*
X70901313Y-56420771D02*
X70806075Y-56373152D01*
X70806075Y-56373152D02*
X70663218Y-56373152D01*
X70663218Y-56373152D02*
X70567980Y-56420771D01*
X70567980Y-56420771D02*
X70520361Y-56468390D01*
X70520361Y-56468390D02*
X70472742Y-56563628D01*
X70472742Y-56563628D02*
X70472742Y-56849342D01*
X70472742Y-56849342D02*
X70520361Y-56944580D01*
X70520361Y-56944580D02*
X70567980Y-56992200D01*
X70567980Y-56992200D02*
X70663218Y-57039819D01*
X70663218Y-57039819D02*
X70806075Y-57039819D01*
X70091789Y-56992200D02*
X69996551Y-57039819D01*
X69996551Y-57039819D02*
X69806075Y-57039819D01*
X69806075Y-57039819D02*
X69710837Y-56992200D01*
X69710837Y-56992200D02*
X69663218Y-56896961D01*
X69663218Y-56896961D02*
X69663218Y-56849342D01*
X69663218Y-56849342D02*
X69710837Y-56754104D01*
X69710837Y-56754104D02*
X69806075Y-56706485D01*
X69806075Y-56706485D02*
X69948932Y-56706485D01*
X69948932Y-56706485D02*
X70044170Y-56658866D01*
X70044170Y-56658866D02*
X70091789Y-56563628D01*
X70091789Y-56563628D02*
X70091789Y-56516009D01*
X70091789Y-56516009D02*
X70044170Y-56420771D01*
X70044170Y-56420771D02*
X69948932Y-56373152D01*
X69948932Y-56373152D02*
X69806075Y-56373152D01*
X69806075Y-56373152D02*
X69710837Y-56420771D01*
X68853694Y-56992200D02*
X68948932Y-57039819D01*
X68948932Y-57039819D02*
X69139408Y-57039819D01*
X69139408Y-57039819D02*
X69234646Y-56992200D01*
X69234646Y-56992200D02*
X69282265Y-56896961D01*
X69282265Y-56896961D02*
X69282265Y-56516009D01*
X69282265Y-56516009D02*
X69234646Y-56420771D01*
X69234646Y-56420771D02*
X69139408Y-56373152D01*
X69139408Y-56373152D02*
X68948932Y-56373152D01*
X68948932Y-56373152D02*
X68853694Y-56420771D01*
X68853694Y-56420771D02*
X68806075Y-56516009D01*
X68806075Y-56516009D02*
X68806075Y-56611247D01*
X68806075Y-56611247D02*
X69282265Y-56706485D01*
X67615598Y-57039819D02*
X67615598Y-56039819D01*
X67615598Y-56039819D02*
X67234646Y-56039819D01*
X67234646Y-56039819D02*
X67139408Y-56087438D01*
X67139408Y-56087438D02*
X67091789Y-56135057D01*
X67091789Y-56135057D02*
X67044170Y-56230295D01*
X67044170Y-56230295D02*
X67044170Y-56373152D01*
X67044170Y-56373152D02*
X67091789Y-56468390D01*
X67091789Y-56468390D02*
X67139408Y-56516009D01*
X67139408Y-56516009D02*
X67234646Y-56563628D01*
X67234646Y-56563628D02*
X67615598Y-56563628D01*
X66615598Y-57039819D02*
X66615598Y-56039819D01*
X66187027Y-57039819D02*
X66187027Y-56516009D01*
X66187027Y-56516009D02*
X66234646Y-56420771D01*
X66234646Y-56420771D02*
X66329884Y-56373152D01*
X66329884Y-56373152D02*
X66472741Y-56373152D01*
X66472741Y-56373152D02*
X66567979Y-56420771D01*
X66567979Y-56420771D02*
X66615598Y-56468390D01*
X65567979Y-57039819D02*
X65663217Y-56992200D01*
X65663217Y-56992200D02*
X65710836Y-56944580D01*
X65710836Y-56944580D02*
X65758455Y-56849342D01*
X65758455Y-56849342D02*
X65758455Y-56563628D01*
X65758455Y-56563628D02*
X65710836Y-56468390D01*
X65710836Y-56468390D02*
X65663217Y-56420771D01*
X65663217Y-56420771D02*
X65567979Y-56373152D01*
X65567979Y-56373152D02*
X65425122Y-56373152D01*
X65425122Y-56373152D02*
X65329884Y-56420771D01*
X65329884Y-56420771D02*
X65282265Y-56468390D01*
X65282265Y-56468390D02*
X65234646Y-56563628D01*
X65234646Y-56563628D02*
X65234646Y-56849342D01*
X65234646Y-56849342D02*
X65282265Y-56944580D01*
X65282265Y-56944580D02*
X65329884Y-56992200D01*
X65329884Y-56992200D02*
X65425122Y-57039819D01*
X65425122Y-57039819D02*
X65567979Y-57039819D01*
X64948931Y-56373152D02*
X64567979Y-56373152D01*
X64806074Y-56039819D02*
X64806074Y-56896961D01*
X64806074Y-56896961D02*
X64758455Y-56992200D01*
X64758455Y-56992200D02*
X64663217Y-57039819D01*
X64663217Y-57039819D02*
X64567979Y-57039819D01*
X64091788Y-57039819D02*
X64187026Y-56992200D01*
X64187026Y-56992200D02*
X64234645Y-56944580D01*
X64234645Y-56944580D02*
X64282264Y-56849342D01*
X64282264Y-56849342D02*
X64282264Y-56563628D01*
X64282264Y-56563628D02*
X64234645Y-56468390D01*
X64234645Y-56468390D02*
X64187026Y-56420771D01*
X64187026Y-56420771D02*
X64091788Y-56373152D01*
X64091788Y-56373152D02*
X63948931Y-56373152D01*
X63948931Y-56373152D02*
X63853693Y-56420771D01*
X63853693Y-56420771D02*
X63806074Y-56468390D01*
X63806074Y-56468390D02*
X63758455Y-56563628D01*
X63758455Y-56563628D02*
X63758455Y-56849342D01*
X63758455Y-56849342D02*
X63806074Y-56944580D01*
X63806074Y-56944580D02*
X63853693Y-56992200D01*
X63853693Y-56992200D02*
X63948931Y-57039819D01*
X63948931Y-57039819D02*
X64091788Y-57039819D01*
X62901312Y-57039819D02*
X62901312Y-56039819D01*
X62901312Y-56992200D02*
X62996550Y-57039819D01*
X62996550Y-57039819D02*
X63187026Y-57039819D01*
X63187026Y-57039819D02*
X63282264Y-56992200D01*
X63282264Y-56992200D02*
X63329883Y-56944580D01*
X63329883Y-56944580D02*
X63377502Y-56849342D01*
X63377502Y-56849342D02*
X63377502Y-56563628D01*
X63377502Y-56563628D02*
X63329883Y-56468390D01*
X63329883Y-56468390D02*
X63282264Y-56420771D01*
X63282264Y-56420771D02*
X63187026Y-56373152D01*
X63187026Y-56373152D02*
X62996550Y-56373152D01*
X62996550Y-56373152D02*
X62901312Y-56420771D01*
X62044169Y-56992200D02*
X62139407Y-57039819D01*
X62139407Y-57039819D02*
X62329883Y-57039819D01*
X62329883Y-57039819D02*
X62425121Y-56992200D01*
X62425121Y-56992200D02*
X62472740Y-56896961D01*
X62472740Y-56896961D02*
X62472740Y-56516009D01*
X62472740Y-56516009D02*
X62425121Y-56420771D01*
X62425121Y-56420771D02*
X62329883Y-56373152D01*
X62329883Y-56373152D02*
X62139407Y-56373152D01*
X62139407Y-56373152D02*
X62044169Y-56420771D01*
X62044169Y-56420771D02*
X61996550Y-56516009D01*
X61996550Y-56516009D02*
X61996550Y-56611247D01*
X61996550Y-56611247D02*
X62472740Y-56706485D01*
X61710835Y-56373152D02*
X61329883Y-56373152D01*
X61567978Y-56039819D02*
X61567978Y-56896961D01*
X61567978Y-56896961D02*
X61520359Y-56992200D01*
X61520359Y-56992200D02*
X61425121Y-57039819D01*
X61425121Y-57039819D02*
X61329883Y-57039819D01*
X60615597Y-56992200D02*
X60710835Y-57039819D01*
X60710835Y-57039819D02*
X60901311Y-57039819D01*
X60901311Y-57039819D02*
X60996549Y-56992200D01*
X60996549Y-56992200D02*
X61044168Y-56896961D01*
X61044168Y-56896961D02*
X61044168Y-56516009D01*
X61044168Y-56516009D02*
X60996549Y-56420771D01*
X60996549Y-56420771D02*
X60901311Y-56373152D01*
X60901311Y-56373152D02*
X60710835Y-56373152D01*
X60710835Y-56373152D02*
X60615597Y-56420771D01*
X60615597Y-56420771D02*
X60567978Y-56516009D01*
X60567978Y-56516009D02*
X60567978Y-56611247D01*
X60567978Y-56611247D02*
X61044168Y-56706485D01*
X59710835Y-56992200D02*
X59806073Y-57039819D01*
X59806073Y-57039819D02*
X59996549Y-57039819D01*
X59996549Y-57039819D02*
X60091787Y-56992200D01*
X60091787Y-56992200D02*
X60139406Y-56944580D01*
X60139406Y-56944580D02*
X60187025Y-56849342D01*
X60187025Y-56849342D02*
X60187025Y-56563628D01*
X60187025Y-56563628D02*
X60139406Y-56468390D01*
X60139406Y-56468390D02*
X60091787Y-56420771D01*
X60091787Y-56420771D02*
X59996549Y-56373152D01*
X59996549Y-56373152D02*
X59806073Y-56373152D01*
X59806073Y-56373152D02*
X59710835Y-56420771D01*
X59425120Y-56373152D02*
X59044168Y-56373152D01*
X59282263Y-56039819D02*
X59282263Y-56896961D01*
X59282263Y-56896961D02*
X59234644Y-56992200D01*
X59234644Y-56992200D02*
X59139406Y-57039819D01*
X59139406Y-57039819D02*
X59044168Y-57039819D01*
X58567977Y-57039819D02*
X58663215Y-56992200D01*
X58663215Y-56992200D02*
X58710834Y-56944580D01*
X58710834Y-56944580D02*
X58758453Y-56849342D01*
X58758453Y-56849342D02*
X58758453Y-56563628D01*
X58758453Y-56563628D02*
X58710834Y-56468390D01*
X58710834Y-56468390D02*
X58663215Y-56420771D01*
X58663215Y-56420771D02*
X58567977Y-56373152D01*
X58567977Y-56373152D02*
X58425120Y-56373152D01*
X58425120Y-56373152D02*
X58329882Y-56420771D01*
X58329882Y-56420771D02*
X58282263Y-56468390D01*
X58282263Y-56468390D02*
X58234644Y-56563628D01*
X58234644Y-56563628D02*
X58234644Y-56849342D01*
X58234644Y-56849342D02*
X58282263Y-56944580D01*
X58282263Y-56944580D02*
X58329882Y-56992200D01*
X58329882Y-56992200D02*
X58425120Y-57039819D01*
X58425120Y-57039819D02*
X58567977Y-57039819D01*
X57806072Y-57039819D02*
X57806072Y-56373152D01*
X57806072Y-56563628D02*
X57758453Y-56468390D01*
X57758453Y-56468390D02*
X57710834Y-56420771D01*
X57710834Y-56420771D02*
X57615596Y-56373152D01*
X57615596Y-56373152D02*
X57520358Y-56373152D01*
X56520357Y-56373152D02*
X56282262Y-57039819D01*
X56282262Y-57039819D02*
X56044167Y-56373152D01*
X55472738Y-56039819D02*
X55377500Y-56039819D01*
X55377500Y-56039819D02*
X55282262Y-56087438D01*
X55282262Y-56087438D02*
X55234643Y-56135057D01*
X55234643Y-56135057D02*
X55187024Y-56230295D01*
X55187024Y-56230295D02*
X55139405Y-56420771D01*
X55139405Y-56420771D02*
X55139405Y-56658866D01*
X55139405Y-56658866D02*
X55187024Y-56849342D01*
X55187024Y-56849342D02*
X55234643Y-56944580D01*
X55234643Y-56944580D02*
X55282262Y-56992200D01*
X55282262Y-56992200D02*
X55377500Y-57039819D01*
X55377500Y-57039819D02*
X55472738Y-57039819D01*
X55472738Y-57039819D02*
X55567976Y-56992200D01*
X55567976Y-56992200D02*
X55615595Y-56944580D01*
X55615595Y-56944580D02*
X55663214Y-56849342D01*
X55663214Y-56849342D02*
X55710833Y-56658866D01*
X55710833Y-56658866D02*
X55710833Y-56420771D01*
X55710833Y-56420771D02*
X55663214Y-56230295D01*
X55663214Y-56230295D02*
X55615595Y-56135057D01*
X55615595Y-56135057D02*
X55567976Y-56087438D01*
X55567976Y-56087438D02*
X55472738Y-56039819D01*
X54710833Y-56944580D02*
X54663214Y-56992200D01*
X54663214Y-56992200D02*
X54710833Y-57039819D01*
X54710833Y-57039819D02*
X54758452Y-56992200D01*
X54758452Y-56992200D02*
X54710833Y-56944580D01*
X54710833Y-56944580D02*
X54710833Y-57039819D01*
X53710834Y-57039819D02*
X54282262Y-57039819D01*
X53996548Y-57039819D02*
X53996548Y-56039819D01*
X53996548Y-56039819D02*
X54091786Y-56182676D01*
X54091786Y-56182676D02*
X54187024Y-56277914D01*
X54187024Y-56277914D02*
X54282262Y-56325533D01*
X86091792Y-58649763D02*
X86425125Y-58173572D01*
X86663220Y-58649763D02*
X86663220Y-57649763D01*
X86663220Y-57649763D02*
X86282268Y-57649763D01*
X86282268Y-57649763D02*
X86187030Y-57697382D01*
X86187030Y-57697382D02*
X86139411Y-57745001D01*
X86139411Y-57745001D02*
X86091792Y-57840239D01*
X86091792Y-57840239D02*
X86091792Y-57983096D01*
X86091792Y-57983096D02*
X86139411Y-58078334D01*
X86139411Y-58078334D02*
X86187030Y-58125953D01*
X86187030Y-58125953D02*
X86282268Y-58173572D01*
X86282268Y-58173572D02*
X86663220Y-58173572D01*
X85234649Y-58649763D02*
X85234649Y-58125953D01*
X85234649Y-58125953D02*
X85282268Y-58030715D01*
X85282268Y-58030715D02*
X85377506Y-57983096D01*
X85377506Y-57983096D02*
X85567982Y-57983096D01*
X85567982Y-57983096D02*
X85663220Y-58030715D01*
X85234649Y-58602144D02*
X85329887Y-58649763D01*
X85329887Y-58649763D02*
X85567982Y-58649763D01*
X85567982Y-58649763D02*
X85663220Y-58602144D01*
X85663220Y-58602144D02*
X85710839Y-58506905D01*
X85710839Y-58506905D02*
X85710839Y-58411667D01*
X85710839Y-58411667D02*
X85663220Y-58316429D01*
X85663220Y-58316429D02*
X85567982Y-58268810D01*
X85567982Y-58268810D02*
X85329887Y-58268810D01*
X85329887Y-58268810D02*
X85234649Y-58221191D01*
X84758458Y-57983096D02*
X84758458Y-58649763D01*
X84758458Y-58078334D02*
X84710839Y-58030715D01*
X84710839Y-58030715D02*
X84615601Y-57983096D01*
X84615601Y-57983096D02*
X84472744Y-57983096D01*
X84472744Y-57983096D02*
X84377506Y-58030715D01*
X84377506Y-58030715D02*
X84329887Y-58125953D01*
X84329887Y-58125953D02*
X84329887Y-58649763D01*
X83425125Y-57983096D02*
X83425125Y-58792620D01*
X83425125Y-58792620D02*
X83472744Y-58887858D01*
X83472744Y-58887858D02*
X83520363Y-58935477D01*
X83520363Y-58935477D02*
X83615601Y-58983096D01*
X83615601Y-58983096D02*
X83758458Y-58983096D01*
X83758458Y-58983096D02*
X83853696Y-58935477D01*
X83425125Y-58602144D02*
X83520363Y-58649763D01*
X83520363Y-58649763D02*
X83710839Y-58649763D01*
X83710839Y-58649763D02*
X83806077Y-58602144D01*
X83806077Y-58602144D02*
X83853696Y-58554524D01*
X83853696Y-58554524D02*
X83901315Y-58459286D01*
X83901315Y-58459286D02*
X83901315Y-58173572D01*
X83901315Y-58173572D02*
X83853696Y-58078334D01*
X83853696Y-58078334D02*
X83806077Y-58030715D01*
X83806077Y-58030715D02*
X83710839Y-57983096D01*
X83710839Y-57983096D02*
X83520363Y-57983096D01*
X83520363Y-57983096D02*
X83425125Y-58030715D01*
X82567982Y-58602144D02*
X82663220Y-58649763D01*
X82663220Y-58649763D02*
X82853696Y-58649763D01*
X82853696Y-58649763D02*
X82948934Y-58602144D01*
X82948934Y-58602144D02*
X82996553Y-58506905D01*
X82996553Y-58506905D02*
X82996553Y-58125953D01*
X82996553Y-58125953D02*
X82948934Y-58030715D01*
X82948934Y-58030715D02*
X82853696Y-57983096D01*
X82853696Y-57983096D02*
X82663220Y-57983096D01*
X82663220Y-57983096D02*
X82567982Y-58030715D01*
X82567982Y-58030715D02*
X82520363Y-58125953D01*
X82520363Y-58125953D02*
X82520363Y-58221191D01*
X82520363Y-58221191D02*
X82996553Y-58316429D01*
X82091791Y-58554524D02*
X82044172Y-58602144D01*
X82044172Y-58602144D02*
X82091791Y-58649763D01*
X82091791Y-58649763D02*
X82139410Y-58602144D01*
X82139410Y-58602144D02*
X82091791Y-58554524D01*
X82091791Y-58554524D02*
X82091791Y-58649763D01*
X82091791Y-58030715D02*
X82044172Y-58078334D01*
X82044172Y-58078334D02*
X82091791Y-58125953D01*
X82091791Y-58125953D02*
X82139410Y-58078334D01*
X82139410Y-58078334D02*
X82091791Y-58030715D01*
X82091791Y-58030715D02*
X82091791Y-58125953D01*
X80948934Y-57649763D02*
X80329887Y-57649763D01*
X80329887Y-57649763D02*
X80663220Y-58030715D01*
X80663220Y-58030715D02*
X80520363Y-58030715D01*
X80520363Y-58030715D02*
X80425125Y-58078334D01*
X80425125Y-58078334D02*
X80377506Y-58125953D01*
X80377506Y-58125953D02*
X80329887Y-58221191D01*
X80329887Y-58221191D02*
X80329887Y-58459286D01*
X80329887Y-58459286D02*
X80377506Y-58554524D01*
X80377506Y-58554524D02*
X80425125Y-58602144D01*
X80425125Y-58602144D02*
X80520363Y-58649763D01*
X80520363Y-58649763D02*
X80806077Y-58649763D01*
X80806077Y-58649763D02*
X80901315Y-58602144D01*
X80901315Y-58602144D02*
X80948934Y-58554524D01*
X79948934Y-57745001D02*
X79901315Y-57697382D01*
X79901315Y-57697382D02*
X79806077Y-57649763D01*
X79806077Y-57649763D02*
X79567982Y-57649763D01*
X79567982Y-57649763D02*
X79472744Y-57697382D01*
X79472744Y-57697382D02*
X79425125Y-57745001D01*
X79425125Y-57745001D02*
X79377506Y-57840239D01*
X79377506Y-57840239D02*
X79377506Y-57935477D01*
X79377506Y-57935477D02*
X79425125Y-58078334D01*
X79425125Y-58078334D02*
X79996553Y-58649763D01*
X79996553Y-58649763D02*
X79377506Y-58649763D01*
X78758458Y-57649763D02*
X78663220Y-57649763D01*
X78663220Y-57649763D02*
X78567982Y-57697382D01*
X78567982Y-57697382D02*
X78520363Y-57745001D01*
X78520363Y-57745001D02*
X78472744Y-57840239D01*
X78472744Y-57840239D02*
X78425125Y-58030715D01*
X78425125Y-58030715D02*
X78425125Y-58268810D01*
X78425125Y-58268810D02*
X78472744Y-58459286D01*
X78472744Y-58459286D02*
X78520363Y-58554524D01*
X78520363Y-58554524D02*
X78567982Y-58602144D01*
X78567982Y-58602144D02*
X78663220Y-58649763D01*
X78663220Y-58649763D02*
X78758458Y-58649763D01*
X78758458Y-58649763D02*
X78853696Y-58602144D01*
X78853696Y-58602144D02*
X78901315Y-58554524D01*
X78901315Y-58554524D02*
X78948934Y-58459286D01*
X78948934Y-58459286D02*
X78996553Y-58268810D01*
X78996553Y-58268810D02*
X78996553Y-58030715D01*
X78996553Y-58030715D02*
X78948934Y-57840239D01*
X78948934Y-57840239D02*
X78901315Y-57745001D01*
X78901315Y-57745001D02*
X78853696Y-57697382D01*
X78853696Y-57697382D02*
X78758458Y-57649763D01*
X77996553Y-57983096D02*
X77996553Y-58649763D01*
X77996553Y-58078334D02*
X77948934Y-58030715D01*
X77948934Y-58030715D02*
X77853696Y-57983096D01*
X77853696Y-57983096D02*
X77710839Y-57983096D01*
X77710839Y-57983096D02*
X77615601Y-58030715D01*
X77615601Y-58030715D02*
X77567982Y-58125953D01*
X77567982Y-58125953D02*
X77567982Y-58649763D01*
X77091791Y-58649763D02*
X77091791Y-57983096D01*
X77091791Y-58078334D02*
X77044172Y-58030715D01*
X77044172Y-58030715D02*
X76948934Y-57983096D01*
X76948934Y-57983096D02*
X76806077Y-57983096D01*
X76806077Y-57983096D02*
X76710839Y-58030715D01*
X76710839Y-58030715D02*
X76663220Y-58125953D01*
X76663220Y-58125953D02*
X76663220Y-58649763D01*
X76663220Y-58125953D02*
X76615601Y-58030715D01*
X76615601Y-58030715D02*
X76520363Y-57983096D01*
X76520363Y-57983096D02*
X76377506Y-57983096D01*
X76377506Y-57983096D02*
X76282267Y-58030715D01*
X76282267Y-58030715D02*
X76234648Y-58125953D01*
X76234648Y-58125953D02*
X76234648Y-58649763D01*
X75901315Y-58268810D02*
X75853696Y-58221191D01*
X75853696Y-58221191D02*
X75758458Y-58173572D01*
X75758458Y-58173572D02*
X75567982Y-58268810D01*
X75567982Y-58268810D02*
X75472744Y-58221191D01*
X75472744Y-58221191D02*
X75425125Y-58173572D01*
X74520363Y-58649763D02*
X75091791Y-58649763D01*
X74806077Y-58649763D02*
X74806077Y-57649763D01*
X74806077Y-57649763D02*
X74901315Y-57792620D01*
X74901315Y-57792620D02*
X74996553Y-57887858D01*
X74996553Y-57887858D02*
X75091791Y-57935477D01*
X73901315Y-57649763D02*
X73806077Y-57649763D01*
X73806077Y-57649763D02*
X73710839Y-57697382D01*
X73710839Y-57697382D02*
X73663220Y-57745001D01*
X73663220Y-57745001D02*
X73615601Y-57840239D01*
X73615601Y-57840239D02*
X73567982Y-58030715D01*
X73567982Y-58030715D02*
X73567982Y-58268810D01*
X73567982Y-58268810D02*
X73615601Y-58459286D01*
X73615601Y-58459286D02*
X73663220Y-58554524D01*
X73663220Y-58554524D02*
X73710839Y-58602144D01*
X73710839Y-58602144D02*
X73806077Y-58649763D01*
X73806077Y-58649763D02*
X73901315Y-58649763D01*
X73901315Y-58649763D02*
X73996553Y-58602144D01*
X73996553Y-58602144D02*
X74044172Y-58554524D01*
X74044172Y-58554524D02*
X74091791Y-58459286D01*
X74091791Y-58459286D02*
X74139410Y-58268810D01*
X74139410Y-58268810D02*
X74139410Y-58030715D01*
X74139410Y-58030715D02*
X74091791Y-57840239D01*
X74091791Y-57840239D02*
X74044172Y-57745001D01*
X74044172Y-57745001D02*
X73996553Y-57697382D01*
X73996553Y-57697382D02*
X73901315Y-57649763D01*
X72710839Y-57649763D02*
X72901315Y-57649763D01*
X72901315Y-57649763D02*
X72996553Y-57697382D01*
X72996553Y-57697382D02*
X73044172Y-57745001D01*
X73044172Y-57745001D02*
X73139410Y-57887858D01*
X73139410Y-57887858D02*
X73187029Y-58078334D01*
X73187029Y-58078334D02*
X73187029Y-58459286D01*
X73187029Y-58459286D02*
X73139410Y-58554524D01*
X73139410Y-58554524D02*
X73091791Y-58602144D01*
X73091791Y-58602144D02*
X72996553Y-58649763D01*
X72996553Y-58649763D02*
X72806077Y-58649763D01*
X72806077Y-58649763D02*
X72710839Y-58602144D01*
X72710839Y-58602144D02*
X72663220Y-58554524D01*
X72663220Y-58554524D02*
X72615601Y-58459286D01*
X72615601Y-58459286D02*
X72615601Y-58221191D01*
X72615601Y-58221191D02*
X72663220Y-58125953D01*
X72663220Y-58125953D02*
X72710839Y-58078334D01*
X72710839Y-58078334D02*
X72806077Y-58030715D01*
X72806077Y-58030715D02*
X72996553Y-58030715D01*
X72996553Y-58030715D02*
X73091791Y-58078334D01*
X73091791Y-58078334D02*
X73139410Y-58125953D01*
X73139410Y-58125953D02*
X73187029Y-58221191D01*
X71996553Y-57649763D02*
X71901315Y-57649763D01*
X71901315Y-57649763D02*
X71806077Y-57697382D01*
X71806077Y-57697382D02*
X71758458Y-57745001D01*
X71758458Y-57745001D02*
X71710839Y-57840239D01*
X71710839Y-57840239D02*
X71663220Y-58030715D01*
X71663220Y-58030715D02*
X71663220Y-58268810D01*
X71663220Y-58268810D02*
X71710839Y-58459286D01*
X71710839Y-58459286D02*
X71758458Y-58554524D01*
X71758458Y-58554524D02*
X71806077Y-58602144D01*
X71806077Y-58602144D02*
X71901315Y-58649763D01*
X71901315Y-58649763D02*
X71996553Y-58649763D01*
X71996553Y-58649763D02*
X72091791Y-58602144D01*
X72091791Y-58602144D02*
X72139410Y-58554524D01*
X72139410Y-58554524D02*
X72187029Y-58459286D01*
X72187029Y-58459286D02*
X72234648Y-58268810D01*
X72234648Y-58268810D02*
X72234648Y-58030715D01*
X72234648Y-58030715D02*
X72187029Y-57840239D01*
X72187029Y-57840239D02*
X72139410Y-57745001D01*
X72139410Y-57745001D02*
X72091791Y-57697382D01*
X72091791Y-57697382D02*
X71996553Y-57649763D01*
X71234648Y-57983096D02*
X71234648Y-58649763D01*
X71234648Y-58078334D02*
X71187029Y-58030715D01*
X71187029Y-58030715D02*
X71091791Y-57983096D01*
X71091791Y-57983096D02*
X70948934Y-57983096D01*
X70948934Y-57983096D02*
X70853696Y-58030715D01*
X70853696Y-58030715D02*
X70806077Y-58125953D01*
X70806077Y-58125953D02*
X70806077Y-58649763D01*
X70329886Y-58649763D02*
X70329886Y-57983096D01*
X70329886Y-58078334D02*
X70282267Y-58030715D01*
X70282267Y-58030715D02*
X70187029Y-57983096D01*
X70187029Y-57983096D02*
X70044172Y-57983096D01*
X70044172Y-57983096D02*
X69948934Y-58030715D01*
X69948934Y-58030715D02*
X69901315Y-58125953D01*
X69901315Y-58125953D02*
X69901315Y-58649763D01*
X69901315Y-58125953D02*
X69853696Y-58030715D01*
X69853696Y-58030715D02*
X69758458Y-57983096D01*
X69758458Y-57983096D02*
X69615601Y-57983096D01*
X69615601Y-57983096D02*
X69520362Y-58030715D01*
X69520362Y-58030715D02*
X69472743Y-58125953D01*
X69472743Y-58125953D02*
X69472743Y-58649763D01*
X86710839Y-59973992D02*
X86234649Y-59973992D01*
X86806077Y-60259707D02*
X86472744Y-59259707D01*
X86472744Y-59259707D02*
X86139411Y-60259707D01*
X85234649Y-60164468D02*
X85282268Y-60212088D01*
X85282268Y-60212088D02*
X85425125Y-60259707D01*
X85425125Y-60259707D02*
X85520363Y-60259707D01*
X85520363Y-60259707D02*
X85663220Y-60212088D01*
X85663220Y-60212088D02*
X85758458Y-60116849D01*
X85758458Y-60116849D02*
X85806077Y-60021611D01*
X85806077Y-60021611D02*
X85853696Y-59831135D01*
X85853696Y-59831135D02*
X85853696Y-59688278D01*
X85853696Y-59688278D02*
X85806077Y-59497802D01*
X85806077Y-59497802D02*
X85758458Y-59402564D01*
X85758458Y-59402564D02*
X85663220Y-59307326D01*
X85663220Y-59307326D02*
X85520363Y-59259707D01*
X85520363Y-59259707D02*
X85425125Y-59259707D01*
X85425125Y-59259707D02*
X85282268Y-59307326D01*
X85282268Y-59307326D02*
X85234649Y-59354945D01*
X83710839Y-59735897D02*
X83567982Y-59783516D01*
X83567982Y-59783516D02*
X83520363Y-59831135D01*
X83520363Y-59831135D02*
X83472744Y-59926373D01*
X83472744Y-59926373D02*
X83472744Y-60069230D01*
X83472744Y-60069230D02*
X83520363Y-60164468D01*
X83520363Y-60164468D02*
X83567982Y-60212088D01*
X83567982Y-60212088D02*
X83663220Y-60259707D01*
X83663220Y-60259707D02*
X84044172Y-60259707D01*
X84044172Y-60259707D02*
X84044172Y-59259707D01*
X84044172Y-59259707D02*
X83710839Y-59259707D01*
X83710839Y-59259707D02*
X83615601Y-59307326D01*
X83615601Y-59307326D02*
X83567982Y-59354945D01*
X83567982Y-59354945D02*
X83520363Y-59450183D01*
X83520363Y-59450183D02*
X83520363Y-59545421D01*
X83520363Y-59545421D02*
X83567982Y-59640659D01*
X83567982Y-59640659D02*
X83615601Y-59688278D01*
X83615601Y-59688278D02*
X83710839Y-59735897D01*
X83710839Y-59735897D02*
X84044172Y-59735897D01*
X82615601Y-60259707D02*
X82615601Y-59735897D01*
X82615601Y-59735897D02*
X82663220Y-59640659D01*
X82663220Y-59640659D02*
X82758458Y-59593040D01*
X82758458Y-59593040D02*
X82948934Y-59593040D01*
X82948934Y-59593040D02*
X83044172Y-59640659D01*
X82615601Y-60212088D02*
X82710839Y-60259707D01*
X82710839Y-60259707D02*
X82948934Y-60259707D01*
X82948934Y-60259707D02*
X83044172Y-60212088D01*
X83044172Y-60212088D02*
X83091791Y-60116849D01*
X83091791Y-60116849D02*
X83091791Y-60021611D01*
X83091791Y-60021611D02*
X83044172Y-59926373D01*
X83044172Y-59926373D02*
X82948934Y-59878754D01*
X82948934Y-59878754D02*
X82710839Y-59878754D01*
X82710839Y-59878754D02*
X82615601Y-59831135D01*
X82139410Y-59593040D02*
X82139410Y-60259707D01*
X82139410Y-59688278D02*
X82091791Y-59640659D01*
X82091791Y-59640659D02*
X81996553Y-59593040D01*
X81996553Y-59593040D02*
X81853696Y-59593040D01*
X81853696Y-59593040D02*
X81758458Y-59640659D01*
X81758458Y-59640659D02*
X81710839Y-59735897D01*
X81710839Y-59735897D02*
X81710839Y-60259707D01*
X80806077Y-60259707D02*
X80806077Y-59259707D01*
X80806077Y-60212088D02*
X80901315Y-60259707D01*
X80901315Y-60259707D02*
X81091791Y-60259707D01*
X81091791Y-60259707D02*
X81187029Y-60212088D01*
X81187029Y-60212088D02*
X81234648Y-60164468D01*
X81234648Y-60164468D02*
X81282267Y-60069230D01*
X81282267Y-60069230D02*
X81282267Y-59783516D01*
X81282267Y-59783516D02*
X81234648Y-59688278D01*
X81234648Y-59688278D02*
X81187029Y-59640659D01*
X81187029Y-59640659D02*
X81091791Y-59593040D01*
X81091791Y-59593040D02*
X80901315Y-59593040D01*
X80901315Y-59593040D02*
X80806077Y-59640659D01*
X80329886Y-60164468D02*
X80282267Y-60212088D01*
X80282267Y-60212088D02*
X80329886Y-60259707D01*
X80329886Y-60259707D02*
X80377505Y-60212088D01*
X80377505Y-60212088D02*
X80329886Y-60164468D01*
X80329886Y-60164468D02*
X80329886Y-60259707D01*
X80329886Y-59640659D02*
X80282267Y-59688278D01*
X80282267Y-59688278D02*
X80329886Y-59735897D01*
X80329886Y-59735897D02*
X80377505Y-59688278D01*
X80377505Y-59688278D02*
X80329886Y-59640659D01*
X80329886Y-59640659D02*
X80329886Y-59735897D01*
X78567982Y-60259707D02*
X79139410Y-60259707D01*
X78853696Y-60259707D02*
X78853696Y-59259707D01*
X78853696Y-59259707D02*
X78948934Y-59402564D01*
X78948934Y-59402564D02*
X79044172Y-59497802D01*
X79044172Y-59497802D02*
X79139410Y-59545421D01*
X77948934Y-59259707D02*
X77853696Y-59259707D01*
X77853696Y-59259707D02*
X77758458Y-59307326D01*
X77758458Y-59307326D02*
X77710839Y-59354945D01*
X77710839Y-59354945D02*
X77663220Y-59450183D01*
X77663220Y-59450183D02*
X77615601Y-59640659D01*
X77615601Y-59640659D02*
X77615601Y-59878754D01*
X77615601Y-59878754D02*
X77663220Y-60069230D01*
X77663220Y-60069230D02*
X77710839Y-60164468D01*
X77710839Y-60164468D02*
X77758458Y-60212088D01*
X77758458Y-60212088D02*
X77853696Y-60259707D01*
X77853696Y-60259707D02*
X77948934Y-60259707D01*
X77948934Y-60259707D02*
X78044172Y-60212088D01*
X78044172Y-60212088D02*
X78091791Y-60164468D01*
X78091791Y-60164468D02*
X78139410Y-60069230D01*
X78139410Y-60069230D02*
X78187029Y-59878754D01*
X78187029Y-59878754D02*
X78187029Y-59640659D01*
X78187029Y-59640659D02*
X78139410Y-59450183D01*
X78139410Y-59450183D02*
X78091791Y-59354945D01*
X78091791Y-59354945D02*
X78044172Y-59307326D01*
X78044172Y-59307326D02*
X77948934Y-59259707D01*
X76758458Y-59259707D02*
X76948934Y-59259707D01*
X76948934Y-59259707D02*
X77044172Y-59307326D01*
X77044172Y-59307326D02*
X77091791Y-59354945D01*
X77091791Y-59354945D02*
X77187029Y-59497802D01*
X77187029Y-59497802D02*
X77234648Y-59688278D01*
X77234648Y-59688278D02*
X77234648Y-60069230D01*
X77234648Y-60069230D02*
X77187029Y-60164468D01*
X77187029Y-60164468D02*
X77139410Y-60212088D01*
X77139410Y-60212088D02*
X77044172Y-60259707D01*
X77044172Y-60259707D02*
X76853696Y-60259707D01*
X76853696Y-60259707D02*
X76758458Y-60212088D01*
X76758458Y-60212088D02*
X76710839Y-60164468D01*
X76710839Y-60164468D02*
X76663220Y-60069230D01*
X76663220Y-60069230D02*
X76663220Y-59831135D01*
X76663220Y-59831135D02*
X76710839Y-59735897D01*
X76710839Y-59735897D02*
X76758458Y-59688278D01*
X76758458Y-59688278D02*
X76853696Y-59640659D01*
X76853696Y-59640659D02*
X77044172Y-59640659D01*
X77044172Y-59640659D02*
X77139410Y-59688278D01*
X77139410Y-59688278D02*
X77187029Y-59735897D01*
X77187029Y-59735897D02*
X77234648Y-59831135D01*
X76234648Y-60259707D02*
X76234648Y-59259707D01*
X76139410Y-59878754D02*
X75853696Y-60259707D01*
X75853696Y-59593040D02*
X76234648Y-59973992D01*
X75425124Y-60259707D02*
X75425124Y-59259707D01*
X75425124Y-59735897D02*
X74853696Y-59735897D01*
X74853696Y-60259707D02*
X74853696Y-59259707D01*
X74472743Y-59593040D02*
X73948934Y-59593040D01*
X73948934Y-59593040D02*
X74472743Y-60259707D01*
X74472743Y-60259707D02*
X73948934Y-60259707D01*
X73710838Y-59878754D02*
X73663219Y-59831135D01*
X73663219Y-59831135D02*
X73567981Y-59783516D01*
X73567981Y-59783516D02*
X73377505Y-59878754D01*
X73377505Y-59878754D02*
X73282267Y-59831135D01*
X73282267Y-59831135D02*
X73234648Y-59783516D01*
X72377505Y-59259707D02*
X72853695Y-59259707D01*
X72853695Y-59259707D02*
X72901314Y-59735897D01*
X72901314Y-59735897D02*
X72853695Y-59688278D01*
X72853695Y-59688278D02*
X72758457Y-59640659D01*
X72758457Y-59640659D02*
X72520362Y-59640659D01*
X72520362Y-59640659D02*
X72425124Y-59688278D01*
X72425124Y-59688278D02*
X72377505Y-59735897D01*
X72377505Y-59735897D02*
X72329886Y-59831135D01*
X72329886Y-59831135D02*
X72329886Y-60069230D01*
X72329886Y-60069230D02*
X72377505Y-60164468D01*
X72377505Y-60164468D02*
X72425124Y-60212088D01*
X72425124Y-60212088D02*
X72520362Y-60259707D01*
X72520362Y-60259707D02*
X72758457Y-60259707D01*
X72758457Y-60259707D02*
X72853695Y-60212088D01*
X72853695Y-60212088D02*
X72901314Y-60164468D01*
X71710838Y-59259707D02*
X71615600Y-59259707D01*
X71615600Y-59259707D02*
X71520362Y-59307326D01*
X71520362Y-59307326D02*
X71472743Y-59354945D01*
X71472743Y-59354945D02*
X71425124Y-59450183D01*
X71425124Y-59450183D02*
X71377505Y-59640659D01*
X71377505Y-59640659D02*
X71377505Y-59878754D01*
X71377505Y-59878754D02*
X71425124Y-60069230D01*
X71425124Y-60069230D02*
X71472743Y-60164468D01*
X71472743Y-60164468D02*
X71520362Y-60212088D01*
X71520362Y-60212088D02*
X71615600Y-60259707D01*
X71615600Y-60259707D02*
X71710838Y-60259707D01*
X71710838Y-60259707D02*
X71806076Y-60212088D01*
X71806076Y-60212088D02*
X71853695Y-60164468D01*
X71853695Y-60164468D02*
X71901314Y-60069230D01*
X71901314Y-60069230D02*
X71948933Y-59878754D01*
X71948933Y-59878754D02*
X71948933Y-59640659D01*
X71948933Y-59640659D02*
X71901314Y-59450183D01*
X71901314Y-59450183D02*
X71853695Y-59354945D01*
X71853695Y-59354945D02*
X71806076Y-59307326D01*
X71806076Y-59307326D02*
X71710838Y-59259707D01*
X70948933Y-60259707D02*
X70948933Y-59259707D01*
X70948933Y-59259707D02*
X70615600Y-59973992D01*
X70615600Y-59973992D02*
X70282267Y-59259707D01*
X70282267Y-59259707D02*
X70282267Y-60259707D01*
X69806076Y-60259707D02*
X69806076Y-59259707D01*
X69806076Y-59735897D02*
X69234648Y-59735897D01*
X69234648Y-60259707D02*
X69234648Y-59259707D01*
X68853695Y-59593040D02*
X68329886Y-59593040D01*
X68329886Y-59593040D02*
X68853695Y-60259707D01*
X68853695Y-60259707D02*
X68329886Y-60259707D01*
X86663220Y-61869651D02*
X86663220Y-60869651D01*
X86663220Y-60869651D02*
X86425125Y-60869651D01*
X86425125Y-60869651D02*
X86282268Y-60917270D01*
X86282268Y-60917270D02*
X86187030Y-61012508D01*
X86187030Y-61012508D02*
X86139411Y-61107746D01*
X86139411Y-61107746D02*
X86091792Y-61298222D01*
X86091792Y-61298222D02*
X86091792Y-61441079D01*
X86091792Y-61441079D02*
X86139411Y-61631555D01*
X86139411Y-61631555D02*
X86187030Y-61726793D01*
X86187030Y-61726793D02*
X86282268Y-61822032D01*
X86282268Y-61822032D02*
X86425125Y-61869651D01*
X86425125Y-61869651D02*
X86663220Y-61869651D01*
X85282268Y-61822032D02*
X85377506Y-61869651D01*
X85377506Y-61869651D02*
X85567982Y-61869651D01*
X85567982Y-61869651D02*
X85663220Y-61822032D01*
X85663220Y-61822032D02*
X85710839Y-61726793D01*
X85710839Y-61726793D02*
X85710839Y-61345841D01*
X85710839Y-61345841D02*
X85663220Y-61250603D01*
X85663220Y-61250603D02*
X85567982Y-61202984D01*
X85567982Y-61202984D02*
X85377506Y-61202984D01*
X85377506Y-61202984D02*
X85282268Y-61250603D01*
X85282268Y-61250603D02*
X85234649Y-61345841D01*
X85234649Y-61345841D02*
X85234649Y-61441079D01*
X85234649Y-61441079D02*
X85710839Y-61536317D01*
X84901315Y-61202984D02*
X84663220Y-61869651D01*
X84663220Y-61869651D02*
X84425125Y-61202984D01*
X83663220Y-61822032D02*
X83758458Y-61869651D01*
X83758458Y-61869651D02*
X83948934Y-61869651D01*
X83948934Y-61869651D02*
X84044172Y-61822032D01*
X84044172Y-61822032D02*
X84091791Y-61726793D01*
X84091791Y-61726793D02*
X84091791Y-61345841D01*
X84091791Y-61345841D02*
X84044172Y-61250603D01*
X84044172Y-61250603D02*
X83948934Y-61202984D01*
X83948934Y-61202984D02*
X83758458Y-61202984D01*
X83758458Y-61202984D02*
X83663220Y-61250603D01*
X83663220Y-61250603D02*
X83615601Y-61345841D01*
X83615601Y-61345841D02*
X83615601Y-61441079D01*
X83615601Y-61441079D02*
X84091791Y-61536317D01*
X83044172Y-61869651D02*
X83139410Y-61822032D01*
X83139410Y-61822032D02*
X83187029Y-61726793D01*
X83187029Y-61726793D02*
X83187029Y-60869651D01*
X82520362Y-61869651D02*
X82615600Y-61822032D01*
X82615600Y-61822032D02*
X82663219Y-61774412D01*
X82663219Y-61774412D02*
X82710838Y-61679174D01*
X82710838Y-61679174D02*
X82710838Y-61393460D01*
X82710838Y-61393460D02*
X82663219Y-61298222D01*
X82663219Y-61298222D02*
X82615600Y-61250603D01*
X82615600Y-61250603D02*
X82520362Y-61202984D01*
X82520362Y-61202984D02*
X82377505Y-61202984D01*
X82377505Y-61202984D02*
X82282267Y-61250603D01*
X82282267Y-61250603D02*
X82234648Y-61298222D01*
X82234648Y-61298222D02*
X82187029Y-61393460D01*
X82187029Y-61393460D02*
X82187029Y-61679174D01*
X82187029Y-61679174D02*
X82234648Y-61774412D01*
X82234648Y-61774412D02*
X82282267Y-61822032D01*
X82282267Y-61822032D02*
X82377505Y-61869651D01*
X82377505Y-61869651D02*
X82520362Y-61869651D01*
X81758457Y-61202984D02*
X81758457Y-62202984D01*
X81758457Y-61250603D02*
X81663219Y-61202984D01*
X81663219Y-61202984D02*
X81472743Y-61202984D01*
X81472743Y-61202984D02*
X81377505Y-61250603D01*
X81377505Y-61250603D02*
X81329886Y-61298222D01*
X81329886Y-61298222D02*
X81282267Y-61393460D01*
X81282267Y-61393460D02*
X81282267Y-61679174D01*
X81282267Y-61679174D02*
X81329886Y-61774412D01*
X81329886Y-61774412D02*
X81377505Y-61822032D01*
X81377505Y-61822032D02*
X81472743Y-61869651D01*
X81472743Y-61869651D02*
X81663219Y-61869651D01*
X81663219Y-61869651D02*
X81758457Y-61822032D01*
X80472743Y-61822032D02*
X80567981Y-61869651D01*
X80567981Y-61869651D02*
X80758457Y-61869651D01*
X80758457Y-61869651D02*
X80853695Y-61822032D01*
X80853695Y-61822032D02*
X80901314Y-61726793D01*
X80901314Y-61726793D02*
X80901314Y-61345841D01*
X80901314Y-61345841D02*
X80853695Y-61250603D01*
X80853695Y-61250603D02*
X80758457Y-61202984D01*
X80758457Y-61202984D02*
X80567981Y-61202984D01*
X80567981Y-61202984D02*
X80472743Y-61250603D01*
X80472743Y-61250603D02*
X80425124Y-61345841D01*
X80425124Y-61345841D02*
X80425124Y-61441079D01*
X80425124Y-61441079D02*
X80901314Y-61536317D01*
X79567981Y-61869651D02*
X79567981Y-60869651D01*
X79567981Y-61822032D02*
X79663219Y-61869651D01*
X79663219Y-61869651D02*
X79853695Y-61869651D01*
X79853695Y-61869651D02*
X79948933Y-61822032D01*
X79948933Y-61822032D02*
X79996552Y-61774412D01*
X79996552Y-61774412D02*
X80044171Y-61679174D01*
X80044171Y-61679174D02*
X80044171Y-61393460D01*
X80044171Y-61393460D02*
X79996552Y-61298222D01*
X79996552Y-61298222D02*
X79948933Y-61250603D01*
X79948933Y-61250603D02*
X79853695Y-61202984D01*
X79853695Y-61202984D02*
X79663219Y-61202984D01*
X79663219Y-61202984D02*
X79567981Y-61250603D01*
X78329885Y-61869651D02*
X78329885Y-60869651D01*
X78329885Y-61250603D02*
X78234647Y-61202984D01*
X78234647Y-61202984D02*
X78044171Y-61202984D01*
X78044171Y-61202984D02*
X77948933Y-61250603D01*
X77948933Y-61250603D02*
X77901314Y-61298222D01*
X77901314Y-61298222D02*
X77853695Y-61393460D01*
X77853695Y-61393460D02*
X77853695Y-61679174D01*
X77853695Y-61679174D02*
X77901314Y-61774412D01*
X77901314Y-61774412D02*
X77948933Y-61822032D01*
X77948933Y-61822032D02*
X78044171Y-61869651D01*
X78044171Y-61869651D02*
X78234647Y-61869651D01*
X78234647Y-61869651D02*
X78329885Y-61822032D01*
X77520361Y-61202984D02*
X77282266Y-61869651D01*
X77044171Y-61202984D02*
X77282266Y-61869651D01*
X77282266Y-61869651D02*
X77377504Y-62107746D01*
X77377504Y-62107746D02*
X77425123Y-62155365D01*
X77425123Y-62155365D02*
X77520361Y-62202984D01*
X76663218Y-61774412D02*
X76615599Y-61822032D01*
X76615599Y-61822032D02*
X76663218Y-61869651D01*
X76663218Y-61869651D02*
X76710837Y-61822032D01*
X76710837Y-61822032D02*
X76663218Y-61774412D01*
X76663218Y-61774412D02*
X76663218Y-61869651D01*
X76663218Y-61250603D02*
X76615599Y-61298222D01*
X76615599Y-61298222D02*
X76663218Y-61345841D01*
X76663218Y-61345841D02*
X76710837Y-61298222D01*
X76710837Y-61298222D02*
X76663218Y-61250603D01*
X76663218Y-61250603D02*
X76663218Y-61345841D01*
X75425123Y-61869651D02*
X75425123Y-60869651D01*
X75425123Y-60869651D02*
X75091790Y-61583936D01*
X75091790Y-61583936D02*
X74758457Y-60869651D01*
X74758457Y-60869651D02*
X74758457Y-61869651D01*
X74282266Y-61869651D02*
X74282266Y-61202984D01*
X74282266Y-60869651D02*
X74329885Y-60917270D01*
X74329885Y-60917270D02*
X74282266Y-60964889D01*
X74282266Y-60964889D02*
X74234647Y-60917270D01*
X74234647Y-60917270D02*
X74282266Y-60869651D01*
X74282266Y-60869651D02*
X74282266Y-60964889D01*
X73806076Y-61869651D02*
X73806076Y-60869651D01*
X73710838Y-61488698D02*
X73425124Y-61869651D01*
X73425124Y-61202984D02*
X73806076Y-61583936D01*
X72615600Y-61822032D02*
X72710838Y-61869651D01*
X72710838Y-61869651D02*
X72901314Y-61869651D01*
X72901314Y-61869651D02*
X72996552Y-61822032D01*
X72996552Y-61822032D02*
X73044171Y-61726793D01*
X73044171Y-61726793D02*
X73044171Y-61345841D01*
X73044171Y-61345841D02*
X72996552Y-61250603D01*
X72996552Y-61250603D02*
X72901314Y-61202984D01*
X72901314Y-61202984D02*
X72710838Y-61202984D01*
X72710838Y-61202984D02*
X72615600Y-61250603D01*
X72615600Y-61250603D02*
X72567981Y-61345841D01*
X72567981Y-61345841D02*
X72567981Y-61441079D01*
X72567981Y-61441079D02*
X73044171Y-61536317D01*
X71377504Y-61869651D02*
X71377504Y-60869651D01*
X71377504Y-61345841D02*
X70806076Y-61345841D01*
X70806076Y-61869651D02*
X70806076Y-60869651D01*
X69901314Y-61202984D02*
X69901314Y-61869651D01*
X70329885Y-61202984D02*
X70329885Y-61726793D01*
X70329885Y-61726793D02*
X70282266Y-61822032D01*
X70282266Y-61822032D02*
X70187028Y-61869651D01*
X70187028Y-61869651D02*
X70044171Y-61869651D01*
X70044171Y-61869651D02*
X69948933Y-61822032D01*
X69948933Y-61822032D02*
X69901314Y-61774412D01*
X69425123Y-61202984D02*
X69425123Y-61869651D01*
X69425123Y-61298222D02*
X69377504Y-61250603D01*
X69377504Y-61250603D02*
X69282266Y-61202984D01*
X69282266Y-61202984D02*
X69139409Y-61202984D01*
X69139409Y-61202984D02*
X69044171Y-61250603D01*
X69044171Y-61250603D02*
X68996552Y-61345841D01*
X68996552Y-61345841D02*
X68996552Y-61869651D01*
X68091790Y-61202984D02*
X68091790Y-62012508D01*
X68091790Y-62012508D02*
X68139409Y-62107746D01*
X68139409Y-62107746D02*
X68187028Y-62155365D01*
X68187028Y-62155365D02*
X68282266Y-62202984D01*
X68282266Y-62202984D02*
X68425123Y-62202984D01*
X68425123Y-62202984D02*
X68520361Y-62155365D01*
X68091790Y-61822032D02*
X68187028Y-61869651D01*
X68187028Y-61869651D02*
X68377504Y-61869651D01*
X68377504Y-61869651D02*
X68472742Y-61822032D01*
X68472742Y-61822032D02*
X68520361Y-61774412D01*
X68520361Y-61774412D02*
X68567980Y-61679174D01*
X68567980Y-61679174D02*
X68567980Y-61393460D01*
X68567980Y-61393460D02*
X68520361Y-61298222D01*
X68520361Y-61298222D02*
X68472742Y-61250603D01*
X68472742Y-61250603D02*
X68377504Y-61202984D01*
X68377504Y-61202984D02*
X68187028Y-61202984D01*
X68187028Y-61202984D02*
X68091790Y-61250603D01*
X86663220Y-63479595D02*
X86663220Y-62479595D01*
X86663220Y-62479595D02*
X86425125Y-62479595D01*
X86425125Y-62479595D02*
X86282268Y-62527214D01*
X86282268Y-62527214D02*
X86187030Y-62622452D01*
X86187030Y-62622452D02*
X86139411Y-62717690D01*
X86139411Y-62717690D02*
X86091792Y-62908166D01*
X86091792Y-62908166D02*
X86091792Y-63051023D01*
X86091792Y-63051023D02*
X86139411Y-63241499D01*
X86139411Y-63241499D02*
X86187030Y-63336737D01*
X86187030Y-63336737D02*
X86282268Y-63431976D01*
X86282268Y-63431976D02*
X86425125Y-63479595D01*
X86425125Y-63479595D02*
X86663220Y-63479595D01*
X85234649Y-63479595D02*
X85234649Y-62955785D01*
X85234649Y-62955785D02*
X85282268Y-62860547D01*
X85282268Y-62860547D02*
X85377506Y-62812928D01*
X85377506Y-62812928D02*
X85567982Y-62812928D01*
X85567982Y-62812928D02*
X85663220Y-62860547D01*
X85234649Y-63431976D02*
X85329887Y-63479595D01*
X85329887Y-63479595D02*
X85567982Y-63479595D01*
X85567982Y-63479595D02*
X85663220Y-63431976D01*
X85663220Y-63431976D02*
X85710839Y-63336737D01*
X85710839Y-63336737D02*
X85710839Y-63241499D01*
X85710839Y-63241499D02*
X85663220Y-63146261D01*
X85663220Y-63146261D02*
X85567982Y-63098642D01*
X85567982Y-63098642D02*
X85329887Y-63098642D01*
X85329887Y-63098642D02*
X85234649Y-63051023D01*
X84901315Y-62812928D02*
X84520363Y-62812928D01*
X84758458Y-62479595D02*
X84758458Y-63336737D01*
X84758458Y-63336737D02*
X84710839Y-63431976D01*
X84710839Y-63431976D02*
X84615601Y-63479595D01*
X84615601Y-63479595D02*
X84520363Y-63479595D01*
X83806077Y-63431976D02*
X83901315Y-63479595D01*
X83901315Y-63479595D02*
X84091791Y-63479595D01*
X84091791Y-63479595D02*
X84187029Y-63431976D01*
X84187029Y-63431976D02*
X84234648Y-63336737D01*
X84234648Y-63336737D02*
X84234648Y-62955785D01*
X84234648Y-62955785D02*
X84187029Y-62860547D01*
X84187029Y-62860547D02*
X84091791Y-62812928D01*
X84091791Y-62812928D02*
X83901315Y-62812928D01*
X83901315Y-62812928D02*
X83806077Y-62860547D01*
X83806077Y-62860547D02*
X83758458Y-62955785D01*
X83758458Y-62955785D02*
X83758458Y-63051023D01*
X83758458Y-63051023D02*
X84234648Y-63146261D01*
X83329886Y-63384356D02*
X83282267Y-63431976D01*
X83282267Y-63431976D02*
X83329886Y-63479595D01*
X83329886Y-63479595D02*
X83377505Y-63431976D01*
X83377505Y-63431976D02*
X83329886Y-63384356D01*
X83329886Y-63384356D02*
X83329886Y-63479595D01*
X83329886Y-62860547D02*
X83282267Y-62908166D01*
X83282267Y-62908166D02*
X83329886Y-62955785D01*
X83329886Y-62955785D02*
X83377505Y-62908166D01*
X83377505Y-62908166D02*
X83329886Y-62860547D01*
X83329886Y-62860547D02*
X83329886Y-62955785D01*
X82139410Y-62574833D02*
X82091791Y-62527214D01*
X82091791Y-62527214D02*
X81996553Y-62479595D01*
X81996553Y-62479595D02*
X81758458Y-62479595D01*
X81758458Y-62479595D02*
X81663220Y-62527214D01*
X81663220Y-62527214D02*
X81615601Y-62574833D01*
X81615601Y-62574833D02*
X81567982Y-62670071D01*
X81567982Y-62670071D02*
X81567982Y-62765309D01*
X81567982Y-62765309D02*
X81615601Y-62908166D01*
X81615601Y-62908166D02*
X82187029Y-63479595D01*
X82187029Y-63479595D02*
X81567982Y-63479595D01*
X80948934Y-62479595D02*
X80853696Y-62479595D01*
X80853696Y-62479595D02*
X80758458Y-62527214D01*
X80758458Y-62527214D02*
X80710839Y-62574833D01*
X80710839Y-62574833D02*
X80663220Y-62670071D01*
X80663220Y-62670071D02*
X80615601Y-62860547D01*
X80615601Y-62860547D02*
X80615601Y-63098642D01*
X80615601Y-63098642D02*
X80663220Y-63289118D01*
X80663220Y-63289118D02*
X80710839Y-63384356D01*
X80710839Y-63384356D02*
X80758458Y-63431976D01*
X80758458Y-63431976D02*
X80853696Y-63479595D01*
X80853696Y-63479595D02*
X80948934Y-63479595D01*
X80948934Y-63479595D02*
X81044172Y-63431976D01*
X81044172Y-63431976D02*
X81091791Y-63384356D01*
X81091791Y-63384356D02*
X81139410Y-63289118D01*
X81139410Y-63289118D02*
X81187029Y-63098642D01*
X81187029Y-63098642D02*
X81187029Y-62860547D01*
X81187029Y-62860547D02*
X81139410Y-62670071D01*
X81139410Y-62670071D02*
X81091791Y-62574833D01*
X81091791Y-62574833D02*
X81044172Y-62527214D01*
X81044172Y-62527214D02*
X80948934Y-62479595D01*
X80234648Y-62574833D02*
X80187029Y-62527214D01*
X80187029Y-62527214D02*
X80091791Y-62479595D01*
X80091791Y-62479595D02*
X79853696Y-62479595D01*
X79853696Y-62479595D02*
X79758458Y-62527214D01*
X79758458Y-62527214D02*
X79710839Y-62574833D01*
X79710839Y-62574833D02*
X79663220Y-62670071D01*
X79663220Y-62670071D02*
X79663220Y-62765309D01*
X79663220Y-62765309D02*
X79710839Y-62908166D01*
X79710839Y-62908166D02*
X80282267Y-63479595D01*
X80282267Y-63479595D02*
X79663220Y-63479595D01*
X78806077Y-62479595D02*
X78996553Y-62479595D01*
X78996553Y-62479595D02*
X79091791Y-62527214D01*
X79091791Y-62527214D02*
X79139410Y-62574833D01*
X79139410Y-62574833D02*
X79234648Y-62717690D01*
X79234648Y-62717690D02*
X79282267Y-62908166D01*
X79282267Y-62908166D02*
X79282267Y-63289118D01*
X79282267Y-63289118D02*
X79234648Y-63384356D01*
X79234648Y-63384356D02*
X79187029Y-63431976D01*
X79187029Y-63431976D02*
X79091791Y-63479595D01*
X79091791Y-63479595D02*
X78901315Y-63479595D01*
X78901315Y-63479595D02*
X78806077Y-63431976D01*
X78806077Y-63431976D02*
X78758458Y-63384356D01*
X78758458Y-63384356D02*
X78710839Y-63289118D01*
X78710839Y-63289118D02*
X78710839Y-63051023D01*
X78710839Y-63051023D02*
X78758458Y-62955785D01*
X78758458Y-62955785D02*
X78806077Y-62908166D01*
X78806077Y-62908166D02*
X78901315Y-62860547D01*
X78901315Y-62860547D02*
X79091791Y-62860547D01*
X79091791Y-62860547D02*
X79187029Y-62908166D01*
X79187029Y-62908166D02*
X79234648Y-62955785D01*
X79234648Y-62955785D02*
X79282267Y-63051023D01*
X77567982Y-62431976D02*
X78425124Y-63717690D01*
X77044172Y-62479595D02*
X76948934Y-62479595D01*
X76948934Y-62479595D02*
X76853696Y-62527214D01*
X76853696Y-62527214D02*
X76806077Y-62574833D01*
X76806077Y-62574833D02*
X76758458Y-62670071D01*
X76758458Y-62670071D02*
X76710839Y-62860547D01*
X76710839Y-62860547D02*
X76710839Y-63098642D01*
X76710839Y-63098642D02*
X76758458Y-63289118D01*
X76758458Y-63289118D02*
X76806077Y-63384356D01*
X76806077Y-63384356D02*
X76853696Y-63431976D01*
X76853696Y-63431976D02*
X76948934Y-63479595D01*
X76948934Y-63479595D02*
X77044172Y-63479595D01*
X77044172Y-63479595D02*
X77139410Y-63431976D01*
X77139410Y-63431976D02*
X77187029Y-63384356D01*
X77187029Y-63384356D02*
X77234648Y-63289118D01*
X77234648Y-63289118D02*
X77282267Y-63098642D01*
X77282267Y-63098642D02*
X77282267Y-62860547D01*
X77282267Y-62860547D02*
X77234648Y-62670071D01*
X77234648Y-62670071D02*
X77187029Y-62574833D01*
X77187029Y-62574833D02*
X77139410Y-62527214D01*
X77139410Y-62527214D02*
X77044172Y-62479595D01*
X76377505Y-62479595D02*
X75710839Y-62479595D01*
X75710839Y-62479595D02*
X76139410Y-63479595D01*
X74615601Y-62431976D02*
X75472743Y-63717690D01*
X74329886Y-62574833D02*
X74282267Y-62527214D01*
X74282267Y-62527214D02*
X74187029Y-62479595D01*
X74187029Y-62479595D02*
X73948934Y-62479595D01*
X73948934Y-62479595D02*
X73853696Y-62527214D01*
X73853696Y-62527214D02*
X73806077Y-62574833D01*
X73806077Y-62574833D02*
X73758458Y-62670071D01*
X73758458Y-62670071D02*
X73758458Y-62765309D01*
X73758458Y-62765309D02*
X73806077Y-62908166D01*
X73806077Y-62908166D02*
X74377505Y-63479595D01*
X74377505Y-63479595D02*
X73758458Y-63479595D01*
X73139410Y-62479595D02*
X73044172Y-62479595D01*
X73044172Y-62479595D02*
X72948934Y-62527214D01*
X72948934Y-62527214D02*
X72901315Y-62574833D01*
X72901315Y-62574833D02*
X72853696Y-62670071D01*
X72853696Y-62670071D02*
X72806077Y-62860547D01*
X72806077Y-62860547D02*
X72806077Y-63098642D01*
X72806077Y-63098642D02*
X72853696Y-63289118D01*
X72853696Y-63289118D02*
X72901315Y-63384356D01*
X72901315Y-63384356D02*
X72948934Y-63431976D01*
X72948934Y-63431976D02*
X73044172Y-63479595D01*
X73044172Y-63479595D02*
X73139410Y-63479595D01*
X73139410Y-63479595D02*
X73234648Y-63431976D01*
X73234648Y-63431976D02*
X73282267Y-63384356D01*
X73282267Y-63384356D02*
X73329886Y-63289118D01*
X73329886Y-63289118D02*
X73377505Y-63098642D01*
X73377505Y-63098642D02*
X73377505Y-62860547D01*
X73377505Y-62860547D02*
X73329886Y-62670071D01*
X73329886Y-62670071D02*
X73282267Y-62574833D01*
X73282267Y-62574833D02*
X73234648Y-62527214D01*
X73234648Y-62527214D02*
X73139410Y-62479595D01*
X61738094Y-52169104D02*
X61261904Y-52169104D01*
X61833332Y-52454819D02*
X61499999Y-51454819D01*
X61499999Y-51454819D02*
X61166666Y-52454819D01*
X60261904Y-52359580D02*
X60309523Y-52407200D01*
X60309523Y-52407200D02*
X60452380Y-52454819D01*
X60452380Y-52454819D02*
X60547618Y-52454819D01*
X60547618Y-52454819D02*
X60690475Y-52407200D01*
X60690475Y-52407200D02*
X60785713Y-52311961D01*
X60785713Y-52311961D02*
X60833332Y-52216723D01*
X60833332Y-52216723D02*
X60880951Y-52026247D01*
X60880951Y-52026247D02*
X60880951Y-51883390D01*
X60880951Y-51883390D02*
X60833332Y-51692914D01*
X60833332Y-51692914D02*
X60785713Y-51597676D01*
X60785713Y-51597676D02*
X60690475Y-51502438D01*
X60690475Y-51502438D02*
X60547618Y-51454819D01*
X60547618Y-51454819D02*
X60452380Y-51454819D01*
X60452380Y-51454819D02*
X60309523Y-51502438D01*
X60309523Y-51502438D02*
X60261904Y-51550057D01*
X79761904Y-52454819D02*
X79761904Y-51454819D01*
X79761904Y-51454819D02*
X79523809Y-51454819D01*
X79523809Y-51454819D02*
X79380952Y-51502438D01*
X79380952Y-51502438D02*
X79285714Y-51597676D01*
X79285714Y-51597676D02*
X79238095Y-51692914D01*
X79238095Y-51692914D02*
X79190476Y-51883390D01*
X79190476Y-51883390D02*
X79190476Y-52026247D01*
X79190476Y-52026247D02*
X79238095Y-52216723D01*
X79238095Y-52216723D02*
X79285714Y-52311961D01*
X79285714Y-52311961D02*
X79380952Y-52407200D01*
X79380952Y-52407200D02*
X79523809Y-52454819D01*
X79523809Y-52454819D02*
X79761904Y-52454819D01*
X78190476Y-52359580D02*
X78238095Y-52407200D01*
X78238095Y-52407200D02*
X78380952Y-52454819D01*
X78380952Y-52454819D02*
X78476190Y-52454819D01*
X78476190Y-52454819D02*
X78619047Y-52407200D01*
X78619047Y-52407200D02*
X78714285Y-52311961D01*
X78714285Y-52311961D02*
X78761904Y-52216723D01*
X78761904Y-52216723D02*
X78809523Y-52026247D01*
X78809523Y-52026247D02*
X78809523Y-51883390D01*
X78809523Y-51883390D02*
X78761904Y-51692914D01*
X78761904Y-51692914D02*
X78714285Y-51597676D01*
X78714285Y-51597676D02*
X78619047Y-51502438D01*
X78619047Y-51502438D02*
X78476190Y-51454819D01*
X78476190Y-51454819D02*
X78380952Y-51454819D01*
X78380952Y-51454819D02*
X78238095Y-51502438D01*
X78238095Y-51502438D02*
X78190476Y-51550057D01*
D11*
%TO.C,G3*%
G36*
X83316110Y-74047007D02*
G01*
X83316110Y-74505369D01*
X83237853Y-74505369D01*
X83159595Y-74505369D01*
X83159595Y-74047007D01*
X83159595Y-73588644D01*
X83237853Y-73588644D01*
X83316110Y-73588644D01*
X83316110Y-74047007D01*
G37*
G36*
X87228962Y-71676936D02*
G01*
X87228962Y-72291813D01*
X87150705Y-72291813D01*
X87072448Y-72291813D01*
X87072448Y-71676936D01*
X87072448Y-71062059D01*
X87150705Y-71062059D01*
X87228962Y-71062059D01*
X87228962Y-71676936D01*
G37*
G36*
X80431779Y-71676936D02*
G01*
X80431779Y-72291813D01*
X80062853Y-72291813D01*
X79693926Y-72291813D01*
X79693926Y-72224735D01*
X79693926Y-72157658D01*
X79973416Y-72157658D01*
X80252905Y-72157658D01*
X80252905Y-71609859D01*
X80252905Y-71062059D01*
X80342342Y-71062059D01*
X80431779Y-71062059D01*
X80431779Y-71676936D01*
G37*
G36*
X83291964Y-73263912D02*
G01*
X83327250Y-73302982D01*
X83335941Y-73355539D01*
X83311638Y-73405299D01*
X83299103Y-73415885D01*
X83244544Y-73432006D01*
X83191084Y-73412498D01*
X83153883Y-73361563D01*
X83151609Y-73350423D01*
X83165898Y-73306992D01*
X83204106Y-73269328D01*
X83251911Y-73253257D01*
X83291964Y-73263912D01*
G37*
G36*
X85171919Y-73342693D02*
G01*
X85171919Y-73409771D01*
X85004226Y-73409771D01*
X84836532Y-73409771D01*
X84836532Y-73957570D01*
X84836532Y-74505369D01*
X84747095Y-74505369D01*
X84657659Y-74505369D01*
X84657659Y-73957570D01*
X84657659Y-73409771D01*
X84489965Y-73409771D01*
X84322272Y-73409771D01*
X84322272Y-73342693D01*
X84322272Y-73275616D01*
X84747095Y-73275616D01*
X85171919Y-73275616D01*
X85171919Y-73342693D01*
G37*
G36*
X82938979Y-67068083D02*
G01*
X83040429Y-67133191D01*
X83061314Y-67152940D01*
X83115652Y-67216740D01*
X83151746Y-67276705D01*
X83170945Y-67336792D01*
X83178920Y-67459671D01*
X83150027Y-67579025D01*
X83087743Y-67684005D01*
X82995550Y-67763763D01*
X82897920Y-67805351D01*
X82780719Y-67816043D01*
X82669251Y-67787299D01*
X82571660Y-67721448D01*
X82496088Y-67620823D01*
X82470822Y-67563931D01*
X82446731Y-67447196D01*
X82456790Y-67336656D01*
X82495726Y-67237036D01*
X82558265Y-67153060D01*
X82639134Y-67089453D01*
X82733058Y-67050938D01*
X82834765Y-67042240D01*
X82938979Y-67068083D01*
G37*
G36*
X84892968Y-71398377D02*
G01*
X85087711Y-71734694D01*
X85286797Y-71398377D01*
X85485883Y-71062059D01*
X85574852Y-71062059D01*
X85663821Y-71062059D01*
X85663821Y-71676936D01*
X85663821Y-72291813D01*
X85586000Y-72291813D01*
X85508179Y-72291813D01*
X85502153Y-71805501D01*
X85496127Y-71319190D01*
X85320748Y-71616731D01*
X85251656Y-71732969D01*
X85188958Y-71830072D01*
X85138051Y-71889087D01*
X85093207Y-71909929D01*
X85048696Y-71892513D01*
X84998792Y-71836753D01*
X84937767Y-71742563D01*
X84859891Y-71609859D01*
X84691198Y-71319190D01*
X84685172Y-71805501D01*
X84679146Y-72291813D01*
X84601325Y-72291813D01*
X84523504Y-72291813D01*
X84523504Y-71676936D01*
X84523504Y-71062059D01*
X84610865Y-71062059D01*
X84698226Y-71062059D01*
X84892968Y-71398377D01*
G37*
G36*
X82277732Y-71341549D02*
G01*
X82298327Y-71379481D01*
X82351546Y-71474578D01*
X82396751Y-71551240D01*
X82429691Y-71602413D01*
X82446115Y-71621038D01*
X82449816Y-71618547D01*
X82472448Y-71587363D01*
X82509872Y-71526075D01*
X82557873Y-71441773D01*
X82612235Y-71341549D01*
X82760503Y-71062059D01*
X82848254Y-71062059D01*
X82866750Y-71062365D01*
X82916174Y-71067063D01*
X82936004Y-71075632D01*
X82926499Y-71096532D01*
X82898156Y-71150373D01*
X82854430Y-71230590D01*
X82798807Y-71330792D01*
X82734772Y-71444590D01*
X82533539Y-71799976D01*
X82533539Y-72045894D01*
X82533539Y-72291813D01*
X82444103Y-72291813D01*
X82354666Y-72291813D01*
X82354666Y-72039724D01*
X82354666Y-71787636D01*
X82196336Y-71508694D01*
X82180687Y-71481089D01*
X82120156Y-71373675D01*
X82065307Y-71275411D01*
X82021638Y-71196190D01*
X81994649Y-71145906D01*
X81951292Y-71062059D01*
X82039247Y-71062059D01*
X82127201Y-71062059D01*
X82277732Y-71341549D01*
G37*
G36*
X80167113Y-73576720D02*
G01*
X80275993Y-73610559D01*
X80369473Y-73671219D01*
X80392024Y-73690046D01*
X80406720Y-73688486D01*
X80409419Y-73648007D01*
X80413271Y-73611445D01*
X80434900Y-73592659D01*
X80487676Y-73588644D01*
X80565933Y-73588644D01*
X80565933Y-74047007D01*
X80565933Y-74505369D01*
X80487676Y-74505369D01*
X80409419Y-74505369D01*
X80409419Y-74173879D01*
X80409396Y-74129388D01*
X80408716Y-74012934D01*
X80406322Y-73931121D01*
X80401189Y-73876264D01*
X80392293Y-73840676D01*
X80378609Y-73816672D01*
X80359111Y-73796568D01*
X80302281Y-73752418D01*
X80207472Y-73708664D01*
X80117077Y-73701359D01*
X80039177Y-73732131D01*
X80033146Y-73736864D01*
X80018514Y-73754224D01*
X80007918Y-73782011D01*
X80000497Y-73827084D01*
X79995391Y-73896300D01*
X79991739Y-73996518D01*
X79988681Y-74134596D01*
X79981586Y-74505369D01*
X79904834Y-74505369D01*
X79828081Y-74505369D01*
X79828081Y-74145412D01*
X79828487Y-74059506D01*
X79832380Y-73915437D01*
X79841681Y-73806634D01*
X79857949Y-73726833D01*
X79882743Y-73669775D01*
X79917620Y-73629197D01*
X79964141Y-73598839D01*
X80057526Y-73572325D01*
X80167113Y-73576720D01*
G37*
G36*
X78508891Y-72291813D02*
G01*
X78439721Y-72291813D01*
X78437756Y-72291807D01*
X78383152Y-72281412D01*
X78358929Y-72247376D01*
X78358406Y-72245381D01*
X78348017Y-72217806D01*
X78329334Y-72217619D01*
X78288355Y-72244188D01*
X78237637Y-72276573D01*
X78195863Y-72298039D01*
X78145552Y-72311116D01*
X78036696Y-72309291D01*
X77927421Y-72273478D01*
X77831707Y-72207165D01*
X77783740Y-72145596D01*
X77737548Y-72037106D01*
X77712442Y-71909306D01*
X77710761Y-71833450D01*
X77874224Y-71833450D01*
X77875228Y-71877241D01*
X77893281Y-72005483D01*
X77933060Y-72099796D01*
X77993392Y-72156995D01*
X78002371Y-72161291D01*
X78075526Y-72177285D01*
X78159690Y-72174771D01*
X78229402Y-72154065D01*
X78262885Y-72133528D01*
X78307248Y-72091477D01*
X78334341Y-72034551D01*
X78347955Y-71952932D01*
X78351880Y-71836804D01*
X78351901Y-71827906D01*
X78351307Y-71735746D01*
X78346790Y-71675262D01*
X78335016Y-71634357D01*
X78312650Y-71600936D01*
X78276356Y-71562904D01*
X78242183Y-71531380D01*
X78183837Y-71496494D01*
X78118372Y-71486883D01*
X78054666Y-71492478D01*
X77973207Y-71526300D01*
X77917098Y-71592816D01*
X77884663Y-71694405D01*
X77874224Y-71833450D01*
X77710761Y-71833450D01*
X77709449Y-71774206D01*
X77729594Y-71643815D01*
X77773901Y-71530144D01*
X77848399Y-71437083D01*
X77944756Y-71377828D01*
X78053489Y-71355506D01*
X78165872Y-71371889D01*
X78273178Y-71428751D01*
X78352377Y-71489159D01*
X78352377Y-71275609D01*
X78352377Y-71062059D01*
X78430634Y-71062059D01*
X78508891Y-71062059D01*
X78508891Y-71676936D01*
X78508891Y-71827906D01*
X78508891Y-72291813D01*
G37*
G36*
X81840405Y-72291813D02*
G01*
X81771235Y-72291813D01*
X81769270Y-72291807D01*
X81714666Y-72281412D01*
X81690444Y-72247376D01*
X81689920Y-72245381D01*
X81679531Y-72217806D01*
X81660848Y-72217619D01*
X81619870Y-72244188D01*
X81569152Y-72276573D01*
X81527377Y-72298039D01*
X81477066Y-72311116D01*
X81368210Y-72309291D01*
X81258935Y-72273478D01*
X81163221Y-72207165D01*
X81115254Y-72145596D01*
X81069062Y-72037106D01*
X81043956Y-71909306D01*
X81042275Y-71833450D01*
X81205738Y-71833450D01*
X81206742Y-71877241D01*
X81224795Y-72005483D01*
X81264574Y-72099796D01*
X81324906Y-72156995D01*
X81333885Y-72161291D01*
X81407041Y-72177285D01*
X81491204Y-72174771D01*
X81560916Y-72154065D01*
X81594399Y-72133528D01*
X81638762Y-72091477D01*
X81665855Y-72034551D01*
X81679469Y-71952932D01*
X81683394Y-71836804D01*
X81683416Y-71827906D01*
X81682821Y-71735746D01*
X81678304Y-71675262D01*
X81666530Y-71634357D01*
X81644164Y-71600936D01*
X81607870Y-71562904D01*
X81573698Y-71531380D01*
X81515351Y-71496494D01*
X81449886Y-71486883D01*
X81386180Y-71492478D01*
X81304721Y-71526300D01*
X81248613Y-71592816D01*
X81216177Y-71694405D01*
X81205738Y-71833450D01*
X81042275Y-71833450D01*
X81040963Y-71774206D01*
X81061108Y-71643815D01*
X81105415Y-71530144D01*
X81179913Y-71437083D01*
X81276270Y-71377828D01*
X81385003Y-71355506D01*
X81497386Y-71371889D01*
X81604692Y-71428751D01*
X81683891Y-71489159D01*
X81683891Y-71275609D01*
X81683891Y-71062059D01*
X81762148Y-71062059D01*
X81840405Y-71062059D01*
X81840405Y-71676936D01*
X81840405Y-71827906D01*
X81840405Y-72291813D01*
G37*
G36*
X84352084Y-74246765D02*
G01*
X84337459Y-74347169D01*
X84287325Y-74435823D01*
X84203198Y-74496414D01*
X84149648Y-74513436D01*
X84042299Y-74519448D01*
X83932998Y-74497581D01*
X83840558Y-74450231D01*
X83791527Y-74414257D01*
X83757980Y-74397561D01*
X83743835Y-74409320D01*
X83740933Y-74449471D01*
X83739332Y-74473779D01*
X83721794Y-74499353D01*
X83673856Y-74505369D01*
X83606779Y-74505369D01*
X83607108Y-74142033D01*
X83607611Y-74053034D01*
X83763293Y-74053034D01*
X83763293Y-74166600D01*
X83763988Y-74210799D01*
X83772185Y-74263174D01*
X83796828Y-74299196D01*
X83846740Y-74336870D01*
X83886884Y-74358977D01*
X83965596Y-74384573D01*
X84046831Y-74395091D01*
X84116258Y-74389214D01*
X84159549Y-74365625D01*
X84190190Y-74309642D01*
X84196273Y-74232514D01*
X84163065Y-74164337D01*
X84093232Y-74115184D01*
X84057805Y-74103047D01*
X83977962Y-74083439D01*
X83891858Y-74068971D01*
X83763293Y-74053034D01*
X83607611Y-74053034D01*
X83607828Y-74014732D01*
X83611211Y-73894777D01*
X83618903Y-73806390D01*
X83632555Y-73742360D01*
X83653821Y-73695481D01*
X83684353Y-73658543D01*
X83725804Y-73624338D01*
X83744645Y-73611565D01*
X83792798Y-73590721D01*
X83857754Y-73580303D01*
X83953345Y-73577464D01*
X83962340Y-73577494D01*
X84080963Y-73586526D01*
X84167717Y-73615266D01*
X84232520Y-73668954D01*
X84285290Y-73752830D01*
X84301182Y-73788331D01*
X84314440Y-73852381D01*
X84293001Y-73889620D01*
X84236332Y-73901672D01*
X84211290Y-73900455D01*
X84175502Y-73883488D01*
X84158135Y-73835609D01*
X84152128Y-73814292D01*
X84106833Y-73749230D01*
X84031959Y-73706441D01*
X83937610Y-73692482D01*
X83903135Y-73695069D01*
X83824381Y-73722094D01*
X83778299Y-73779350D01*
X83763293Y-73868447D01*
X83763293Y-73962446D01*
X83949167Y-73974042D01*
X84085708Y-73989701D01*
X84205856Y-74023951D01*
X84288698Y-74077126D01*
X84336638Y-74150855D01*
X84349789Y-74232514D01*
X84352084Y-74246765D01*
G37*
G36*
X86738182Y-71842999D02*
G01*
X86788698Y-71980509D01*
X86831456Y-72098089D01*
X86864473Y-72190254D01*
X86885762Y-72251517D01*
X86893342Y-72276393D01*
X86892082Y-72279483D01*
X86864082Y-72287754D01*
X86810812Y-72287573D01*
X86779584Y-72284270D01*
X86747445Y-72274081D01*
X86723726Y-72249212D01*
X86700807Y-72200449D01*
X86671068Y-72118577D01*
X86614085Y-71956521D01*
X86364051Y-71956473D01*
X86300001Y-71956561D01*
X86212012Y-71957874D01*
X86156076Y-71961993D01*
X86123982Y-71970474D01*
X86107520Y-71984869D01*
X86098480Y-72006734D01*
X86089693Y-72033536D01*
X86066878Y-72098938D01*
X86039469Y-72174427D01*
X86039313Y-72174848D01*
X86012956Y-72241478D01*
X85989738Y-72276312D01*
X85957922Y-72289655D01*
X85905773Y-72291813D01*
X85849845Y-72289171D01*
X85827492Y-72277778D01*
X85830969Y-72252684D01*
X85839642Y-72229733D01*
X85862387Y-72168577D01*
X85896423Y-72076608D01*
X85939492Y-71959939D01*
X85989337Y-71824678D01*
X85990223Y-71822271D01*
X86156759Y-71822271D01*
X86357473Y-71822271D01*
X86401982Y-71821852D01*
X86482033Y-71818622D01*
X86537304Y-71812893D01*
X86557829Y-71805501D01*
X86557823Y-71805348D01*
X86550676Y-71778856D01*
X86532262Y-71722272D01*
X86505798Y-71644646D01*
X86474501Y-71555029D01*
X86441590Y-71462471D01*
X86410281Y-71376023D01*
X86383793Y-71304736D01*
X86365343Y-71257658D01*
X86358149Y-71243842D01*
X86357648Y-71246204D01*
X86347051Y-71279907D01*
X86324846Y-71345603D01*
X86293845Y-71435074D01*
X86256857Y-71540101D01*
X86156759Y-71822271D01*
X85990223Y-71822271D01*
X86043701Y-71676936D01*
X86088881Y-71554154D01*
X86139751Y-71416138D01*
X86184274Y-71295592D01*
X86220184Y-71198642D01*
X86245214Y-71131416D01*
X86257098Y-71100041D01*
X86266484Y-71083738D01*
X86299401Y-71067019D01*
X86362518Y-71066502D01*
X86451853Y-71073239D01*
X86672481Y-71665757D01*
X86681891Y-71691045D01*
X86724291Y-71805501D01*
X86738182Y-71842999D01*
G37*
G36*
X83989319Y-71064551D02*
G01*
X84085452Y-71096727D01*
X84140826Y-71133727D01*
X84211095Y-71217098D01*
X84248299Y-71317066D01*
X84249377Y-71423209D01*
X84211269Y-71525110D01*
X84185611Y-71560225D01*
X84132376Y-71607353D01*
X84055473Y-71650892D01*
X83948085Y-71694462D01*
X83803393Y-71741685D01*
X83718640Y-71769521D01*
X83630551Y-71808456D01*
X83575722Y-71851462D01*
X83547617Y-71904263D01*
X83539701Y-71972580D01*
X83539794Y-71978177D01*
X83562449Y-72055617D01*
X83619508Y-72116189D01*
X83703026Y-72156000D01*
X83805057Y-72171157D01*
X83917657Y-72157767D01*
X83950602Y-72148716D01*
X84034929Y-72112228D01*
X84085936Y-72060400D01*
X84112134Y-71985707D01*
X84113444Y-71978816D01*
X84127036Y-71932146D01*
X84153129Y-71915101D01*
X84207597Y-71916109D01*
X84213850Y-71916643D01*
X84263842Y-71924836D01*
X84282167Y-71945244D01*
X84280818Y-71989964D01*
X84269542Y-72046526D01*
X84217184Y-72152287D01*
X84129062Y-72233937D01*
X84008426Y-72287920D01*
X83935629Y-72303474D01*
X83800962Y-72309235D01*
X83669063Y-72289451D01*
X83552624Y-72246570D01*
X83464339Y-72183039D01*
X83408093Y-72098926D01*
X83375518Y-71989707D01*
X83377001Y-71879539D01*
X83390855Y-71826595D01*
X83423171Y-71762479D01*
X83475548Y-71708390D01*
X83553997Y-71659959D01*
X83664524Y-71612823D01*
X83813138Y-71562615D01*
X83825616Y-71558682D01*
X83934264Y-71521344D01*
X84006760Y-71487363D01*
X84050003Y-71451160D01*
X84070891Y-71407158D01*
X84076321Y-71349778D01*
X84068317Y-71292442D01*
X84027899Y-71231919D01*
X83952165Y-71196805D01*
X83839761Y-71186163D01*
X83803444Y-71187726D01*
X83699078Y-71210660D01*
X83627566Y-71259506D01*
X83591808Y-71332553D01*
X83578355Y-71376954D01*
X83552154Y-71393780D01*
X83497544Y-71393026D01*
X83445304Y-71385226D01*
X83423034Y-71366042D01*
X83420969Y-71324532D01*
X83421324Y-71320188D01*
X83449779Y-71234001D01*
X83512708Y-71154421D01*
X83600748Y-71093479D01*
X83637445Y-71078613D01*
X83747163Y-71055373D01*
X83870505Y-71050726D01*
X83989319Y-71064551D01*
G37*
G36*
X82411705Y-73590796D02*
G01*
X82430790Y-73602284D01*
X82448108Y-73628287D01*
X82466517Y-73674489D01*
X82488875Y-73746571D01*
X82518042Y-73850217D01*
X82556875Y-73991109D01*
X82584861Y-74090433D01*
X82610856Y-74179003D01*
X82630939Y-74243492D01*
X82642235Y-74274355D01*
X82649037Y-74269394D01*
X82666454Y-74229632D01*
X82691405Y-74157937D01*
X82721682Y-74060762D01*
X82755079Y-73944558D01*
X82853643Y-73588644D01*
X82928362Y-73588644D01*
X82935622Y-73588757D01*
X82983498Y-73596471D01*
X83003081Y-73612590D01*
X83001418Y-73620938D01*
X82989455Y-73665573D01*
X82967921Y-73741120D01*
X82939151Y-73839746D01*
X82905479Y-73953616D01*
X82869241Y-74074895D01*
X82832772Y-74195749D01*
X82798406Y-74308345D01*
X82768479Y-74404846D01*
X82745325Y-74477420D01*
X82743083Y-74481604D01*
X82709410Y-74498668D01*
X82649910Y-74505369D01*
X82563645Y-74505369D01*
X82466462Y-74158802D01*
X82444161Y-74080620D01*
X82412379Y-73974016D01*
X82385319Y-73888944D01*
X82365306Y-73832614D01*
X82354666Y-73812235D01*
X82348859Y-73821188D01*
X82331806Y-73865971D01*
X82306907Y-73941974D01*
X82276486Y-74041988D01*
X82242870Y-74158802D01*
X82145687Y-74505369D01*
X82061085Y-74505369D01*
X81976483Y-74505369D01*
X81887797Y-74220290D01*
X81854187Y-74112105D01*
X81804121Y-73950095D01*
X81765775Y-73824569D01*
X81737982Y-73731594D01*
X81719575Y-73667237D01*
X81709387Y-73627566D01*
X81706250Y-73608648D01*
X81706543Y-73606867D01*
X81730220Y-73593939D01*
X81780228Y-73588644D01*
X81854206Y-73588644D01*
X81952627Y-73945412D01*
X81977149Y-74033390D01*
X82007483Y-74139462D01*
X82032348Y-74223189D01*
X82049671Y-74277632D01*
X82057377Y-74295850D01*
X82059375Y-74291312D01*
X82071924Y-74253291D01*
X82093480Y-74183256D01*
X82121678Y-74088975D01*
X82154151Y-73978211D01*
X82166432Y-73935956D01*
X82198565Y-73825530D01*
X82225999Y-73731445D01*
X82246147Y-73662569D01*
X82256419Y-73627772D01*
X82259873Y-73619145D01*
X82290455Y-73595639D01*
X82354439Y-73588644D01*
X82356803Y-73588638D01*
X82387996Y-73588142D01*
X82411705Y-73590796D01*
G37*
G36*
X79534992Y-72115822D02*
G01*
X79492932Y-72202454D01*
X79421372Y-72268881D01*
X79415866Y-72272115D01*
X79342484Y-72301677D01*
X79269103Y-72313597D01*
X79243208Y-72311732D01*
X79170116Y-72295669D01*
X79093045Y-72268294D01*
X79028017Y-72235881D01*
X78991052Y-72204704D01*
X78967243Y-72181577D01*
X78943605Y-72190961D01*
X78933715Y-72235915D01*
X78932113Y-72260223D01*
X78914576Y-72285797D01*
X78866638Y-72291813D01*
X78799560Y-72291813D01*
X78799560Y-71913423D01*
X78799591Y-71893242D01*
X78958048Y-71893242D01*
X78960496Y-71961261D01*
X78962907Y-71995543D01*
X78973386Y-72054438D01*
X78997308Y-72093130D01*
X79043228Y-72128955D01*
X79102729Y-72158318D01*
X79191770Y-72178186D01*
X79278150Y-72176304D01*
X79344442Y-72151376D01*
X79368939Y-72121592D01*
X79384823Y-72058586D01*
X79376875Y-71989431D01*
X79345043Y-71932992D01*
X79332627Y-71923080D01*
X79272660Y-71894705D01*
X79188436Y-71869529D01*
X79095088Y-71851515D01*
X79007752Y-71844630D01*
X78982800Y-71846136D01*
X78963972Y-71858594D01*
X78958048Y-71893242D01*
X78799591Y-71893242D01*
X78799773Y-71775056D01*
X78801039Y-71673878D01*
X78804303Y-71602578D01*
X78810507Y-71553736D01*
X78820594Y-71519929D01*
X78835507Y-71493735D01*
X78856190Y-71467732D01*
X78942684Y-71397424D01*
X79056756Y-71361239D01*
X79198338Y-71359938D01*
X79224812Y-71363164D01*
X79335692Y-71393016D01*
X79417197Y-71449851D01*
X79478072Y-71539274D01*
X79495319Y-71578196D01*
X79507185Y-71640645D01*
X79484426Y-71676594D01*
X79426318Y-71688116D01*
X79413040Y-71687848D01*
X79370465Y-71677195D01*
X79358539Y-71646413D01*
X79355848Y-71624889D01*
X79324547Y-71562898D01*
X79269207Y-71509377D01*
X79203809Y-71479414D01*
X79173150Y-71475739D01*
X79093428Y-71483999D01*
X79022510Y-71512323D01*
X78977962Y-71554843D01*
X78976787Y-71557151D01*
X78962119Y-71609300D01*
X78956074Y-71675466D01*
X78956074Y-71755193D01*
X79086676Y-71755193D01*
X79190366Y-71761867D01*
X79305672Y-71783600D01*
X79404388Y-71816819D01*
X79472544Y-71857808D01*
X79524627Y-71930007D01*
X79546056Y-72021001D01*
X79541670Y-72058586D01*
X79534992Y-72115822D01*
G37*
G36*
X81592034Y-74329379D02*
G01*
X81549975Y-74416011D01*
X81478415Y-74482437D01*
X81472908Y-74485671D01*
X81399526Y-74515233D01*
X81326145Y-74527154D01*
X81300250Y-74525288D01*
X81227158Y-74509225D01*
X81150087Y-74481850D01*
X81085059Y-74449438D01*
X81048094Y-74418261D01*
X81024286Y-74395133D01*
X81000648Y-74404517D01*
X80990757Y-74449471D01*
X80989156Y-74473779D01*
X80971618Y-74499353D01*
X80923680Y-74505369D01*
X80856603Y-74505369D01*
X80856603Y-74126979D01*
X80856634Y-74106798D01*
X81015090Y-74106798D01*
X81017538Y-74174818D01*
X81019950Y-74209100D01*
X81030428Y-74267994D01*
X81054351Y-74306686D01*
X81100270Y-74342511D01*
X81159771Y-74371874D01*
X81248812Y-74391742D01*
X81335192Y-74389861D01*
X81401484Y-74364933D01*
X81425982Y-74335148D01*
X81441865Y-74272143D01*
X81433917Y-74202987D01*
X81402085Y-74146549D01*
X81389669Y-74136636D01*
X81329702Y-74108262D01*
X81245478Y-74083085D01*
X81152131Y-74065072D01*
X81064794Y-74058186D01*
X81039842Y-74059693D01*
X81021014Y-74072150D01*
X81015090Y-74106798D01*
X80856634Y-74106798D01*
X80856815Y-73988612D01*
X80858082Y-73887434D01*
X80861345Y-73816135D01*
X80867549Y-73767293D01*
X80877636Y-73733486D01*
X80892550Y-73707292D01*
X80913232Y-73681289D01*
X80999726Y-73610980D01*
X81113798Y-73574796D01*
X81255380Y-73573494D01*
X81281854Y-73576720D01*
X81392734Y-73606572D01*
X81474239Y-73663407D01*
X81535114Y-73752830D01*
X81552361Y-73791753D01*
X81564228Y-73854202D01*
X81541468Y-73890150D01*
X81483361Y-73901672D01*
X81470082Y-73901405D01*
X81427507Y-73890752D01*
X81415581Y-73859969D01*
X81412890Y-73838446D01*
X81381589Y-73776455D01*
X81326250Y-73722933D01*
X81260852Y-73692971D01*
X81230192Y-73689295D01*
X81150470Y-73697555D01*
X81079552Y-73725879D01*
X81035004Y-73768399D01*
X81033830Y-73770707D01*
X81019162Y-73822856D01*
X81013117Y-73889023D01*
X81013117Y-73968750D01*
X81143718Y-73968750D01*
X81247408Y-73975423D01*
X81362714Y-73997156D01*
X81461431Y-74030375D01*
X81529586Y-74071365D01*
X81581670Y-74143563D01*
X81603098Y-74234557D01*
X81598712Y-74272143D01*
X81592034Y-74329379D01*
G37*
G36*
X85006094Y-67439721D02*
G01*
X84998093Y-67622617D01*
X84980021Y-67791044D01*
X84952011Y-67931285D01*
X84928825Y-68011712D01*
X84814710Y-68313380D01*
X84665246Y-68589923D01*
X84481995Y-68839132D01*
X84266524Y-69058798D01*
X84020397Y-69246711D01*
X83968910Y-69279467D01*
X83701349Y-69419411D01*
X83419968Y-69520040D01*
X83129493Y-69581550D01*
X82834649Y-69604139D01*
X82540162Y-69588002D01*
X82250758Y-69533337D01*
X81971162Y-69440340D01*
X81706101Y-69309208D01*
X81460300Y-69140139D01*
X81416646Y-69105600D01*
X81349217Y-69054167D01*
X81299460Y-69018705D01*
X81275837Y-69005394D01*
X81271431Y-69018691D01*
X81266502Y-69069955D01*
X81262585Y-69152948D01*
X81260000Y-69260421D01*
X81259067Y-69385123D01*
X81259386Y-69484928D01*
X81260610Y-69596669D01*
X81262589Y-69685473D01*
X81265151Y-69744080D01*
X81268122Y-69765228D01*
X81275692Y-69758057D01*
X81300915Y-69721999D01*
X81335465Y-69665768D01*
X81374061Y-69603070D01*
X81407309Y-69562134D01*
X81436328Y-69548452D01*
X81469462Y-69555136D01*
X81484617Y-69563079D01*
X81500469Y-69587590D01*
X81497034Y-69628334D01*
X81472620Y-69690338D01*
X81425537Y-69778632D01*
X81354094Y-69898244D01*
X81344525Y-69913774D01*
X81288177Y-70003729D01*
X81240765Y-70076964D01*
X81207024Y-70126296D01*
X81191691Y-70144544D01*
X81189561Y-70143182D01*
X81168383Y-70116287D01*
X81129580Y-70060196D01*
X81077816Y-69981791D01*
X81017756Y-69887951D01*
X81000251Y-69860137D01*
X80939328Y-69760966D01*
X80899797Y-69690608D01*
X80878612Y-69642431D01*
X80872727Y-69609806D01*
X80879097Y-69586102D01*
X80898031Y-69559077D01*
X80924467Y-69541637D01*
X80937871Y-69544993D01*
X80979694Y-69576174D01*
X81026777Y-69630687D01*
X81068400Y-69696962D01*
X81072204Y-69704204D01*
X81098050Y-69747532D01*
X81114307Y-69765228D01*
X81116992Y-69752991D01*
X81120147Y-69702915D01*
X81122656Y-69620961D01*
X81124314Y-69514443D01*
X81124912Y-69390674D01*
X81124912Y-69016120D01*
X81027674Y-68964535D01*
X80952613Y-68910339D01*
X80884210Y-68824303D01*
X80842767Y-68725350D01*
X80832611Y-68624492D01*
X80858066Y-68532741D01*
X80866119Y-68505777D01*
X80862055Y-68463372D01*
X80841913Y-68399507D01*
X80803501Y-68305030D01*
X80793089Y-68280515D01*
X80723574Y-68102073D01*
X80674842Y-67940669D01*
X80643828Y-67781067D01*
X80627467Y-67608035D01*
X80622694Y-67406338D01*
X80625466Y-67289173D01*
X80777641Y-67289173D01*
X80781588Y-67578599D01*
X80826473Y-67868743D01*
X80913402Y-68155369D01*
X80921808Y-68177318D01*
X80956218Y-68263982D01*
X80981642Y-68316732D01*
X81003347Y-68342323D01*
X81026604Y-68347509D01*
X81056680Y-68339045D01*
X81073552Y-68331912D01*
X81089761Y-68318030D01*
X81099543Y-68291898D01*
X81104272Y-68245402D01*
X81105318Y-68170426D01*
X81104054Y-68058857D01*
X81100188Y-67797623D01*
X81179628Y-67797623D01*
X81259067Y-67797623D01*
X81259067Y-68065933D01*
X81259541Y-68154241D01*
X81262146Y-68242816D01*
X81267722Y-68297975D01*
X81277045Y-68326267D01*
X81290891Y-68334242D01*
X81300598Y-68335398D01*
X81350256Y-68360156D01*
X81407821Y-68408341D01*
X81460845Y-68468235D01*
X81496879Y-68528123D01*
X81520013Y-68601879D01*
X81521051Y-68706439D01*
X81481525Y-68815826D01*
X81435673Y-68904401D01*
X81538698Y-68996169D01*
X81582498Y-69033349D01*
X81769989Y-69162184D01*
X81988178Y-69272096D01*
X82227672Y-69358869D01*
X82479078Y-69418287D01*
X82676523Y-69442491D01*
X82965608Y-69441914D01*
X83249128Y-69400008D01*
X83522934Y-69318777D01*
X83782876Y-69200227D01*
X84024807Y-69046362D01*
X84244575Y-68859188D01*
X84438033Y-68640710D01*
X84601030Y-68392932D01*
X84636711Y-68325047D01*
X84727483Y-68108339D01*
X84797629Y-67872047D01*
X84842861Y-67632578D01*
X84858891Y-67406338D01*
X84855525Y-67307161D01*
X84826913Y-67079404D01*
X84772593Y-66845706D01*
X84696788Y-66622306D01*
X84603725Y-66425444D01*
X84566382Y-66359519D01*
X84522596Y-66286173D01*
X84490543Y-66242438D01*
X84464289Y-66222485D01*
X84437904Y-66220486D01*
X84405454Y-66230609D01*
X84344631Y-66253734D01*
X84344631Y-66533777D01*
X84344631Y-66813820D01*
X84277553Y-66813820D01*
X84210476Y-66813820D01*
X84210476Y-66538077D01*
X84210476Y-66262333D01*
X84127347Y-66208279D01*
X84110212Y-66196725D01*
X84013767Y-66108273D01*
X83959276Y-66007842D01*
X83947698Y-65897095D01*
X83950415Y-65870932D01*
X83960770Y-65804687D01*
X83972446Y-65761742D01*
X83973384Y-65754111D01*
X83951262Y-65721471D01*
X83896969Y-65678256D01*
X83817685Y-65628698D01*
X83720589Y-65577029D01*
X83612863Y-65527480D01*
X83501687Y-65484284D01*
X83365112Y-65441344D01*
X83069472Y-65381047D01*
X82773987Y-65365382D01*
X82479078Y-65394388D01*
X82248721Y-65446022D01*
X81993026Y-65536884D01*
X81753824Y-65663035D01*
X81520914Y-65829105D01*
X81333273Y-66001009D01*
X81149117Y-66223331D01*
X81000370Y-66467543D01*
X80888138Y-66729411D01*
X80813527Y-67004699D01*
X80777641Y-67289173D01*
X80625466Y-67289173D01*
X80627440Y-67205768D01*
X80643755Y-67032454D01*
X80674580Y-66872694D01*
X80722854Y-66711279D01*
X80791520Y-66532996D01*
X80910758Y-66297984D01*
X81069317Y-66068370D01*
X81258484Y-65855228D01*
X81471215Y-65665602D01*
X81700466Y-65506539D01*
X81939194Y-65385083D01*
X82124084Y-65317174D01*
X82427275Y-65242431D01*
X82733951Y-65210000D01*
X83039888Y-65219637D01*
X83340863Y-65271098D01*
X83632654Y-65364142D01*
X83911037Y-65498525D01*
X83967665Y-65530575D01*
X84042278Y-65569805D01*
X84093001Y-65590097D01*
X84128693Y-65594604D01*
X84158216Y-65586477D01*
X84165620Y-65583014D01*
X84184166Y-65571116D01*
X84196735Y-65551784D01*
X84204489Y-65517563D01*
X84208589Y-65460994D01*
X84210198Y-65374621D01*
X84210476Y-65250987D01*
X84210476Y-65249811D01*
X84209741Y-65103890D01*
X84206778Y-64999086D01*
X84200421Y-64931836D01*
X84189509Y-64898576D01*
X84172878Y-64895742D01*
X84149364Y-64919772D01*
X84117804Y-64967101D01*
X84073100Y-65026224D01*
X84022436Y-65065050D01*
X83979311Y-65069019D01*
X83949986Y-65035576D01*
X83949437Y-65031192D01*
X83960462Y-64994344D01*
X83989053Y-64932651D01*
X84030423Y-64854170D01*
X84079785Y-64766960D01*
X84132350Y-64679079D01*
X84183330Y-64598585D01*
X84227938Y-64533537D01*
X84261387Y-64491992D01*
X84278887Y-64482009D01*
X84307611Y-64519548D01*
X84350133Y-64583309D01*
X84400998Y-64664146D01*
X84454780Y-64752948D01*
X84506055Y-64840601D01*
X84549397Y-64917993D01*
X84579381Y-64976011D01*
X84590581Y-65005544D01*
X84583480Y-65044793D01*
X84555197Y-65067802D01*
X84511697Y-65058762D01*
X84459837Y-65019652D01*
X84406473Y-64952449D01*
X84345339Y-64857394D01*
X84344985Y-65209251D01*
X84344631Y-65561107D01*
X84418342Y-65591906D01*
X84450896Y-65607642D01*
X84541809Y-65680983D01*
X84602775Y-65779023D01*
X84628991Y-65891622D01*
X84615657Y-66008642D01*
X84606085Y-66044602D01*
X84603531Y-66081912D01*
X84614546Y-66122124D01*
X84642655Y-66176819D01*
X84691378Y-66257577D01*
X84778146Y-66415374D01*
X84880040Y-66654120D01*
X84961820Y-66914436D01*
X84968352Y-66941377D01*
X84991356Y-67085384D01*
X85003892Y-67256071D01*
X85005694Y-67406338D01*
X85006094Y-67439721D01*
G37*
%TO.C,G1*%
G36*
X53042172Y-67690909D02*
G01*
X53042172Y-68701136D01*
X52986048Y-68701136D01*
X52929924Y-68701136D01*
X52929924Y-67690909D01*
X52929924Y-66680682D01*
X52986048Y-66680682D01*
X53042172Y-66680682D01*
X53042172Y-67690909D01*
G37*
G36*
X53394950Y-67690909D02*
G01*
X53394950Y-68701136D01*
X53338826Y-68701136D01*
X53282702Y-68701136D01*
X53282702Y-67690909D01*
X53282702Y-66680682D01*
X53338826Y-66680682D01*
X53394950Y-66680682D01*
X53394950Y-67690909D01*
G37*
G36*
X53715657Y-67690909D02*
G01*
X53715657Y-68701136D01*
X53659533Y-68701136D01*
X53603409Y-68701136D01*
X53603409Y-67690909D01*
X53603409Y-66680682D01*
X53659533Y-66680682D01*
X53715657Y-66680682D01*
X53715657Y-67690909D01*
G37*
G36*
X57932955Y-72285038D02*
G01*
X57932955Y-72613763D01*
X57876831Y-72613763D01*
X57820707Y-72613763D01*
X57820707Y-72285038D01*
X57820707Y-71956313D01*
X57876831Y-71956313D01*
X57932955Y-71956313D01*
X57932955Y-72285038D01*
G37*
G36*
X60739142Y-70585290D02*
G01*
X60739142Y-71026263D01*
X60683018Y-71026263D01*
X60626894Y-71026263D01*
X60626894Y-70585290D01*
X60626894Y-70144318D01*
X60683018Y-70144318D01*
X60739142Y-70144318D01*
X60739142Y-70585290D01*
G37*
G36*
X61428662Y-67690909D02*
G01*
X61428662Y-68701136D01*
X61372538Y-68701136D01*
X61316414Y-68701136D01*
X61316414Y-67690909D01*
X61316414Y-66680682D01*
X61372538Y-66680682D01*
X61428662Y-66680682D01*
X61428662Y-67690909D01*
G37*
G36*
X61765404Y-67690909D02*
G01*
X61765404Y-68701136D01*
X61709280Y-68701136D01*
X61653157Y-68701136D01*
X61653157Y-67690909D01*
X61653157Y-66680682D01*
X61709280Y-66680682D01*
X61765404Y-66680682D01*
X61765404Y-67690909D01*
G37*
G36*
X62102147Y-67690909D02*
G01*
X62102147Y-68701136D01*
X62046023Y-68701136D01*
X61989899Y-68701136D01*
X61989899Y-67690909D01*
X61989899Y-66680682D01*
X62046023Y-66680682D01*
X62102147Y-66680682D01*
X62102147Y-67690909D01*
G37*
G36*
X55864394Y-70585290D02*
G01*
X55864394Y-71026263D01*
X55599811Y-71026263D01*
X55335227Y-71026263D01*
X55335227Y-70978157D01*
X55335227Y-70930050D01*
X55543687Y-70930050D01*
X55752147Y-70930050D01*
X55752147Y-70537184D01*
X55752147Y-70144318D01*
X55808270Y-70144318D01*
X55864394Y-70144318D01*
X55864394Y-70585290D01*
G37*
G36*
X57915638Y-71723424D02*
G01*
X57940944Y-71751444D01*
X57947177Y-71789137D01*
X57929748Y-71824823D01*
X57920758Y-71832415D01*
X57881630Y-71843977D01*
X57843290Y-71829986D01*
X57816610Y-71793457D01*
X57814980Y-71785468D01*
X57825227Y-71754320D01*
X57852629Y-71727309D01*
X57886913Y-71715783D01*
X57915638Y-71723424D01*
G37*
G36*
X59279924Y-71779924D02*
G01*
X59279924Y-71828030D01*
X59151642Y-71828030D01*
X59023359Y-71828030D01*
X59023359Y-72220896D01*
X59023359Y-72613763D01*
X58967235Y-72613763D01*
X58911111Y-72613763D01*
X58911111Y-72220896D01*
X58911111Y-71828030D01*
X58782828Y-71828030D01*
X58654546Y-71828030D01*
X58654546Y-71779924D01*
X58654546Y-71731818D01*
X58967235Y-71731818D01*
X59279924Y-71731818D01*
X59279924Y-71779924D01*
G37*
G36*
X56112698Y-66548998D02*
G01*
X56198800Y-66589037D01*
X56206789Y-66594523D01*
X56270539Y-66657607D01*
X56310466Y-66734761D01*
X56326960Y-66819716D01*
X56320408Y-66906207D01*
X56291200Y-66987964D01*
X56239724Y-67058722D01*
X56166368Y-67112213D01*
X56154214Y-67118067D01*
X56065735Y-67142899D01*
X55979054Y-67139620D01*
X55898937Y-67111528D01*
X55830151Y-67061921D01*
X55777464Y-66994093D01*
X55745643Y-66911344D01*
X55739455Y-66816968D01*
X55758645Y-66730108D01*
X55802230Y-66651496D01*
X55864537Y-66591544D01*
X55940457Y-66552786D01*
X56024880Y-66537760D01*
X56112698Y-66548998D01*
G37*
G36*
X58758531Y-66548998D02*
G01*
X58844633Y-66589037D01*
X58852623Y-66594523D01*
X58916372Y-66657607D01*
X58956299Y-66734761D01*
X58972793Y-66819716D01*
X58966242Y-66906207D01*
X58937033Y-66987964D01*
X58885557Y-67058722D01*
X58812201Y-67112213D01*
X58800047Y-67118067D01*
X58711569Y-67142899D01*
X58624887Y-67139620D01*
X58544770Y-67111528D01*
X58475985Y-67061921D01*
X58423298Y-66994093D01*
X58391477Y-66911344D01*
X58385288Y-66816968D01*
X58404479Y-66730108D01*
X58448064Y-66651496D01*
X58510371Y-66591544D01*
X58586291Y-66552786D01*
X58670714Y-66537760D01*
X58758531Y-66548998D01*
G37*
G36*
X58899508Y-70144534D02*
G01*
X58914839Y-70149345D01*
X58930667Y-70161721D01*
X58949648Y-70184993D01*
X58974440Y-70222487D01*
X59007699Y-70277534D01*
X59052081Y-70353461D01*
X59110244Y-70453598D01*
X59210869Y-70626578D01*
X59352792Y-70385448D01*
X59494715Y-70144318D01*
X59563709Y-70144318D01*
X59632702Y-70144318D01*
X59632702Y-70585290D01*
X59632702Y-71026263D01*
X59568880Y-71026263D01*
X59505057Y-71026263D01*
X59500729Y-70685511D01*
X59496402Y-70344760D01*
X59376169Y-70549211D01*
X59333813Y-70620765D01*
X59288010Y-70692921D01*
X59251134Y-70737543D01*
X59219019Y-70754593D01*
X59187500Y-70744034D01*
X59152412Y-70705830D01*
X59109591Y-70639942D01*
X59054871Y-70546334D01*
X58935164Y-70339007D01*
X58930843Y-70682635D01*
X58926521Y-71026263D01*
X58862693Y-71026263D01*
X58798864Y-71026263D01*
X58798864Y-70585290D01*
X58798864Y-70144318D01*
X58863400Y-70144318D01*
X58882016Y-70143960D01*
X58899508Y-70144534D01*
G37*
G36*
X57025161Y-70144362D02*
G01*
X57063526Y-70146301D01*
X57088517Y-70156431D01*
X57109397Y-70181571D01*
X57135425Y-70228542D01*
X57140938Y-70238966D01*
X57172752Y-70298325D01*
X57211398Y-70369536D01*
X57249727Y-70439411D01*
X57319703Y-70566132D01*
X57417119Y-70383287D01*
X57428771Y-70361417D01*
X57472838Y-70279294D01*
X57505729Y-70220749D01*
X57530676Y-70181939D01*
X57550913Y-70159019D01*
X57569672Y-70148145D01*
X57590186Y-70145473D01*
X57615687Y-70147158D01*
X57673971Y-70152336D01*
X57523214Y-70416919D01*
X57372458Y-70681502D01*
X57372087Y-70853883D01*
X57371717Y-71026263D01*
X57315594Y-71026263D01*
X57259470Y-71026263D01*
X57259470Y-70854855D01*
X57259470Y-70683447D01*
X57128612Y-70449962D01*
X57098274Y-70395978D01*
X57055078Y-70319621D01*
X57017908Y-70254513D01*
X56989961Y-70206243D01*
X56974432Y-70180398D01*
X56965470Y-70165982D01*
X56961704Y-70150932D01*
X56978297Y-70145231D01*
X57021104Y-70144356D01*
X57025161Y-70144362D01*
G37*
G36*
X55724545Y-71958046D02*
G01*
X55797231Y-71994848D01*
X55856376Y-72037100D01*
X55861450Y-71996706D01*
X55866153Y-71975739D01*
X55883215Y-71960009D01*
X55921583Y-71956313D01*
X55976642Y-71956313D01*
X55976642Y-72285038D01*
X55976642Y-72613763D01*
X55920518Y-72613763D01*
X55864394Y-72613763D01*
X55864394Y-72384818D01*
X55864168Y-72322409D01*
X55862020Y-72237894D01*
X55856196Y-72176981D01*
X55845002Y-72134334D01*
X55826750Y-72104618D01*
X55799748Y-72082496D01*
X55762305Y-72062633D01*
X55761119Y-72062074D01*
X55689420Y-72039454D01*
X55628194Y-72042233D01*
X55582252Y-72070210D01*
X55571197Y-72085288D01*
X55562412Y-72107276D01*
X55556181Y-72140390D01*
X55551851Y-72189865D01*
X55548771Y-72260939D01*
X55546287Y-72358847D01*
X55540869Y-72613763D01*
X55484775Y-72613763D01*
X55428680Y-72613763D01*
X55434199Y-72353188D01*
X55436461Y-72270532D01*
X55441647Y-72174590D01*
X55450300Y-72102767D01*
X55463772Y-72050371D01*
X55483415Y-72012709D01*
X55510579Y-71985089D01*
X55546616Y-71962816D01*
X55572792Y-71952165D01*
X55646236Y-71943372D01*
X55724545Y-71958046D01*
G37*
G36*
X54501389Y-71026263D02*
G01*
X54445265Y-71026263D01*
X54410529Y-71024141D01*
X54392893Y-71012291D01*
X54389142Y-70983379D01*
X54389142Y-70940495D01*
X54353054Y-70974398D01*
X54319174Y-71001013D01*
X54276886Y-71025155D01*
X54240132Y-71035115D01*
X54169268Y-71036794D01*
X54096493Y-71022565D01*
X54036544Y-70994320D01*
X53998580Y-70960790D01*
X53956717Y-70895166D01*
X53932472Y-70808429D01*
X53924838Y-70702062D01*
X54036453Y-70702062D01*
X54036475Y-70707258D01*
X54046889Y-70798135D01*
X54074889Y-70870853D01*
X54118415Y-70919937D01*
X54122622Y-70922650D01*
X54166510Y-70939288D01*
X54217924Y-70946086D01*
X54250022Y-70943799D01*
X54291312Y-70928066D01*
X54334621Y-70891566D01*
X54354103Y-70871517D01*
X54373810Y-70845693D01*
X54384257Y-70816805D01*
X54388360Y-70775186D01*
X54389036Y-70711168D01*
X54385566Y-70642757D01*
X54366014Y-70557191D01*
X54328502Y-70497220D01*
X54272200Y-70461718D01*
X54196276Y-70449558D01*
X54159280Y-70452546D01*
X54104395Y-70476357D01*
X54066180Y-70525008D01*
X54043809Y-70599808D01*
X54036453Y-70702062D01*
X53924838Y-70702062D01*
X53924469Y-70696927D01*
X53930583Y-70601553D01*
X53956352Y-70503201D01*
X54002032Y-70429454D01*
X54067377Y-70380679D01*
X54152140Y-70357246D01*
X54211046Y-70357742D01*
X54284021Y-70379931D01*
X54340158Y-70423879D01*
X54359051Y-70442662D01*
X54373870Y-70444121D01*
X54383089Y-70422182D01*
X54387812Y-70373980D01*
X54389142Y-70296654D01*
X54389142Y-70144318D01*
X54445265Y-70144318D01*
X54501389Y-70144318D01*
X54501389Y-70585290D01*
X54501389Y-70711168D01*
X54501389Y-71026263D01*
G37*
G36*
X56890657Y-71026263D02*
G01*
X56834533Y-71026263D01*
X56799797Y-71024141D01*
X56782161Y-71012291D01*
X56778409Y-70983379D01*
X56778409Y-70940495D01*
X56742322Y-70974398D01*
X56708441Y-71001013D01*
X56666154Y-71025155D01*
X56629399Y-71035115D01*
X56558535Y-71036794D01*
X56485761Y-71022565D01*
X56425812Y-70994320D01*
X56387848Y-70960790D01*
X56345985Y-70895166D01*
X56321740Y-70808429D01*
X56314105Y-70702062D01*
X56425721Y-70702062D01*
X56425743Y-70707258D01*
X56436157Y-70798135D01*
X56464156Y-70870853D01*
X56507682Y-70919937D01*
X56511890Y-70922650D01*
X56555778Y-70939288D01*
X56607192Y-70946086D01*
X56639290Y-70943799D01*
X56680580Y-70928066D01*
X56723889Y-70891566D01*
X56743371Y-70871517D01*
X56763078Y-70845693D01*
X56773524Y-70816805D01*
X56777628Y-70775186D01*
X56778304Y-70711168D01*
X56774833Y-70642757D01*
X56755282Y-70557191D01*
X56717770Y-70497220D01*
X56661467Y-70461718D01*
X56585544Y-70449558D01*
X56548548Y-70452546D01*
X56493663Y-70476357D01*
X56455448Y-70525008D01*
X56433076Y-70599808D01*
X56425721Y-70702062D01*
X56314105Y-70702062D01*
X56313736Y-70696927D01*
X56319851Y-70601553D01*
X56345620Y-70503201D01*
X56391300Y-70429454D01*
X56456645Y-70380679D01*
X56541408Y-70357246D01*
X56600314Y-70357742D01*
X56673289Y-70379931D01*
X56729426Y-70423879D01*
X56748319Y-70442662D01*
X56763137Y-70444121D01*
X56772357Y-70422182D01*
X56777080Y-70373980D01*
X56778409Y-70296654D01*
X56778409Y-70144318D01*
X56834533Y-70144318D01*
X56890657Y-70144318D01*
X56890657Y-70585290D01*
X56890657Y-70711168D01*
X56890657Y-71026263D01*
G37*
G36*
X60419913Y-70764666D02*
G01*
X60451670Y-70849966D01*
X60478087Y-70920788D01*
X60497232Y-70971933D01*
X60507176Y-70998201D01*
X60509752Y-71015750D01*
X60494369Y-71024231D01*
X60453848Y-71026263D01*
X60389618Y-71026263D01*
X60345754Y-70905997D01*
X60301891Y-70785732D01*
X60123641Y-70785766D01*
X59945392Y-70785800D01*
X59904525Y-70902023D01*
X59888970Y-70945550D01*
X59871613Y-70987106D01*
X59855359Y-71009498D01*
X59834744Y-71019334D01*
X59804304Y-71023222D01*
X59793800Y-71023898D01*
X59759123Y-71022397D01*
X59745315Y-71015204D01*
X59745465Y-71014301D01*
X59752503Y-70992113D01*
X59769051Y-70944408D01*
X59793695Y-70875129D01*
X59825025Y-70788218D01*
X59861629Y-70687618D01*
X59866084Y-70675470D01*
X59985480Y-70675470D01*
X59989059Y-70678581D01*
X60016773Y-70684192D01*
X60065940Y-70688072D01*
X60129395Y-70689520D01*
X60273310Y-70689520D01*
X60227862Y-70565246D01*
X60226130Y-70560504D01*
X60199790Y-70487143D01*
X60173912Y-70413170D01*
X60153864Y-70353917D01*
X60125315Y-70266862D01*
X60055397Y-70464141D01*
X60050779Y-70477202D01*
X60025252Y-70550581D01*
X60004508Y-70612170D01*
X59990575Y-70655843D01*
X59985480Y-70675470D01*
X59866084Y-70675470D01*
X59902095Y-70577273D01*
X60058509Y-70152336D01*
X60124366Y-70147496D01*
X60131504Y-70146996D01*
X60171375Y-70147312D01*
X60192460Y-70158978D01*
X60206163Y-70187584D01*
X60210285Y-70198979D01*
X60225359Y-70240028D01*
X60248608Y-70302998D01*
X60278103Y-70382689D01*
X60311911Y-70473901D01*
X60348103Y-70571434D01*
X60384747Y-70670089D01*
X60391972Y-70689520D01*
X60419913Y-70764666D01*
G37*
G36*
X55230543Y-70910679D02*
G01*
X55197165Y-70971078D01*
X55139627Y-71016382D01*
X55109504Y-71028439D01*
X55031231Y-71038314D01*
X54948113Y-71024584D01*
X54870596Y-70988338D01*
X54806061Y-70945631D01*
X54806061Y-70985947D01*
X54803130Y-71010594D01*
X54787110Y-71023442D01*
X54748585Y-71026263D01*
X54691110Y-71026263D01*
X54696471Y-70757670D01*
X54696927Y-70735740D01*
X54697977Y-70701413D01*
X54806061Y-70701413D01*
X54806061Y-70772848D01*
X54806145Y-70779760D01*
X54817630Y-70840343D01*
X54851759Y-70887497D01*
X54913245Y-70928047D01*
X54964284Y-70945413D01*
X55023965Y-70946587D01*
X55076008Y-70929522D01*
X55112811Y-70896940D01*
X55126768Y-70851566D01*
X55122778Y-70815163D01*
X55102359Y-70775929D01*
X55061262Y-70747245D01*
X54995756Y-70726799D01*
X54902112Y-70712280D01*
X54806061Y-70701413D01*
X54697977Y-70701413D01*
X54700207Y-70628553D01*
X54705795Y-70547906D01*
X54715262Y-70489096D01*
X54730181Y-70447422D01*
X54752125Y-70418180D01*
X54782665Y-70396671D01*
X54823374Y-70378190D01*
X54850056Y-70368765D01*
X54936360Y-70353867D01*
X55019213Y-70360565D01*
X55093157Y-70386366D01*
X55152733Y-70428774D01*
X55192482Y-70485297D01*
X55206945Y-70553439D01*
X55205092Y-70576833D01*
X55191708Y-70590603D01*
X55156829Y-70590315D01*
X55132902Y-70586161D01*
X55106494Y-70568625D01*
X55088678Y-70529225D01*
X55079350Y-70505209D01*
X55053676Y-70473655D01*
X55007991Y-70452645D01*
X54973500Y-70443771D01*
X54904666Y-70443785D01*
X54851850Y-70470265D01*
X54817999Y-70521143D01*
X54806061Y-70594352D01*
X54806083Y-70602046D01*
X54808585Y-70624737D01*
X54820588Y-70636432D01*
X54849615Y-70640776D01*
X54903190Y-70641414D01*
X54963466Y-70643178D01*
X55060824Y-70657233D01*
X55135250Y-70686426D01*
X55190922Y-70732073D01*
X55219449Y-70774367D01*
X55238419Y-70842628D01*
X55237385Y-70851566D01*
X55230543Y-70910679D01*
G37*
G36*
X56705796Y-72498179D02*
G01*
X56672418Y-72558578D01*
X56614879Y-72603882D01*
X56584757Y-72615939D01*
X56506483Y-72625814D01*
X56423365Y-72612084D01*
X56345849Y-72575838D01*
X56281313Y-72533131D01*
X56281313Y-72573447D01*
X56278383Y-72598094D01*
X56262363Y-72610942D01*
X56223838Y-72613763D01*
X56166363Y-72613763D01*
X56171723Y-72345170D01*
X56172179Y-72323240D01*
X56173230Y-72288913D01*
X56281313Y-72288913D01*
X56281313Y-72360348D01*
X56281398Y-72367260D01*
X56292883Y-72427843D01*
X56327012Y-72474997D01*
X56388498Y-72515547D01*
X56439537Y-72532913D01*
X56499217Y-72534087D01*
X56551261Y-72517022D01*
X56588063Y-72484440D01*
X56602020Y-72439066D01*
X56598030Y-72402663D01*
X56577612Y-72363429D01*
X56536514Y-72334745D01*
X56471008Y-72314299D01*
X56377365Y-72299780D01*
X56281313Y-72288913D01*
X56173230Y-72288913D01*
X56175460Y-72216053D01*
X56181047Y-72135406D01*
X56190515Y-72076596D01*
X56205434Y-72034922D01*
X56227377Y-72005680D01*
X56257917Y-71984171D01*
X56298627Y-71965690D01*
X56325309Y-71956265D01*
X56411612Y-71941367D01*
X56494466Y-71948065D01*
X56568410Y-71973866D01*
X56627986Y-72016274D01*
X56667735Y-72072797D01*
X56682197Y-72140939D01*
X56680344Y-72164333D01*
X56666961Y-72178103D01*
X56632081Y-72177815D01*
X56608155Y-72173661D01*
X56581746Y-72156125D01*
X56563931Y-72116725D01*
X56554603Y-72092709D01*
X56528928Y-72061155D01*
X56483244Y-72040145D01*
X56448753Y-72031271D01*
X56379919Y-72031285D01*
X56327103Y-72057765D01*
X56293252Y-72108643D01*
X56281313Y-72181852D01*
X56281336Y-72189546D01*
X56283838Y-72212237D01*
X56295841Y-72223932D01*
X56324868Y-72228276D01*
X56378442Y-72228914D01*
X56438719Y-72230678D01*
X56536076Y-72244733D01*
X56610503Y-72273926D01*
X56666175Y-72319573D01*
X56694701Y-72361867D01*
X56713671Y-72430128D01*
X56712637Y-72439066D01*
X56705796Y-72498179D01*
G37*
G36*
X58678144Y-72498179D02*
G01*
X58644766Y-72558578D01*
X58587228Y-72603882D01*
X58557105Y-72615939D01*
X58478832Y-72625814D01*
X58395714Y-72612084D01*
X58318197Y-72575838D01*
X58253662Y-72533131D01*
X58253662Y-72573447D01*
X58250731Y-72598094D01*
X58234711Y-72610942D01*
X58196186Y-72613763D01*
X58138711Y-72613763D01*
X58144072Y-72345170D01*
X58144528Y-72323240D01*
X58145578Y-72288913D01*
X58253662Y-72288913D01*
X58253662Y-72360348D01*
X58253746Y-72367260D01*
X58265231Y-72427843D01*
X58299360Y-72474997D01*
X58360846Y-72515547D01*
X58411885Y-72532913D01*
X58471566Y-72534087D01*
X58523609Y-72517022D01*
X58560412Y-72484440D01*
X58574369Y-72439066D01*
X58570379Y-72402663D01*
X58549960Y-72363429D01*
X58508863Y-72334745D01*
X58443357Y-72314299D01*
X58349713Y-72299780D01*
X58253662Y-72288913D01*
X58145578Y-72288913D01*
X58147808Y-72216053D01*
X58153396Y-72135406D01*
X58162863Y-72076596D01*
X58177782Y-72034922D01*
X58199726Y-72005680D01*
X58230266Y-71984171D01*
X58270975Y-71965690D01*
X58297657Y-71956265D01*
X58383961Y-71941367D01*
X58466814Y-71948065D01*
X58540758Y-71973866D01*
X58600334Y-72016274D01*
X58640083Y-72072797D01*
X58654546Y-72140939D01*
X58652693Y-72164333D01*
X58639309Y-72178103D01*
X58604430Y-72177815D01*
X58580503Y-72173661D01*
X58554095Y-72156125D01*
X58536279Y-72116725D01*
X58526951Y-72092709D01*
X58501277Y-72061155D01*
X58455592Y-72040145D01*
X58421101Y-72031271D01*
X58352267Y-72031285D01*
X58299451Y-72057765D01*
X58265600Y-72108643D01*
X58253662Y-72181852D01*
X58253684Y-72189546D01*
X58256186Y-72212237D01*
X58268189Y-72223932D01*
X58297216Y-72228276D01*
X58350791Y-72228914D01*
X58411067Y-72230678D01*
X58508425Y-72244733D01*
X58582851Y-72273926D01*
X58638523Y-72319573D01*
X58667050Y-72361867D01*
X58686020Y-72430128D01*
X58684986Y-72439066D01*
X58678144Y-72498179D01*
G37*
G36*
X58422269Y-70142989D02*
G01*
X58502417Y-70174708D01*
X58565895Y-70226877D01*
X58587408Y-70257110D01*
X58602416Y-70300018D01*
X58606440Y-70359863D01*
X58606057Y-70376815D01*
X58594284Y-70443314D01*
X58563620Y-70497668D01*
X58510772Y-70542903D01*
X58432443Y-70582048D01*
X58325338Y-70618129D01*
X58310155Y-70622591D01*
X58225442Y-70650778D01*
X58167160Y-70677847D01*
X58130636Y-70706440D01*
X58111199Y-70739198D01*
X58100988Y-70801467D01*
X58118394Y-70857853D01*
X58164137Y-70901269D01*
X58237025Y-70929906D01*
X58285175Y-70938040D01*
X58366610Y-70934873D01*
X58434640Y-70910194D01*
X58484219Y-70866300D01*
X58510300Y-70805490D01*
X58517621Y-70780755D01*
X58537352Y-70763741D01*
X58578450Y-70756702D01*
X58614797Y-70755547D01*
X58634061Y-70763475D01*
X58638510Y-70785279D01*
X58625044Y-70854844D01*
X58584582Y-70923488D01*
X58522390Y-70980449D01*
X58443790Y-71019328D01*
X58441370Y-71020102D01*
X58362372Y-71034575D01*
X58272347Y-71035262D01*
X58184985Y-71023019D01*
X58113978Y-70998703D01*
X58056894Y-70958252D01*
X58007706Y-70893347D01*
X57982482Y-70817695D01*
X57983346Y-70738341D01*
X58012426Y-70662330D01*
X58020649Y-70649382D01*
X58045761Y-70617717D01*
X58077752Y-70591653D01*
X58122659Y-70567755D01*
X58186517Y-70542589D01*
X58275361Y-70512721D01*
X58320776Y-70497235D01*
X58385576Y-70472149D01*
X58435972Y-70448991D01*
X58463776Y-70431300D01*
X58465613Y-70429419D01*
X58490756Y-70382574D01*
X58487376Y-70330397D01*
X58455895Y-70280952D01*
X58421996Y-70255295D01*
X58359129Y-70233046D01*
X58290912Y-70230677D01*
X58225812Y-70246884D01*
X58172299Y-70280361D01*
X58138841Y-70329804D01*
X58125389Y-70360664D01*
X58103661Y-70380351D01*
X58066034Y-70384848D01*
X58039499Y-70383545D01*
X58018160Y-70373291D01*
X58013132Y-70347131D01*
X58013610Y-70340308D01*
X58025841Y-70299438D01*
X58049423Y-70254928D01*
X58086574Y-70212372D01*
X58157603Y-70166410D01*
X58242282Y-70139251D01*
X58333030Y-70131307D01*
X58422269Y-70142989D01*
G37*
G36*
X57284342Y-71957857D02*
G01*
X57298029Y-71966095D01*
X57310448Y-71984744D01*
X57323651Y-72017878D01*
X57339686Y-72069574D01*
X57360603Y-72143906D01*
X57388453Y-72244949D01*
X57408524Y-72316182D01*
X57427166Y-72379702D01*
X57441570Y-72425952D01*
X57449671Y-72448086D01*
X57454549Y-72444528D01*
X57467040Y-72416011D01*
X57484934Y-72364594D01*
X57506648Y-72294903D01*
X57530599Y-72211564D01*
X57601287Y-71956313D01*
X57654873Y-71956313D01*
X57660080Y-71956394D01*
X57694415Y-71961927D01*
X57708460Y-71973487D01*
X57707267Y-71979473D01*
X57698687Y-72011484D01*
X57683244Y-72065665D01*
X57662611Y-72136397D01*
X57638462Y-72218061D01*
X57612473Y-72305039D01*
X57586319Y-72391712D01*
X57561673Y-72472462D01*
X57540210Y-72541670D01*
X57523604Y-72593718D01*
X57521996Y-72596718D01*
X57497847Y-72608957D01*
X57455175Y-72613763D01*
X57393308Y-72613763D01*
X57323611Y-72365215D01*
X57307618Y-72309144D01*
X57284825Y-72232691D01*
X57265418Y-72171680D01*
X57251065Y-72131282D01*
X57243435Y-72116667D01*
X57239270Y-72123087D01*
X57227040Y-72155204D01*
X57209183Y-72209711D01*
X57187366Y-72281438D01*
X57163258Y-72365215D01*
X57093561Y-72613763D01*
X57032887Y-72613763D01*
X56972213Y-72613763D01*
X56908609Y-72409312D01*
X56884505Y-72331724D01*
X56848599Y-72215536D01*
X56821099Y-72125512D01*
X56801166Y-72058833D01*
X56787965Y-72012678D01*
X56780659Y-71984227D01*
X56778409Y-71970659D01*
X56778619Y-71969382D01*
X56795599Y-71960111D01*
X56831464Y-71956313D01*
X56884519Y-71956313D01*
X56955104Y-72212177D01*
X56972690Y-72275272D01*
X56994444Y-72351344D01*
X57012277Y-72411391D01*
X57024701Y-72450436D01*
X57030227Y-72463502D01*
X57031660Y-72460247D01*
X57040660Y-72432979D01*
X57056120Y-72382752D01*
X57076342Y-72315136D01*
X57099631Y-72235700D01*
X57108438Y-72205396D01*
X57131483Y-72126201D01*
X57151158Y-72058726D01*
X57165608Y-72009330D01*
X57172975Y-71984375D01*
X57175452Y-71978188D01*
X57197384Y-71961330D01*
X57243272Y-71956313D01*
X57244967Y-71956309D01*
X57267338Y-71955953D01*
X57284342Y-71957857D01*
G37*
G36*
X58683049Y-68325615D02*
G01*
X58683673Y-68363499D01*
X58684339Y-68442398D01*
X58684008Y-68506691D01*
X58682740Y-68550559D01*
X58680594Y-68568186D01*
X58674829Y-68568583D01*
X58647278Y-68559614D01*
X58606440Y-68540783D01*
X58584489Y-68529967D01*
X58550444Y-68515153D01*
X58535325Y-68511602D01*
X58529227Y-68520385D01*
X58509322Y-68549599D01*
X58481166Y-68591181D01*
X58457821Y-68622205D01*
X58397924Y-68687863D01*
X58322048Y-68759365D01*
X58237661Y-68829867D01*
X58152233Y-68892527D01*
X58056893Y-68949772D01*
X57903333Y-69020818D01*
X57731267Y-69079886D01*
X57548106Y-69124133D01*
X57544440Y-69124798D01*
X57486459Y-69129933D01*
X57405995Y-69130663D01*
X57311516Y-69127526D01*
X57211491Y-69121057D01*
X57114387Y-69111795D01*
X57028672Y-69100275D01*
X56962816Y-69087035D01*
X56808960Y-69037710D01*
X56612515Y-68946742D01*
X56431257Y-68829664D01*
X56269785Y-68689116D01*
X56137681Y-68555817D01*
X56073835Y-68588388D01*
X56055670Y-68597479D01*
X56019635Y-68614292D01*
X56001333Y-68620960D01*
X55999782Y-68617065D01*
X55996973Y-68587996D01*
X55994719Y-68535172D01*
X55993221Y-68464135D01*
X55992677Y-68380429D01*
X55992806Y-68337334D01*
X55993769Y-68259270D01*
X55995519Y-68196648D01*
X55997872Y-68155010D01*
X56000644Y-68139899D01*
X56004968Y-68141994D01*
X56030957Y-68158629D01*
X56075967Y-68189161D01*
X56135249Y-68230343D01*
X56204053Y-68278927D01*
X56399493Y-68417955D01*
X56332386Y-68450458D01*
X56311968Y-68461212D01*
X56278496Y-68483938D01*
X56265278Y-68501144D01*
X56266568Y-68506035D01*
X56285189Y-68532564D01*
X56321795Y-68572563D01*
X56371057Y-68621080D01*
X56427647Y-68673160D01*
X56486237Y-68723850D01*
X56541496Y-68768196D01*
X56588098Y-68801245D01*
X56654278Y-68841365D01*
X56812536Y-68919860D01*
X56972870Y-68972800D01*
X57143246Y-69002432D01*
X57331629Y-69011003D01*
X57399737Y-69009371D01*
X57595491Y-68988718D01*
X57776722Y-68942972D01*
X57949676Y-68870214D01*
X58120598Y-68768524D01*
X58135101Y-68758170D01*
X58181860Y-68720554D01*
X58235826Y-68672765D01*
X58291750Y-68619989D01*
X58344383Y-68567411D01*
X58388477Y-68520220D01*
X58418782Y-68483601D01*
X58430051Y-68462741D01*
X58427620Y-68458025D01*
X58404857Y-68440832D01*
X58365909Y-68420518D01*
X58348199Y-68412141D01*
X58315287Y-68393753D01*
X58302630Y-68382003D01*
X58305114Y-68378721D01*
X58327278Y-68359060D01*
X58368684Y-68325491D01*
X58424788Y-68281652D01*
X58491045Y-68231180D01*
X58678599Y-68089949D01*
X58683049Y-68325615D01*
G37*
G36*
X59531890Y-67689380D02*
G01*
X59588673Y-67701574D01*
X59688782Y-67724967D01*
X59837469Y-67779141D01*
X59986939Y-67854072D01*
X60128767Y-67945368D01*
X60254525Y-68048637D01*
X60259329Y-68053183D01*
X60320550Y-68117089D01*
X60385005Y-68193751D01*
X60449180Y-68277928D01*
X60509563Y-68364379D01*
X60562642Y-68447864D01*
X60604905Y-68523143D01*
X60632838Y-68584975D01*
X60642929Y-68628120D01*
X60650385Y-68664391D01*
X60672740Y-68720010D01*
X60705133Y-68782927D01*
X60742621Y-68843627D01*
X60780265Y-68892595D01*
X60802086Y-68917040D01*
X60822891Y-68939263D01*
X60843752Y-68957595D01*
X60867578Y-68972399D01*
X60897280Y-68984037D01*
X60935768Y-68992872D01*
X60985954Y-68999269D01*
X61050747Y-69003588D01*
X61133059Y-69006194D01*
X61235799Y-69007449D01*
X61361878Y-69007716D01*
X61514207Y-69007358D01*
X61695696Y-69006738D01*
X62454924Y-69004310D01*
X62454924Y-69061012D01*
X62454924Y-69117715D01*
X61761395Y-69122958D01*
X61671678Y-69123634D01*
X61499925Y-69124859D01*
X61356143Y-69125679D01*
X61237531Y-69125990D01*
X61141288Y-69125685D01*
X61064612Y-69124662D01*
X61004702Y-69122814D01*
X60958756Y-69120039D01*
X60923972Y-69116230D01*
X60897549Y-69111284D01*
X60876685Y-69105095D01*
X60858579Y-69097560D01*
X60840429Y-69088574D01*
X60796564Y-69062172D01*
X60712208Y-68988527D01*
X60635762Y-68892044D01*
X60571697Y-68778859D01*
X60524484Y-68655105D01*
X60519345Y-68638622D01*
X60472820Y-68529207D01*
X60404672Y-68412192D01*
X60320130Y-68294945D01*
X60224426Y-68184835D01*
X60122791Y-68089231D01*
X60062374Y-68042924D01*
X59956369Y-67974510D01*
X59840973Y-67911991D01*
X59726856Y-67860981D01*
X59624685Y-67827096D01*
X59606163Y-67824359D01*
X59553784Y-67820630D01*
X59473425Y-67817204D01*
X59367487Y-67814082D01*
X59238373Y-67811264D01*
X59088485Y-67808750D01*
X58920225Y-67806541D01*
X58735994Y-67804636D01*
X58538194Y-67803036D01*
X58329229Y-67801742D01*
X58111499Y-67800752D01*
X57887406Y-67800069D01*
X57659353Y-67799691D01*
X57429742Y-67799620D01*
X57200973Y-67799855D01*
X56975451Y-67800396D01*
X56755576Y-67801245D01*
X56543750Y-67802400D01*
X56342376Y-67803863D01*
X56153855Y-67805634D01*
X55980589Y-67807712D01*
X55824981Y-67810099D01*
X55689432Y-67812794D01*
X55576345Y-67815798D01*
X55488120Y-67819110D01*
X55427161Y-67822732D01*
X55395869Y-67826663D01*
X55302359Y-67854732D01*
X55114438Y-67935453D01*
X54941248Y-68044338D01*
X54784630Y-68180323D01*
X54774850Y-68190336D01*
X54704970Y-68268961D01*
X54636508Y-68356912D01*
X54574921Y-68446336D01*
X54525669Y-68529379D01*
X54494209Y-68598187D01*
X54489315Y-68612120D01*
X54466076Y-68678247D01*
X54443797Y-68741596D01*
X54432530Y-68770127D01*
X54392543Y-68847977D01*
X54341337Y-68927054D01*
X54286134Y-68996844D01*
X54234158Y-69046828D01*
X54231265Y-69049032D01*
X54207097Y-69066701D01*
X54183166Y-69081463D01*
X54156535Y-69093555D01*
X54124267Y-69103214D01*
X54083425Y-69110676D01*
X54031073Y-69116180D01*
X53964273Y-69119960D01*
X53880088Y-69122256D01*
X53775582Y-69123302D01*
X53647817Y-69123338D01*
X53493857Y-69122598D01*
X53310764Y-69121321D01*
X52561111Y-69115783D01*
X52561111Y-69060013D01*
X52561111Y-69004243D01*
X53312245Y-69006745D01*
X53468370Y-69007299D01*
X53623798Y-69007728D01*
X53752585Y-69007571D01*
X53857662Y-69006458D01*
X53941955Y-69004024D01*
X54008394Y-68999900D01*
X54059907Y-68993718D01*
X54099422Y-68985111D01*
X54129867Y-68973711D01*
X54154172Y-68959150D01*
X54175264Y-68941061D01*
X54196072Y-68919076D01*
X54219525Y-68892828D01*
X54247708Y-68858028D01*
X54287851Y-68797497D01*
X54322768Y-68733419D01*
X54347457Y-68675271D01*
X54356914Y-68632529D01*
X54362669Y-68607798D01*
X54379915Y-68562881D01*
X54404612Y-68509831D01*
X54502884Y-68342256D01*
X54624578Y-68183092D01*
X54763173Y-68040858D01*
X54914909Y-67918572D01*
X55076031Y-67819250D01*
X55242779Y-67745910D01*
X55411395Y-67701568D01*
X55447854Y-67694316D01*
X55490417Y-67681988D01*
X55492361Y-67680922D01*
X56367853Y-67680922D01*
X56390850Y-67681349D01*
X56441544Y-67681741D01*
X56519079Y-67682093D01*
X56622600Y-67682402D01*
X56751249Y-67682664D01*
X56904170Y-67682875D01*
X57080507Y-67683030D01*
X57279402Y-67683126D01*
X57500000Y-67683159D01*
X57524236Y-67683159D01*
X57742588Y-67683119D01*
X57939147Y-67683017D01*
X58113058Y-67682855D01*
X58263462Y-67682639D01*
X58389504Y-67682372D01*
X58490328Y-67682058D01*
X58565077Y-67681702D01*
X58612893Y-67681306D01*
X58632922Y-67680876D01*
X58624306Y-67680414D01*
X58586188Y-67679926D01*
X58517713Y-67679415D01*
X58418024Y-67678885D01*
X58262339Y-67678266D01*
X58033620Y-67677651D01*
X57787337Y-67677270D01*
X57531760Y-67677124D01*
X57275163Y-67677212D01*
X57025819Y-67677535D01*
X56791999Y-67678093D01*
X56581976Y-67678885D01*
X56569978Y-67678942D01*
X56473618Y-67679470D01*
X56408381Y-67679979D01*
X56373412Y-67680464D01*
X56367853Y-67680922D01*
X55492361Y-67680922D01*
X55511284Y-67670547D01*
X55507277Y-67662120D01*
X55475215Y-67658838D01*
X55462793Y-67658252D01*
X55405010Y-67648331D01*
X55329845Y-67628335D01*
X55246247Y-67601107D01*
X55163166Y-67569489D01*
X55089550Y-67536324D01*
X55005523Y-67490881D01*
X54829164Y-67369882D01*
X54671191Y-67223029D01*
X54530655Y-67049495D01*
X54501440Y-67006226D01*
X54459496Y-66938465D01*
X54420331Y-66869506D01*
X54387687Y-66806329D01*
X54365301Y-66755913D01*
X54356914Y-66725236D01*
X54349228Y-66691865D01*
X54326538Y-66639243D01*
X54293807Y-66578840D01*
X54256059Y-66519855D01*
X54218320Y-66471487D01*
X54201700Y-66453006D01*
X54177816Y-66427516D01*
X54154389Y-66406371D01*
X54128462Y-66389163D01*
X54097080Y-66375486D01*
X54057283Y-66364931D01*
X54006116Y-66357093D01*
X53940621Y-66351563D01*
X53857840Y-66347935D01*
X53754818Y-66345801D01*
X53628597Y-66344754D01*
X53476220Y-66344387D01*
X53294729Y-66344291D01*
X52561111Y-66343939D01*
X52561111Y-66287816D01*
X52561111Y-66231692D01*
X53310764Y-66231849D01*
X54060417Y-66232005D01*
X54143334Y-66270612D01*
X54200737Y-66302647D01*
X54285617Y-66373903D01*
X54361698Y-66470843D01*
X54430461Y-66595496D01*
X54493391Y-66749894D01*
X54498584Y-66763193D01*
X54525185Y-66818506D01*
X54562219Y-66884648D01*
X54603342Y-66950071D01*
X54696317Y-67074578D01*
X54842606Y-67226745D01*
X55007159Y-67353424D01*
X55188277Y-67453362D01*
X55384261Y-67525309D01*
X55388513Y-67526494D01*
X55405392Y-67530689D01*
X55424827Y-67534446D01*
X55448552Y-67537789D01*
X55478305Y-67540743D01*
X55515821Y-67543330D01*
X55562838Y-67545575D01*
X55621090Y-67547503D01*
X55692314Y-67549137D01*
X55778247Y-67550501D01*
X55880625Y-67551620D01*
X56001183Y-67552517D01*
X56141659Y-67553216D01*
X56303787Y-67553742D01*
X56489306Y-67554118D01*
X56699950Y-67554369D01*
X56937457Y-67554518D01*
X57203561Y-67554590D01*
X57500000Y-67554609D01*
X57585859Y-67554607D01*
X57873643Y-67554576D01*
X58131577Y-67554486D01*
X58361400Y-67554311D01*
X58564849Y-67554029D01*
X58743661Y-67553614D01*
X58899572Y-67553044D01*
X59034321Y-67552293D01*
X59149645Y-67551338D01*
X59247280Y-67550154D01*
X59328965Y-67548717D01*
X59396435Y-67547004D01*
X59451429Y-67544991D01*
X59495683Y-67542652D01*
X59530935Y-67539964D01*
X59558923Y-67536904D01*
X59581382Y-67533446D01*
X59600051Y-67529566D01*
X59616667Y-67525242D01*
X59683743Y-67504373D01*
X59868108Y-67425803D01*
X60039412Y-67321487D01*
X60194182Y-67194548D01*
X60328945Y-67048107D01*
X60440227Y-66885286D01*
X60524556Y-66709205D01*
X60559079Y-66624734D01*
X60620536Y-66501597D01*
X60686429Y-66404669D01*
X60759475Y-66330232D01*
X60842391Y-66274570D01*
X60854895Y-66268099D01*
X60871003Y-66261147D01*
X60890228Y-66255395D01*
X60915464Y-66250705D01*
X60949607Y-66246943D01*
X60995552Y-66243971D01*
X61056195Y-66241653D01*
X61134432Y-66239854D01*
X61233157Y-66238437D01*
X61355266Y-66237266D01*
X61503655Y-66236204D01*
X61681219Y-66235117D01*
X62454924Y-66230524D01*
X62454924Y-66286636D01*
X62454924Y-66342749D01*
X61694606Y-66347353D01*
X60934288Y-66351957D01*
X60865282Y-66400471D01*
X60796186Y-66459099D01*
X60719738Y-66554117D01*
X60667191Y-66659652D01*
X60621155Y-66776193D01*
X60520741Y-66969790D01*
X60398256Y-67144673D01*
X60255956Y-67298544D01*
X60096098Y-67429106D01*
X59920937Y-67534061D01*
X59732731Y-67611112D01*
X59697229Y-67622106D01*
X59629250Y-67640961D01*
X59572412Y-67653981D01*
X59536298Y-67658838D01*
X59508042Y-67660220D01*
X59489262Y-67666816D01*
X59497982Y-67677166D01*
X59508282Y-67680876D01*
X59531890Y-67689380D01*
G37*
%TO.C,G2*%
G36*
X73436928Y-71293770D02*
G01*
X73670498Y-71553365D01*
X73871612Y-71783148D01*
X74029096Y-71970563D01*
X74131780Y-72103056D01*
X74168490Y-72168072D01*
X74139445Y-72170960D01*
X74027131Y-72141074D01*
X73849977Y-72079617D01*
X73629044Y-71993408D01*
X73546676Y-71959951D01*
X73150021Y-71803502D01*
X72745219Y-71650674D01*
X72346219Y-71506101D01*
X71966970Y-71374419D01*
X71621419Y-71260263D01*
X71323514Y-71168268D01*
X71087205Y-71103070D01*
X70926439Y-71069303D01*
X70855165Y-71071604D01*
X70849700Y-71086323D01*
X70824972Y-71190757D01*
X70785280Y-71381288D01*
X70733809Y-71641937D01*
X70673748Y-71956721D01*
X70608284Y-72309660D01*
X70577745Y-72475533D01*
X70514439Y-72812832D01*
X70458059Y-73104583D01*
X70411780Y-73334821D01*
X70378778Y-73487578D01*
X70362228Y-73546889D01*
X70334991Y-73521927D01*
X70276068Y-73418876D01*
X70200909Y-73260515D01*
X70013579Y-72837911D01*
X69808306Y-72378039D01*
X69643300Y-72012803D01*
X69516592Y-71737944D01*
X69426212Y-71549203D01*
X69370190Y-71442319D01*
X69346556Y-71413035D01*
X69329955Y-71461387D01*
X69291912Y-71605506D01*
X69236813Y-71830229D01*
X69168171Y-72120674D01*
X69089496Y-72461959D01*
X69004299Y-72839204D01*
X68916091Y-73237527D01*
X68903294Y-73295217D01*
X68858724Y-73485220D01*
X68823701Y-73618196D01*
X68804904Y-73668271D01*
X68793005Y-73647559D01*
X68742887Y-73540087D01*
X68659722Y-73353428D01*
X68549705Y-73101691D01*
X68419034Y-72798982D01*
X68273906Y-72459409D01*
X68200615Y-72287322D01*
X68046715Y-71927225D01*
X67902070Y-71590374D01*
X67775208Y-71296546D01*
X67674655Y-71065519D01*
X67608938Y-70917068D01*
X67606021Y-70910607D01*
X67523536Y-70724918D01*
X67412480Y-70471004D01*
X67287035Y-70181450D01*
X67161383Y-69888840D01*
X67041077Y-69616518D01*
X66883470Y-69273584D01*
X66703103Y-68890999D01*
X66513989Y-68498481D01*
X66330136Y-68125747D01*
X65795714Y-67057402D01*
X66216566Y-67287910D01*
X66385294Y-67381334D01*
X66694224Y-67556965D01*
X66992217Y-67731577D01*
X67257582Y-67892169D01*
X67468628Y-68025742D01*
X67603666Y-68119293D01*
X67709849Y-68190425D01*
X67785101Y-68221444D01*
X67792725Y-68215913D01*
X67775699Y-68136692D01*
X67700433Y-67964086D01*
X67567295Y-67698834D01*
X67376649Y-67341676D01*
X67200855Y-67023611D01*
X67610066Y-67023611D01*
X67611726Y-67029042D01*
X67648717Y-67108100D01*
X67729440Y-67269712D01*
X67847452Y-67501294D01*
X67996310Y-67790259D01*
X68169570Y-68124020D01*
X68360788Y-68489992D01*
X68538579Y-68832924D01*
X68766778Y-69282304D01*
X68992351Y-69735585D01*
X69202787Y-70167320D01*
X69385572Y-70552062D01*
X69528196Y-70864364D01*
X69673330Y-71192064D01*
X69834538Y-71554023D01*
X69959826Y-71831304D01*
X70054160Y-72033774D01*
X70122508Y-72171303D01*
X70169836Y-72253757D01*
X70201111Y-72291006D01*
X70221299Y-72292916D01*
X70235369Y-72269357D01*
X70237303Y-72263940D01*
X70263055Y-72160300D01*
X70297819Y-71985205D01*
X70334646Y-71773379D01*
X70355606Y-71634080D01*
X70372019Y-71453153D01*
X70367154Y-71280649D01*
X70339054Y-71077827D01*
X70285763Y-70805951D01*
X70158735Y-70317145D01*
X69974658Y-69862817D01*
X69730071Y-69464607D01*
X69411838Y-69096827D01*
X69038432Y-68721663D01*
X69239232Y-68721663D01*
X69485997Y-68755354D01*
X69782955Y-68854798D01*
X70072937Y-69002262D01*
X70313934Y-69179836D01*
X70322362Y-69187664D01*
X70584958Y-69506635D01*
X70769976Y-69890569D01*
X70865675Y-70315302D01*
X70902667Y-70658393D01*
X71354507Y-70779933D01*
X71427873Y-70800278D01*
X71715931Y-70887416D01*
X72033601Y-70991822D01*
X72324466Y-71095161D01*
X72472719Y-71149313D01*
X72668397Y-71216244D01*
X72806861Y-71257778D01*
X72864886Y-71266551D01*
X72838395Y-71224489D01*
X72743270Y-71117429D01*
X72591346Y-70957788D01*
X72394912Y-70757664D01*
X72166257Y-70529156D01*
X71917670Y-70284362D01*
X71661443Y-70035382D01*
X71409863Y-69794314D01*
X71175221Y-69573256D01*
X70969806Y-69384306D01*
X70805908Y-69239565D01*
X70176308Y-68728124D01*
X69436223Y-68178164D01*
X68666083Y-67653979D01*
X68645669Y-67640720D01*
X68293549Y-67413224D01*
X68024656Y-67242402D01*
X67830426Y-67123142D01*
X67702294Y-67050332D01*
X67631695Y-67018859D01*
X67610066Y-67023611D01*
X67200855Y-67023611D01*
X67128861Y-66893353D01*
X67102194Y-66845493D01*
X66976448Y-66613712D01*
X66877930Y-66422009D01*
X66816005Y-66289163D01*
X66800036Y-66233954D01*
X66834701Y-66238957D01*
X66954822Y-66290332D01*
X67146665Y-66386477D01*
X67396687Y-66520109D01*
X67691344Y-66683944D01*
X68017094Y-66870699D01*
X68360394Y-67073092D01*
X69411663Y-67741395D01*
X70531840Y-68555705D01*
X71593258Y-69444728D01*
X72618532Y-70426274D01*
X72653198Y-70461661D01*
X72917106Y-70735363D01*
X73182073Y-71016918D01*
X73411872Y-71266551D01*
X73436928Y-71293770D01*
G37*
%TD*%
%LPC*%
D12*
%TO.C,D1*%
X71270000Y-77000000D03*
X70000000Y-75730000D03*
X68730000Y-77000000D03*
%TD*%
D13*
%TO.C,J1*%
X81949962Y-52400000D03*
X87050038Y-52400000D03*
%TD*%
D14*
%TO.C,J3*%
X67460000Y-53400000D03*
D15*
X70000000Y-53400000D03*
X72540000Y-53400000D03*
%TD*%
D13*
%TO.C,J2*%
X52949962Y-52400000D03*
X58050038Y-52400000D03*
%TD*%
%LPD*%
M02*
