%TF.GenerationSoftware,KiCad,Pcbnew,10.0.3*%
%TF.CreationDate,2026-07-29T13:03:50+08:00*%
%TF.ProjectId,Si_General_PD_v0.1,53695f47-656e-4657-9261-6c5f50445f76,rev?*%
%TF.SameCoordinates,Original*%
%TF.FileFunction,Soldermask,Top*%
%TF.FilePolarity,Negative*%
%FSLAX46Y46*%
G04 Gerber Fmt 4.6, Leading zero omitted, Abs format (unit mm)*
G04 Created by KiCad (PCBNEW 10.0.3) date 2026-07-29 13:03:50*
%MOMM*%
%LPD*%
G01*
G04 APERTURE LIST*
G04 Aperture macros list*
%AMRoundRect*
0 Rectangle with rounded corners*
0 $1 Rounding radius*
0 $2 $3 $4 $5 $6 $7 $8 $9 X,Y pos of 4 corners*
0 Add a 4 corners polygon primitive as box body*
4,1,4,$2,$3,$4,$5,$6,$7,$8,$9,$2,$3,0*
0 Add four circle primitives for the rounded corners*
1,1,$1+$1,$2,$3*
1,1,$1+$1,$4,$5*
1,1,$1+$1,$6,$7*
1,1,$1+$1,$8,$9*
0 Add four rect primitives between the rounded corners*
20,1,$1+$1,$2,$3,$4,$5,0*
20,1,$1+$1,$4,$5,$6,$7,0*
20,1,$1+$1,$6,$7,$8,$9,0*
20,1,$1+$1,$8,$9,$2,$3,0*%
%AMFreePoly0*
4,1,123,0.971476,0.948895,1.015900,0.945771,1.060147,0.940564,1.104089,0.933299,1.147650,0.923952,1.190704,0.912598,1.233198,0.899238,1.275006,0.883896,1.316053,0.866599,1.356261,0.847422,1.395504,0.826365,1.433731,0.803480,1.470841,0.778842,1.506756,0.752502,1.541377,0.724511,1.574676,0.694895,1.606528,0.663780,1.636906,0.631191,1.665710,0.597231,1.692888,0.561951,
1.718390,0.525425,1.742139,0.487757,1.764110,0.448997,1.784252,0.409271,1.802489,0.368631,1.818821,0.327203,1.833172,0.285039,1.845542,0.242240,1.855880,0.198908,1.864186,0.155169,1.870434,0.111049,1.874600,0.066701,1.876683,0.022225,1.876683,-0.022327,1.874600,-0.066802,1.870434,-0.111151,1.864186,-0.155271,1.855880,-0.199009,1.845542,-0.242342,1.833172,-0.285141,
1.818821,-0.327305,1.802489,-0.368733,1.784252,-0.409373,1.764110,-0.449098,1.742139,-0.487859,1.718390,-0.525527,1.692888,-0.562052,1.665710,-0.597333,1.636906,-0.631293,1.606528,-0.663881,1.574676,-0.694996,1.541377,-0.724613,1.506756,-0.752604,1.470841,-0.778943,1.433731,-0.803581,1.395504,-0.826467,1.356261,-0.847523,1.316053,-0.866701,1.275006,-0.883998,1.233198,-0.899340,
1.190704,-0.912700,1.147650,-0.924054,1.104089,-0.933401,1.060147,-0.940665,1.015900,-0.945872,0.971476,-0.948997,0.926949,-0.950064,-0.927254,-0.950064,-0.971781,-0.948997,-1.016205,-0.945872,-1.060452,-0.940665,-1.104394,-0.933401,-1.147955,-0.924054,-1.191008,-0.912700,-1.233503,-0.899340,-1.275311,-0.883998,-1.316358,-0.866701,-1.356566,-0.847523,-1.395809,-0.826467,-1.434036,-0.803581,
-1.471146,-0.778943,-1.507061,-0.752604,-1.541681,-0.724613,-1.574981,-0.694996,-1.606833,-0.663881,-1.637211,-0.631293,-1.666015,-0.597333,-1.693193,-0.562052,-1.718694,-0.525527,-1.742443,-0.487859,-1.764415,-0.449098,-1.784557,-0.409373,-1.802794,-0.330074,-3.500127,-0.330074,-3.500127,0.329921,-1.802794,0.329921,-1.784557,0.409271,-1.764415,0.448997,-1.742443,0.487757,-1.718694,0.525425,
-1.693193,0.561951,-1.666015,0.597231,-1.637211,0.631191,-1.606833,0.663780,-1.574981,0.694895,-1.541681,0.724511,-1.507061,0.752502,-1.471146,0.778842,-1.434036,0.803480,-1.395809,0.826365,-1.356566,0.847422,-1.316358,0.866599,-1.275311,0.883896,-1.233503,0.899238,-1.191008,0.912598,-1.147955,0.923952,-1.104394,0.933299,-1.060452,0.940564,-1.016205,0.945771,-0.971781,0.948895,
-0.927254,0.949962,0.926949,0.949962,0.971476,0.948895,0.971476,0.948895,$1*%
%AMFreePoly1*
4,1,123,0.971755,0.948895,1.016180,0.945771,1.060427,0.940564,1.104369,0.933299,1.147930,0.923952,1.190983,0.912598,1.233477,0.899238,1.275286,0.883896,1.316332,0.866599,1.356541,0.847422,1.395784,0.826365,1.434011,0.803480,1.471120,0.778842,1.507036,0.752502,1.541656,0.724511,1.574956,0.694895,1.606807,0.663780,1.637186,0.631191,1.665989,0.597231,1.693167,0.561951,
1.718669,0.525425,1.742418,0.487757,1.764389,0.448997,1.784531,0.409271,1.802769,0.329972,3.500102,0.329972,3.500102,-0.330023,1.802769,-0.330023,1.784531,-0.409373,1.764389,-0.449098,1.742418,-0.487859,1.718669,-0.525527,1.693167,-0.562052,1.665989,-0.597333,1.637186,-0.631293,1.606807,-0.663881,1.574956,-0.694996,1.541656,-0.724613,1.507036,-0.752604,1.471120,-0.778943,
1.434011,-0.803581,1.395784,-0.826467,1.356541,-0.847523,1.316332,-0.866701,1.275286,-0.883998,1.233477,-0.899340,1.190983,-0.912700,1.147930,-0.924054,1.104369,-0.933401,1.060427,-0.940665,1.016180,-0.945872,0.971755,-0.948997,0.927229,-0.950064,-0.926975,-0.950064,-0.971501,-0.948997,-1.015926,-0.945872,-1.060173,-0.940665,-1.104115,-0.933401,-1.147676,-0.924054,-1.190729,-0.912700,
-1.233223,-0.899340,-1.275032,-0.883998,-1.316078,-0.866701,-1.356287,-0.847523,-1.395530,-0.826467,-1.433757,-0.803581,-1.470866,-0.778943,-1.506782,-0.752604,-1.541402,-0.724613,-1.574702,-0.694996,-1.606553,-0.663881,-1.636932,-0.631293,-1.665735,-0.597333,-1.692913,-0.562052,-1.718415,-0.525527,-1.742164,-0.487859,-1.764135,-0.449098,-1.784277,-0.409373,-1.802515,-0.368733,-1.818847,-0.327305,
-1.833198,-0.285141,-1.845568,-0.242342,-1.855906,-0.199009,-1.864211,-0.155271,-1.870460,-0.111151,-1.874625,-0.066802,-1.876708,-0.022327,-1.876708,0.022225,-1.874625,0.066701,-1.870460,0.111049,-1.864211,0.155169,-1.855906,0.198908,-1.845568,0.242240,-1.833198,0.285039,-1.818847,0.327203,-1.802515,0.368631,-1.784277,0.409271,-1.764135,0.448997,-1.742164,0.487757,-1.718415,0.525425,
-1.692913,0.561951,-1.665735,0.597231,-1.636932,0.631191,-1.606553,0.663780,-1.574702,0.694895,-1.541402,0.724511,-1.506782,0.752502,-1.470866,0.778842,-1.433757,0.803480,-1.395530,0.826365,-1.356287,0.847422,-1.316078,0.866599,-1.275032,0.883896,-1.233223,0.899238,-1.190729,0.912598,-1.147676,0.923952,-1.104115,0.933299,-1.060173,0.940564,-1.015926,0.945771,-0.971501,0.948895,
-0.926975,0.949962,0.927229,0.949962,0.971755,0.948895,0.971755,0.948895,$1*%
G04 Aperture macros list end*
%ADD10RoundRect,0.250000X-0.475000X0.250000X-0.475000X-0.250000X0.475000X-0.250000X0.475000X0.250000X0*%
%ADD11RoundRect,0.135000X-0.135000X-0.185000X0.135000X-0.185000X0.135000X0.185000X-0.135000X0.185000X0*%
%ADD12C,1.312000*%
%ADD13RoundRect,0.225000X-0.250000X0.225000X-0.250000X-0.225000X0.250000X-0.225000X0.250000X0.225000X0*%
%ADD14RoundRect,0.140000X0.170000X-0.140000X0.170000X0.140000X-0.170000X0.140000X-0.170000X-0.140000X0*%
%ADD15RoundRect,0.250000X0.475000X-0.250000X0.475000X0.250000X-0.475000X0.250000X-0.475000X-0.250000X0*%
%ADD16RoundRect,0.225000X-0.225000X-0.250000X0.225000X-0.250000X0.225000X0.250000X-0.225000X0.250000X0*%
%ADD17RoundRect,0.135000X0.185000X-0.135000X0.185000X0.135000X-0.185000X0.135000X-0.185000X-0.135000X0*%
%ADD18RoundRect,0.140000X-0.170000X0.140000X-0.170000X-0.140000X0.170000X-0.140000X0.170000X0.140000X0*%
%ADD19RoundRect,0.250000X0.250000X0.475000X-0.250000X0.475000X-0.250000X-0.475000X0.250000X-0.475000X0*%
%ADD20R,0.800000X0.280010*%
%ADD21R,1.200000X2.000000*%
%ADD22RoundRect,0.140000X-0.140000X-0.170000X0.140000X-0.170000X0.140000X0.170000X-0.140000X0.170000X0*%
%ADD23RoundRect,0.225000X0.250000X-0.225000X0.250000X0.225000X-0.250000X0.225000X-0.250000X-0.225000X0*%
%ADD24R,0.672009X1.575006*%
%ADD25FreePoly0,270.000000*%
%ADD26RoundRect,0.135000X0.135000X0.185000X-0.135000X0.185000X-0.135000X-0.185000X0.135000X-0.185000X0*%
%ADD27R,1.300000X4.500000*%
%ADD28RoundRect,0.140000X0.140000X0.170000X-0.140000X0.170000X-0.140000X-0.170000X0.140000X-0.170000X0*%
%ADD29O,0.588011X2.045009*%
%ADD30R,1.600000X1.600000*%
%ADD31C,1.600000*%
%ADD32FreePoly1,90.000000*%
%ADD33R,1.500000X2.400000*%
G04 APERTURE END LIST*
D10*
%TO.C,C15*%
X60300000Y-62650000D03*
X60300000Y-64550000D03*
%TD*%
D11*
%TO.C,R5*%
X81590000Y-69100000D03*
X82610000Y-69100000D03*
%TD*%
D12*
%TO.C,D1*%
X71270000Y-77000000D03*
X70000000Y-75730000D03*
X68730000Y-77000000D03*
%TD*%
D13*
%TO.C,C23*%
X72291491Y-56081236D03*
X72291491Y-57631236D03*
%TD*%
D14*
%TO.C,C7*%
X59700000Y-70880000D03*
X59700000Y-69920000D03*
%TD*%
D15*
%TO.C,C11*%
X78546297Y-75050064D03*
X78546297Y-73150064D03*
%TD*%
D13*
%TO.C,C19*%
X69600000Y-64525000D03*
X69600000Y-66075000D03*
%TD*%
D16*
%TO.C,C22*%
X76325000Y-54000000D03*
X77875000Y-54000000D03*
%TD*%
D17*
%TO.C,R1*%
X64700000Y-78320000D03*
X64700000Y-77300000D03*
%TD*%
D18*
%TO.C,C8*%
X85800000Y-70320000D03*
X85800000Y-71280000D03*
%TD*%
D19*
%TO.C,C9*%
X83657417Y-67149936D03*
X81757417Y-67149936D03*
%TD*%
D20*
%TO.C,U2*%
X81592583Y-71049936D03*
X81592583Y-71550064D03*
X81592583Y-72049936D03*
X81592583Y-72550064D03*
X84407417Y-72550064D03*
X84407417Y-72049936D03*
X84407417Y-71550064D03*
X84407417Y-71049936D03*
D21*
X83000000Y-71800000D03*
%TD*%
D22*
%TO.C,C12*%
X55600000Y-72100000D03*
X56560000Y-72100000D03*
%TD*%
D23*
%TO.C,C18*%
X62300000Y-62475000D03*
X62300000Y-60925000D03*
%TD*%
D13*
%TO.C,C16*%
X62300000Y-56075000D03*
X62300000Y-57625000D03*
%TD*%
D24*
%TO.C,U6*%
X77600000Y-64743764D03*
D25*
X76091491Y-67456236D03*
D24*
X74600000Y-64743764D03*
%TD*%
D11*
%TO.C,R4*%
X79190000Y-70400000D03*
X80210000Y-70400000D03*
%TD*%
D24*
%TO.C,U7*%
X77600000Y-56343764D03*
D25*
X76091491Y-59056236D03*
D24*
X74600000Y-56343764D03*
%TD*%
D13*
%TO.C,C17*%
X69591491Y-56081236D03*
X69591491Y-57631236D03*
%TD*%
D26*
%TO.C,R2*%
X65710000Y-76199949D03*
X64690000Y-76199949D03*
%TD*%
D18*
%TO.C,C6*%
X59100000Y-75320000D03*
X59100000Y-76280000D03*
%TD*%
D15*
%TO.C,C5*%
X56600000Y-76700000D03*
X56600000Y-74800000D03*
%TD*%
D10*
%TO.C,C13*%
X54100000Y-72100000D03*
X54100000Y-74000000D03*
%TD*%
D26*
%TO.C,R7*%
X55710000Y-61700000D03*
X54690000Y-61700000D03*
%TD*%
D14*
%TO.C,C10*%
X80346297Y-73760064D03*
X80346297Y-72800064D03*
%TD*%
D24*
%TO.C,U4*%
X67500000Y-56343764D03*
D25*
X65991491Y-59056236D03*
D24*
X64500000Y-56343764D03*
%TD*%
D27*
%TO.C,J1*%
X81949962Y-52400000D03*
X87050038Y-52400000D03*
X84499873Y-52400000D03*
%TD*%
D22*
%TO.C,C1*%
X74130000Y-77030000D03*
X75090000Y-77030000D03*
%TD*%
D28*
%TO.C,C4*%
X59180000Y-78000000D03*
X58220000Y-78000000D03*
%TD*%
D29*
%TO.C,U3*%
X57905004Y-64930023D03*
X56635001Y-64930023D03*
X55364999Y-64930023D03*
X54094996Y-64930023D03*
X54094996Y-70069977D03*
X55364999Y-70069977D03*
X56635001Y-70069977D03*
X57905004Y-70069977D03*
%TD*%
D11*
%TO.C,R3*%
X59700000Y-66300000D03*
X60720000Y-66300000D03*
%TD*%
D17*
%TO.C,R8*%
X84500127Y-60510000D03*
X84500127Y-59490000D03*
%TD*%
D19*
%TO.C,C3*%
X55650000Y-78700000D03*
X53750000Y-78700000D03*
%TD*%
D17*
%TO.C,R9*%
X55500000Y-58510000D03*
X55500000Y-57490000D03*
%TD*%
D13*
%TO.C,C21*%
X72400000Y-64525000D03*
X72400000Y-66075000D03*
%TD*%
D14*
%TO.C,C2*%
X65900000Y-78260000D03*
X65900000Y-77300000D03*
%TD*%
D22*
%TO.C,C14*%
X53140000Y-62900000D03*
X54100000Y-62900000D03*
%TD*%
D16*
%TO.C,C20*%
X76100000Y-62450000D03*
X77650000Y-62450000D03*
%TD*%
D26*
%TO.C,R6*%
X57720000Y-62902510D03*
X56700000Y-62902510D03*
%TD*%
D30*
%TO.C,J3*%
X67460000Y-53400000D03*
D31*
X70000000Y-53400000D03*
X72540000Y-53400000D03*
%TD*%
D24*
%TO.C,U5*%
X67500000Y-64743764D03*
D32*
X66000127Y-67456236D03*
D24*
X64500000Y-64743764D03*
%TD*%
D27*
%TO.C,J2*%
X52949962Y-52400000D03*
X58050038Y-52400000D03*
X55499873Y-52400000D03*
%TD*%
D20*
%TO.C,U1*%
X63291147Y-77750063D03*
X63291147Y-77249936D03*
X63291147Y-76750063D03*
X63291147Y-76249936D03*
X60476314Y-76249936D03*
X60476314Y-76750063D03*
X60476314Y-77249936D03*
X60476314Y-77750063D03*
D33*
X61883731Y-77000000D03*
%TD*%
M02*
